<svg xmlns="http://www.w3.org/2000/svg" xmlns:xlink="http://www.w3.org/1999/xlink" width="500" zoomAndPan="magnify" viewBox="0 0 375 374.999991" height="500" preserveAspectRatio="xMidYMid meet" version="1.0"><defs><clipPath id="738b79dbb0"><path d="M 23 18.75 L 355 18.75 L 355 179 L 23 179 Z M 23 18.75 " clip-rule="nonzero"/></clipPath><clipPath id="c6c01c2914"><path d="M 122 321 L 143 321 L 143 356.25 L 122 356.25 Z M 122 321 " clip-rule="nonzero"/></clipPath></defs><path fill="#ffe66b" d="M 107.554688 166.476562 L 131.101562 166.476562 L 119.441406 204.984375 C 125.863281 204.984375 132.28125 204.984375 138.699219 204.984375 L 99.015625 275.839844 L 115.691406 220.386719 L 97.703125 220.386719 C 100.988281 202.417969 104.269531 184.445312 107.554688 166.476562 Z M 107.554688 166.476562 " fill-opacity="1" fill-rule="evenodd"/><path fill="#ffe66b" d="M 166.6875 166.476562 L 196.441406 166.476562 L 181.710938 215.128906 C 189.824219 215.128906 197.933594 215.128906 206.042969 215.128906 L 155.90625 304.664062 L 176.972656 234.597656 L 154.246094 234.597656 C 158.394531 211.886719 162.542969 189.179688 166.6875 166.476562 Z M 166.6875 166.476562 " fill-opacity="1" fill-rule="evenodd"/><path fill="#ffe66b" d="M 232.308594 166.476562 L 255.851562 166.476562 L 244.199219 204.984375 C 250.621094 204.984375 257.03125 204.984375 263.453125 204.984375 L 223.773438 275.839844 L 240.445312 220.386719 L 222.460938 220.386719 C 225.742188 202.417969 229.023438 184.445312 232.308594 166.476562 Z M 232.308594 166.476562 " fill-opacity="1" fill-rule="evenodd"/><path fill="#a1c6e6" d="M 178.605469 131.464844 C 178.371094 131.476562 178.128906 131.488281 177.890625 131.488281 L 23.195312 131.488281 C 23.085938 131.488281 22.984375 131.488281 22.878906 131.484375 C 22.765625 131.484375 22.660156 131.488281 22.550781 131.488281 C 10.136719 131.488281 0.0742188 121.421875 0.0742188 109.007812 C 0.0742188 96.59375 10.136719 86.53125 22.550781 86.53125 C 25.265625 86.53125 27.859375 87.011719 30.269531 87.894531 C 31.867188 72.179688 45.136719 59.921875 61.269531 59.921875 C 61.800781 59.921875 62.328125 59.933594 62.851562 59.960938 C 69.105469 45.648438 83.382812 35.644531 99.996094 35.644531 C 118.960938 35.644531 134.882812 48.671875 139.292969 66.265625 C 142.234375 65.347656 145.359375 64.851562 148.601562 64.851562 C 165.261719 64.851562 178.863281 77.925781 179.722656 94.375 C 189.875 94.488281 198.066406 102.75 198.066406 112.929688 C 198.066406 123.179688 189.757812 131.488281 179.511719 131.488281 C 179.207031 131.488281 178.90625 131.476562 178.605469 131.464844 Z M 178.605469 131.464844 " fill-opacity="1" fill-rule="evenodd"/><path fill="#a1c6e6" d="M 356.46875 137.414062 C 355.097656 137.808594 353.648438 138.027344 352.15625 138.027344 L 203.539062 138.027344 C 203.398438 138.027344 203.269531 138.023438 203.128906 138.015625 C 202.988281 138.023438 202.851562 138.027344 202.710938 138.027344 C 186.765625 138.027344 173.839844 125.097656 173.839844 109.152344 C 173.839844 93.207031 186.765625 80.28125 202.710938 80.28125 C 206.191406 80.28125 209.53125 80.898438 212.621094 82.027344 C 214.675781 61.847656 231.71875 46.101562 252.445312 46.101562 C 254.988281 46.101562 257.476562 46.339844 259.886719 46.796875 C 269.332031 33.644531 284.757812 25.074219 302.183594 25.074219 C 330.925781 25.074219 354.21875 48.371094 354.21875 77.109375 C 354.21875 81.699219 353.625 86.148438 352.503906 90.390625 C 365.015625 91.121094 374.929688 101.496094 374.929688 114.1875 C 374.929688 125.5 367.046875 134.976562 356.46875 137.414062 Z M 356.46875 137.414062 " fill-opacity="1" fill-rule="evenodd"/><g clip-path="url(#738b79dbb0)"><path fill="#c6e0f7" d="M 321.8125 178.722656 C 321.414062 178.75 321.015625 178.761719 320.605469 178.761719 L 62.34375 178.761719 C 62.167969 178.761719 61.992188 178.757812 61.8125 178.753906 C 61.632812 178.757812 61.453125 178.761719 61.269531 178.761719 C 40.542969 178.761719 23.746094 161.957031 23.746094 141.234375 C 23.746094 120.507812 40.542969 103.707031 61.269531 103.707031 C 65.796875 103.707031 70.136719 104.507812 74.15625 105.980469 C 76.824219 79.75 98.976562 59.28125 125.914062 59.28125 C 126.800781 59.28125 127.679688 59.304688 128.558594 59.347656 C 138.992188 35.453125 162.824219 18.75 190.570312 18.75 C 222.230469 18.75 248.804688 40.5 256.175781 69.875 C 261.082031 68.34375 266.296875 67.515625 271.710938 67.515625 C 299.527344 67.515625 322.246094 89.339844 323.667969 116.796875 C 340.617188 116.988281 354.300781 130.785156 354.300781 147.777344 C 354.300781 164.890625 340.429688 178.765625 323.316406 178.765625 C 322.8125 178.761719 322.308594 178.75 321.8125 178.722656 Z M 321.8125 178.722656 " fill-opacity="1" fill-rule="evenodd"/></g><path fill="#78b1e3" d="M 69.871094 186.242188 C 69.871094 186.242188 92.261719 221.109375 69.859375 221.101562 C 47.460938 221.097656 69.871094 186.242188 69.871094 186.242188 Z M 69.871094 186.242188 " fill-opacity="1" fill-rule="evenodd"/><path fill="#78b1e3" d="M 71.605469 240.289062 C 71.605469 240.289062 93.996094 275.152344 71.597656 275.148438 C 49.199219 275.140625 71.605469 240.289062 71.605469 240.289062 Z M 71.605469 240.289062 " fill-opacity="1" fill-rule="evenodd"/><path fill="#78b1e3" d="M 134.351562 252.84375 C 134.351562 252.84375 156.742188 287.710938 134.34375 287.707031 C 111.949219 287.703125 134.351562 252.84375 134.351562 252.84375 Z M 134.351562 252.84375 " fill-opacity="1" fill-rule="evenodd"/><path fill="#78b1e3" d="M 96.503906 291.484375 C 96.503906 291.484375 118.898438 326.351562 96.496094 326.347656 C 74.097656 326.34375 96.503906 291.484375 96.503906 291.484375 Z M 96.503906 291.484375 " fill-opacity="1" fill-rule="evenodd"/><path fill="#78b1e3" d="M 201.785156 265.699219 C 201.785156 265.699219 224.175781 300.566406 201.777344 300.558594 C 179.375 300.554688 201.785156 265.699219 201.785156 265.699219 Z M 201.785156 265.699219 " fill-opacity="1" fill-rule="evenodd"/><path fill="#78b1e3" d="M 258.808594 272.417969 C 258.808594 272.417969 281.203125 307.285156 258.800781 307.277344 C 236.40625 307.273438 258.808594 272.417969 258.808594 272.417969 Z M 258.808594 272.417969 " fill-opacity="1" fill-rule="evenodd"/><path fill="#78b1e3" d="M 277.285156 225.359375 C 277.285156 225.359375 299.675781 260.226562 277.277344 260.222656 C 254.875 260.21875 277.285156 225.359375 277.285156 225.359375 Z M 277.285156 225.359375 " fill-opacity="1" fill-rule="evenodd"/><path fill="#78b1e3" d="M 308.683594 186.765625 C 308.683594 186.765625 331.074219 221.632812 308.675781 221.628906 C 286.273438 221.621094 308.683594 186.765625 308.683594 186.765625 Z M 308.683594 186.765625 " fill-opacity="1" fill-rule="evenodd"/><path fill="#78b1e3" d="M 313.210938 242.90625 C 313.210938 242.90625 335.601562 277.773438 313.203125 277.765625 C 290.804688 277.761719 313.210938 242.90625 313.210938 242.90625 Z M 313.210938 242.90625 " fill-opacity="1" fill-rule="evenodd"/><path fill="#78b1e3" d="M 292.984375 298.34375 C 292.984375 298.34375 315.375 333.210938 292.976562 333.207031 C 270.582031 333.199219 292.984375 298.34375 292.984375 298.34375 Z M 292.984375 298.34375 " fill-opacity="1" fill-rule="evenodd"/><path fill="#78b1e3" d="M 227.09375 309.507812 C 227.09375 309.507812 249.484375 344.375 227.085938 344.367188 C 204.683594 344.363281 227.09375 309.507812 227.09375 309.507812 Z M 227.09375 309.507812 " fill-opacity="1" fill-rule="evenodd"/><path fill="#78b1e3" d="M 174.097656 307.773438 C 174.097656 307.773438 196.488281 342.640625 174.085938 342.636719 C 151.6875 342.628906 174.097656 307.773438 174.097656 307.773438 Z M 174.097656 307.773438 " fill-opacity="1" fill-rule="evenodd"/><g clip-path="url(#c6c01c2914)"><path fill="#78b1e3" d="M 132.605469 321.378906 C 132.605469 321.378906 155 356.246094 132.597656 356.242188 C 110.199219 356.234375 132.605469 321.378906 132.605469 321.378906 Z M 132.605469 321.378906 " fill-opacity="1" fill-rule="evenodd"/></g></svg>