<svg xmlns="http://www.w3.org/2000/svg" xmlns:xlink="http://www.w3.org/1999/xlink" width="500" zoomAndPan="magnify" viewBox="0 0 375 374.999991" height="500" preserveAspectRatio="xMidYMid meet" version="1.0"><defs><clipPath id="38971e7aef"><path d="M 0 0 L 375 0 L 375 346.742188 L 0 346.742188 Z M 0 0 " clip-rule="nonzero"/></clipPath></defs><path fill="#ffcd00" d="M 203.765625 279.59375 C 177.210938 279.59375 151.640625 271.519531 129.796875 256.246094 C 71.355469 215.367188 57.046875 134.542969 97.902344 76.074219 C 113.695312 53.457031 135.800781 36.78125 161.820312 27.847656 C 163.808594 27.167969 166.003906 27.902344 167.171875 29.652344 C 168.34375 31.390625 168.199219 33.703125 166.820312 35.289062 C 163.976562 38.554688 161.296875 41.988281 158.835938 45.5 C 120.914062 99.777344 134.203125 174.808594 188.449219 212.753906 C 208.710938 226.925781 232.449219 234.425781 257.09375 234.425781 C 257.101562 234.425781 257.101562 234.425781 257.101562 234.425781 C 270.457031 234.425781 283.636719 232.222656 296.277344 227.882812 C 298.261719 227.203125 300.457031 227.9375 301.632812 229.683594 C 302.800781 231.425781 302.660156 233.738281 301.277344 235.324219 C 276.773438 263.453125 241.238281 279.59375 203.773438 279.59375 C 203.773438 279.59375 203.765625 279.59375 203.765625 279.59375 Z M 203.765625 279.59375 " fill-opacity="1" fill-rule="evenodd"/><g clip-path="url(#38971e7aef)"><path fill="#ffcd00" d="M 60.363281 59.792969 C 58.324219 59.792969 56.53125 58.460938 55.925781 56.511719 L 44.933594 20.71875 L 9.152344 9.71875 C 7.203125 9.117188 5.882812 7.3125 5.882812 5.28125 C 5.882812 3.246094 7.203125 1.445312 9.152344 0.847656 L 44.933594 -10.148438 L 55.925781 -45.953125 C 56.53125 -47.902344 58.324219 -49.230469 60.363281 -49.230469 C 62.398438 -49.230469 64.199219 -47.902344 64.792969 -45.953125 L 75.785156 -10.148438 L 111.566406 0.847656 C 113.515625 1.445312 114.84375 3.246094 114.84375 5.28125 C 114.84375 7.320312 113.515625 9.117188 111.566406 9.71875 L 75.785156 20.71875 L 64.792969 56.511719 C 64.199219 58.460938 62.398438 59.792969 60.363281 59.792969 Z M 320.378906 114.03125 C 318.347656 114.03125 316.546875 112.703125 315.941406 110.753906 L 304.957031 74.953125 L 269.175781 63.953125 C 267.21875 63.359375 265.898438 61.554688 265.898438 59.519531 C 265.898438 57.480469 267.226562 55.683594 269.175781 55.082031 L 304.957031 44.082031 L 315.941406 8.28125 C 316.546875 6.339844 318.347656 5.007812 320.378906 5.007812 C 322.417969 5.007812 324.214844 6.339844 324.816406 8.28125 L 335.800781 44.082031 L 371.582031 55.082031 C 373.53125 55.683594 374.859375 57.480469 374.859375 59.519531 C 374.859375 61.554688 373.53125 63.359375 371.582031 63.953125 L 335.800781 74.953125 L 324.816406 110.753906 C 324.214844 112.703125 322.417969 114.03125 320.378906 114.03125 Z M 239.894531 172.027344 C 238.9375 172.027344 237.96875 171.730469 237.15625 171.136719 L 214.214844 154.390625 L 191.273438 171.136719 C 189.648438 172.320312 187.445312 172.328125 185.816406 171.144531 C 184.191406 169.960938 183.511719 167.855469 184.128906 165.945312 L 192.957031 138.9375 L 169.953125 122.285156 C 168.320312 121.101562 167.640625 119.007812 168.261719 117.089844 C 168.878906 115.179688 170.664062 113.886719 172.675781 113.886719 C 172.675781 113.886719 172.679688 113.886719 172.679688 113.886719 L 201.082031 113.941406 L 209.800781 86.902344 C 210.417969 84.984375 212.207031 83.683594 214.214844 83.683594 C 216.226562 83.683594 218.011719 84.984375 218.628906 86.902344 L 227.355469 113.941406 L 255.75 113.886719 C 255.757812 113.886719 255.757812 113.886719 255.757812 113.886719 C 257.765625 113.886719 259.550781 115.179688 260.171875 117.089844 C 260.789062 119.007812 260.109375 121.101562 258.476562 122.285156 L 235.472656 138.9375 L 244.300781 165.945312 C 244.925781 167.855469 244.246094 169.960938 242.613281 171.144531 C 241.804688 171.730469 240.84375 172.027344 239.894531 172.027344 Z M 54.542969 346.769531 C 52.511719 346.769531 50.710938 345.4375 50.113281 343.488281 L 39.121094 307.6875 L 3.339844 296.6875 C 1.390625 296.09375 0.0625 294.289062 0.0625 292.257812 C 0.0625 290.222656 1.390625 288.421875 3.339844 287.816406 L 39.121094 276.820312 L 50.113281 241.023438 C 50.710938 239.074219 52.511719 237.746094 54.542969 237.746094 C 56.585938 237.746094 58.378906 239.074219 58.980469 241.023438 L 69.964844 276.820312 L 105.753906 287.816406 C 107.703125 288.421875 109.023438 290.222656 109.023438 292.257812 C 109.023438 294.289062 107.703125 296.09375 105.753906 296.6875 L 69.964844 307.6875 L 58.980469 343.488281 C 58.378906 345.4375 56.585938 346.769531 54.542969 346.769531 Z M 54.542969 346.769531 " fill-opacity="1" fill-rule="evenodd"/></g><path fill="#e6b900" d="M 155.234375 252.507812 C 96.796875 211.632812 82.488281 130.808594 123.339844 72.335938 C 135.066406 55.554688 150.265625 42.042969 167.964844 32.535156 C 168.113281 29.542969 165.199219 26.6875 161.820312 27.847656 C 135.800781 36.78125 113.695312 53.457031 97.902344 76.074219 C 57.046875 134.542969 71.355469 215.367188 129.796875 256.246094 C 151.640625 271.519531 177.210938 279.59375 203.765625 279.59375 C 214.492188 279.59375 225.066406 278.273438 235.273438 275.71875 C 233.253906 275.8125 231.230469 275.859375 229.195312 275.859375 C 202.652344 275.859375 177.078125 267.785156 155.234375 252.507812 Z M 155.234375 252.507812 " fill-opacity="1" fill-rule="evenodd"/></svg>