<svg xmlns="http://www.w3.org/2000/svg" xmlns:xlink="http://www.w3.org/1999/xlink" width="500" zoomAndPan="magnify" viewBox="0 0 375 374.999991" height="500" preserveAspectRatio="xMidYMid meet" version="1.0"><defs><clipPath id="f266f726e1"><path d="M 0 53.828125 L 156 53.828125 L 156 129 L 0 129 Z M 0 53.828125 " clip-rule="nonzero"/></clipPath><clipPath id="586eab9a63"><path d="M 219 245 L 375 245 L 375 320.828125 L 219 320.828125 Z M 219 245 " clip-rule="nonzero"/></clipPath></defs><g clip-path="url(#f266f726e1)"><path fill="#f0f8ff" d="M 15.351562 128.871094 C 15.539062 128.878906 15.730469 128.886719 15.917969 128.886719 L 137.210938 128.886719 C 137.296875 128.886719 137.378906 128.886719 137.460938 128.882812 C 137.542969 128.882812 137.632812 128.886719 137.714844 128.886719 C 147.449219 128.886719 155.339844 121.003906 155.339844 111.285156 C 155.339844 101.566406 147.449219 93.683594 137.714844 93.683594 C 135.589844 93.683594 133.554688 94.0625 131.667969 94.75 C 130.414062 82.445312 120.007812 72.847656 107.355469 72.847656 C 106.941406 72.847656 106.527344 72.855469 106.117188 72.875 C 101.214844 61.671875 90.019531 53.832031 76.988281 53.832031 C 62.125 53.832031 49.640625 64.039062 46.179688 77.816406 C 43.875 77.09375 41.425781 76.707031 38.882812 76.707031 C 25.820312 76.707031 15.152344 86.941406 14.480469 99.824219 C 6.519531 99.914062 0.09375 106.382812 0.09375 114.355469 C 0.09375 122.382812 6.613281 128.890625 14.644531 128.890625 C 14.882812 128.886719 15.121094 128.886719 15.351562 128.871094 Z M 15.351562 128.871094 " fill-opacity="1" fill-rule="evenodd"/></g><path fill="#f0f8ff" d="M 243.722656 129.46875 C 243.847656 129.476562 243.972656 129.480469 244.097656 129.480469 L 324.15625 129.480469 C 324.210938 129.480469 324.265625 129.480469 324.320312 129.476562 C 324.378906 129.480469 324.433594 129.480469 324.488281 129.480469 C 330.914062 129.480469 336.125 124.277344 336.125 117.863281 C 336.125 111.449219 330.914062 106.246094 324.488281 106.246094 C 323.085938 106.246094 321.738281 106.496094 320.492188 106.945312 C 319.667969 98.828125 312.800781 92.488281 304.453125 92.488281 C 304.175781 92.488281 303.902344 92.496094 303.628906 92.507812 C 300.398438 85.113281 293.007812 79.941406 284.410156 79.941406 C 274.59375 79.941406 266.359375 86.675781 264.074219 95.769531 C 262.554688 95.292969 260.933594 95.039062 259.253906 95.039062 C 250.632812 95.039062 243.59375 101.792969 243.152344 110.296875 C 237.898438 110.355469 233.65625 114.625 233.65625 119.890625 C 233.65625 125.1875 237.957031 129.480469 243.261719 129.480469 C 243.417969 129.480469 243.570312 129.476562 243.722656 129.46875 Z M 243.722656 129.46875 " fill-opacity="1" fill-rule="evenodd"/><path fill="#ffc44f" d="M 194.769531 128.707031 C 227.890625 128.707031 254.734375 155.515625 254.734375 188.59375 C 254.734375 221.671875 227.890625 248.484375 194.769531 248.484375 C 161.648438 248.484375 134.804688 221.671875 134.804688 188.59375 C 134.804688 155.515625 161.648438 128.707031 194.769531 128.707031 Z M 194.769531 128.707031 " fill-opacity="1" fill-rule="evenodd"/><path fill="#ffe66b" d="M 194.769531 128.707031 C 227.890625 128.707031 254.734375 155.515625 254.734375 188.59375 C 254.734375 189.066406 254.726562 189.539062 254.71875 190.011719 C 245.792969 202.746094 230.992188 211.074219 214.25 211.074219 C 186.980469 211.074219 164.875 189 164.875 161.765625 C 164.875 150.632812 168.574219 140.363281 174.804688 132.105469 C 181.050781 129.90625 187.769531 128.707031 194.769531 128.707031 Z M 194.769531 128.707031 " fill-opacity="1" fill-rule="evenodd"/><path fill="#ffc44f" d="M 194.769531 85.59375 C 197.597656 85.59375 199.914062 87.90625 199.914062 90.730469 L 199.914062 114.304688 C 199.914062 117.128906 197.597656 119.441406 194.769531 119.441406 C 191.941406 119.441406 189.625 117.128906 189.625 114.304688 L 189.625 90.730469 C 189.625 87.90625 191.941406 85.59375 194.769531 85.59375 Z M 194.769531 85.59375 " fill-opacity="1" fill-rule="evenodd"/><path fill="#ffc44f" d="M 143.203125 99.390625 C 145.652344 97.980469 148.816406 98.828125 150.230469 101.273438 L 162.03125 121.691406 C 163.449219 124.136719 162.597656 127.296875 160.148438 128.710938 C 157.699219 130.121094 154.535156 129.273438 153.125 126.824219 L 141.320312 106.410156 C 139.90625 103.964844 140.753906 100.808594 143.203125 99.390625 Z M 143.203125 99.390625 " fill-opacity="1" fill-rule="evenodd"/><path fill="#ffc44f" d="M 105.453125 137.09375 L 105.457031 137.09375 C 106.871094 134.648438 110.03125 133.800781 112.480469 135.214844 L 132.925781 147 C 135.375 148.414062 136.222656 151.570312 134.808594 154.019531 C 133.394531 156.464844 130.230469 157.308594 127.785156 155.898438 L 107.339844 144.109375 C 104.886719 142.699219 104.039062 139.542969 105.453125 137.09375 Z M 105.453125 137.09375 " fill-opacity="1" fill-rule="evenodd"/><path fill="#ffc44f" d="M 91.636719 188.59375 C 91.636719 185.769531 93.953125 183.457031 96.78125 183.457031 L 120.390625 183.457031 C 123.21875 183.457031 125.53125 185.769531 125.53125 188.59375 C 125.53125 191.417969 123.21875 193.730469 120.390625 193.730469 L 96.78125 193.730469 C 93.953125 193.730469 91.636719 191.417969 91.636719 188.59375 Z M 91.636719 188.59375 " fill-opacity="1" fill-rule="evenodd"/><path fill="#ffc44f" d="M 105.453125 240.09375 C 104.039062 237.648438 104.886719 234.488281 107.339844 233.078125 L 127.785156 221.289062 C 130.230469 219.878906 133.394531 220.722656 134.808594 223.167969 C 136.222656 225.613281 135.375 228.773438 132.925781 230.1875 L 112.480469 241.976562 C 110.03125 243.386719 106.867188 242.539062 105.453125 240.09375 Z M 105.453125 240.09375 " fill-opacity="1" fill-rule="evenodd"/><path fill="#ffc44f" d="M 143.203125 277.792969 C 140.753906 276.382812 139.90625 273.226562 141.320312 270.78125 L 153.125 250.359375 C 154.539062 247.914062 157.699219 247.066406 160.148438 248.480469 C 162.597656 249.890625 163.449219 253.050781 162.03125 255.496094 L 150.230469 275.914062 C 148.816406 278.363281 145.652344 279.210938 143.203125 277.792969 Z M 143.203125 277.792969 " fill-opacity="1" fill-rule="evenodd"/><path fill="#ffc44f" d="M 194.769531 291.597656 L 194.765625 291.597656 C 191.9375 291.597656 189.625 289.28125 189.625 286.457031 L 189.625 262.882812 C 189.625 260.054688 191.9375 257.746094 194.765625 257.746094 L 194.769531 257.746094 C 197.597656 257.746094 199.914062 260.054688 199.914062 262.882812 L 199.914062 286.457031 C 199.914062 289.28125 197.597656 291.597656 194.769531 291.597656 Z M 194.769531 291.597656 " fill-opacity="1" fill-rule="evenodd"/><path fill="#ffc44f" d="M 246.335938 277.792969 C 243.886719 279.210938 240.722656 278.363281 239.308594 275.914062 L 227.507812 255.496094 C 226.089844 253.050781 226.9375 249.890625 229.390625 248.480469 C 231.839844 247.066406 235 247.914062 236.414062 250.359375 L 248.21875 270.78125 C 249.628906 273.226562 248.78125 276.382812 246.335938 277.792969 Z M 246.335938 277.792969 " fill-opacity="1" fill-rule="evenodd"/><path fill="#ffc44f" d="M 284.085938 240.09375 C 282.667969 242.539062 279.507812 243.386719 277.058594 241.976562 L 256.613281 230.1875 C 254.164062 228.769531 253.316406 225.613281 254.730469 223.171875 L 254.730469 223.167969 C 256.144531 220.722656 259.308594 219.878906 261.753906 221.289062 L 282.199219 233.078125 C 284.648438 234.488281 285.496094 237.648438 284.085938 240.09375 Z M 284.085938 240.09375 " fill-opacity="1" fill-rule="evenodd"/><path fill="#ffc44f" d="M 297.902344 188.59375 C 297.902344 191.417969 295.585938 193.730469 292.757812 193.730469 L 269.148438 193.730469 C 266.320312 193.730469 264.007812 191.417969 264.007812 188.59375 C 264.007812 185.769531 266.320312 183.457031 269.148438 183.457031 L 292.757812 183.457031 C 295.585938 183.457031 297.902344 185.769531 297.902344 188.59375 Z M 297.902344 188.59375 " fill-opacity="1" fill-rule="evenodd"/><path fill="#ffc44f" d="M 284.085938 137.09375 C 285.5 139.539062 284.648438 142.699219 282.199219 144.109375 L 261.753906 155.898438 C 259.308594 157.3125 256.148438 156.464844 254.730469 154.019531 C 253.320312 151.570312 254.164062 148.414062 256.613281 147 L 277.058594 135.214844 C 279.507812 133.800781 282.667969 134.648438 284.085938 137.09375 Z M 284.085938 137.09375 " fill-opacity="1" fill-rule="evenodd"/><path fill="#ffc44f" d="M 246.335938 99.390625 C 248.785156 100.808594 249.628906 103.964844 248.21875 106.410156 L 236.414062 126.824219 C 235 129.273438 231.839844 130.121094 229.390625 128.710938 C 226.9375 127.292969 226.089844 124.136719 227.507812 121.691406 L 239.308594 101.273438 C 240.726562 98.828125 243.886719 97.980469 246.335938 99.390625 Z M 246.335938 99.390625 " fill-opacity="1" fill-rule="evenodd"/><g clip-path="url(#586eab9a63)"><path fill="#f0f8ff" d="M 234.921875 320.804688 C 235.109375 320.820312 235.296875 320.828125 235.488281 320.828125 L 356.777344 320.828125 C 356.863281 320.828125 356.945312 320.820312 357.027344 320.820312 C 357.109375 320.820312 357.195312 320.828125 357.285156 320.828125 C 367.019531 320.828125 374.910156 312.945312 374.910156 303.226562 C 374.910156 293.5 367.015625 285.625 357.285156 285.625 C 355.160156 285.625 353.117188 286 351.234375 286.6875 C 349.980469 274.382812 339.574219 264.78125 326.925781 264.78125 C 326.507812 264.78125 326.09375 264.792969 325.683594 264.8125 C 320.78125 253.605469 309.585938 245.773438 296.5625 245.773438 C 281.691406 245.773438 269.207031 255.972656 265.75 269.75 C 263.445312 269.035156 260.992188 268.644531 258.449219 268.644531 C 245.386719 268.644531 234.722656 278.882812 234.050781 291.761719 C 226.089844 291.851562 219.664062 298.324219 219.664062 306.292969 C 219.664062 314.320312 226.179688 320.828125 234.21875 320.828125 C 234.453125 320.828125 234.683594 320.816406 234.921875 320.804688 Z M 234.921875 320.804688 " fill-opacity="1" fill-rule="evenodd"/></g></svg>