<svg xmlns="http://www.w3.org/2000/svg" xmlns:xlink="http://www.w3.org/1999/xlink" width="500" zoomAndPan="magnify" viewBox="0 0 375 374.999991" height="500" preserveAspectRatio="xMidYMid meet" version="1.0"><defs><clipPath id="65229d0b30"><path d="M 117 46.328125 L 375 46.328125 L 375 191 L 117 191 Z M 117 46.328125 " clip-rule="nonzero"/></clipPath><clipPath id="8572fe8b49"><path d="M 0 67 L 326 67 L 326 224.078125 L 0 224.078125 Z M 0 67 " clip-rule="nonzero"/></clipPath><clipPath id="e92602346b"><path d="M 53 206 L 75 206 L 75 224.078125 L 53 224.078125 Z M 53 206 " clip-rule="nonzero"/></clipPath><clipPath id="9834601ab6"><path d="M 93 206 L 115 206 L 115 224.078125 L 93 224.078125 Z M 93 206 " clip-rule="nonzero"/></clipPath><clipPath id="58369d3d47"><path d="M 133 206 L 155 206 L 155 224.078125 L 133 224.078125 Z M 133 206 " clip-rule="nonzero"/></clipPath><clipPath id="aeaaf57cc6"><path d="M 173 206 L 195 206 L 195 224.078125 L 173 224.078125 Z M 173 206 " clip-rule="nonzero"/></clipPath><clipPath id="cd2806ec93"><path d="M 213 206 L 234 206 L 234 224.078125 L 213 224.078125 Z M 213 206 " clip-rule="nonzero"/></clipPath><clipPath id="98f3a7317e"><path d="M 253 206 L 274 206 L 274 224.078125 L 253 224.078125 Z M 253 206 " clip-rule="nonzero"/></clipPath><clipPath id="4f97b09f03"><path d="M 42 173 L 295.800781 173 L 295.800781 225.523438 L 42 225.523438 Z M 42 173 " clip-rule="nonzero"/></clipPath><clipPath id="e16fc6eff0"><path d="M 62.773438 179.324219 C 77.25 178.648438 82.425781 176.699219 92.550781 175.800781 C 119.324219 173.398438 212.324219 172.726562 240 173.625 C 250.875 174 256.800781 175.273438 262.726562 175.425781 C 266.550781 175.5 269.324219 174.976562 272.023438 175.050781 C 274.199219 175.125 275.925781 175.273438 277.726562 175.726562 C 279.601562 176.175781 281.398438 176.925781 283.050781 177.75 C 284.773438 178.648438 286.351562 179.773438 287.773438 181.050781 C 289.199219 182.25 290.476562 183.75 291.601562 185.324219 C 292.648438 186.824219 293.550781 188.625 294.226562 190.351562 C 294.898438 192.148438 295.351562 194.023438 295.574219 195.898438 C 295.800781 197.773438 295.800781 199.726562 295.574219 201.601562 C 295.351562 203.476562 294.898438 205.425781 294.226562 207.148438 C 293.550781 208.949219 292.648438 210.675781 291.601562 212.25 C 290.476562 213.75 289.199219 215.25 287.773438 216.523438 C 286.351562 217.726562 284.773438 218.851562 283.050781 219.75 C 281.398438 220.648438 280.273438 221.175781 277.726562 221.773438 C 272.25 223.050781 259.726562 225.148438 250.574219 224.25 C 240.976562 223.425781 230.023438 215.550781 221.398438 216 C 214.425781 216.375 204.75 225.375 202.648438 223.574219 C 200.925781 222.074219 206.101562 210.976562 205.5 210.75 C 205.050781 210.523438 202.949219 215.398438 201.226562 217.351562 C 199.425781 219.226562 197.324219 220.949219 195 222.226562 C 192.75 223.425781 190.125 224.398438 187.648438 224.851562 C 185.101562 225.300781 182.324219 225.375 179.773438 225 C 177.148438 224.625 174.523438 223.800781 172.273438 222.601562 C 169.949219 221.398438 167.699219 219.824219 165.898438 217.949219 C 164.101562 216.074219 162.449219 213.824219 161.324219 211.5 C 160.199219 209.175781 159.449219 206.550781 159.074219 204 C 158.773438 201.375 158.851562 198.675781 159.375 196.125 C 159.898438 193.574219 160.875 190.949219 162.148438 188.773438 C 163.5 186.523438 165.226562 184.351562 167.175781 182.625 C 169.125 180.976562 171.449219 179.476562 173.851562 178.5 C 176.25 177.449219 178.949219 176.851562 181.5 176.625 C 184.050781 176.476562 186.824219 176.699219 189.375 177.375 C 191.851562 177.976562 194.398438 179.101562 196.574219 180.523438 C 198.675781 181.949219 200.773438 183.824219 202.351562 185.851562 C 203.925781 187.875 205.273438 190.273438 206.175781 192.75 C 207 195.148438 207.523438 197.925781 207.601562 200.476562 C 207.601562 203.101562 207.226562 205.800781 206.398438 208.273438 C 205.648438 210.75 204.375 213.226562 202.875 215.324219 C 201.375 217.351562 199.351562 219.300781 197.25 220.800781 C 195.148438 222.300781 192.675781 223.5 190.199219 224.25 C 187.726562 225 184.949219 225.300781 182.324219 225.226562 C 179.773438 225.148438 177.074219 224.550781 174.675781 223.648438 C 172.199219 222.75 169.800781 221.398438 167.851562 219.75 C 165.824219 218.101562 164.023438 216 162.601562 213.824219 C 161.25 211.648438 160.199219 209.101562 159.601562 206.550781 C 159 204.074219 158.773438 201.300781 159 198.675781 C 159.226562 196.125 159.074219 193.726562 161.023438 191.101562 C 164.699219 186 176.476562 177.898438 186.449219 175.050781 C 198.148438 171.675781 216.300781 174.898438 227.625 175.273438 C 235.648438 175.574219 241.050781 176.550781 248.175781 176.550781 C 255.824219 176.550781 266.851562 174.898438 272.023438 175.050781 C 274.574219 175.125 275.925781 175.273438 277.726562 175.726562 C 279.601562 176.175781 281.398438 176.925781 283.050781 177.75 C 284.773438 178.648438 286.351562 179.773438 287.773438 181.050781 C 289.199219 182.25 290.476562 183.75 291.601562 185.324219 C 292.648438 186.824219 293.550781 188.550781 294.226562 190.351562 C 294.898438 192.148438 295.351562 194.023438 295.574219 195.898438 C 295.800781 197.773438 295.800781 199.726562 295.574219 201.601562 C 295.351562 203.476562 294.898438 205.425781 294.226562 207.148438 C 293.550781 208.949219 292.648438 210.675781 291.601562 212.25 C 290.476562 213.75 289.199219 215.25 287.773438 216.523438 C 286.351562 217.726562 284.773438 218.851562 283.050781 219.75 C 281.398438 220.648438 279.601562 221.324219 277.726562 221.773438 C 275.925781 222.226562 274.648438 222.375 272.023438 222.449219 C 266.398438 222.601562 257.324219 221.023438 245.023438 220.5 C 218.550781 219.375 144.226562 219.898438 119.476562 218.851562 C 109.125 218.398438 105.074219 217.050781 97.425781 217.273438 C 89.175781 217.5 78.976562 220.351562 71.699219 220.648438 C 66.375 220.875 61.199219 220.648438 57.824219 219.898438 C 55.800781 219.449219 54.675781 218.925781 53.175781 218.175781 C 51.75 217.351562 50.324219 216.449219 49.125 215.324219 C 47.851562 214.199219 46.726562 212.925781 45.824219 211.574219 C 44.851562 210.226562 44.101562 208.726562 43.5 207.226562 C 42.898438 205.648438 42.523438 204 42.300781 202.425781 C 42.148438 200.773438 42.148438 199.050781 42.300781 197.398438 C 42.523438 195.824219 42.898438 194.175781 43.5 192.601562 C 44.101562 191.101562 44.851562 189.601562 45.824219 188.25 C 46.726562 186.898438 47.851562 185.625 49.125 184.5 C 50.324219 183.449219 51.75 182.476562 53.175781 181.648438 C 54.675781 180.898438 56.25 180.300781 57.824219 179.925781 C 59.398438 179.550781 62.773438 179.324219 62.773438 179.324219 " clip-rule="nonzero"/></clipPath><clipPath id="7b71131e1e"><path d="M 205.28125 181.671875 L 245.347656 181.671875 L 245.347656 222.636719 L 205.28125 222.636719 Z M 205.28125 181.671875 " clip-rule="nonzero"/></clipPath><clipPath id="3f0ad24c76"><path d="M 245.175781 196.199219 C 245.175781 208.949219 243.675781 212.25 241.726562 214.726562 C 239.851562 217.199219 237 219.375 234.148438 220.648438 C 231.300781 222 227.699219 222.601562 224.625 222.449219 C 221.476562 222.226562 218.023438 221.175781 215.324219 219.523438 C 212.625 217.949219 210.074219 215.398438 208.5 212.699219 C 206.851562 210 205.800781 206.550781 205.574219 203.476562 C 205.425781 200.324219 206.101562 196.800781 207.375 193.875 C 208.648438 191.023438 210.824219 188.175781 213.300781 186.300781 C 215.773438 184.351562 219.074219 182.851562 222.148438 182.324219 C 225.226562 181.726562 228.824219 181.949219 231.824219 182.925781 C 234.824219 183.824219 240.148438 187.875 240.148438 187.875 " clip-rule="nonzero"/></clipPath><clipPath id="a2fbc3fa8b"><path d="M 124.058594 181.070312 L 164 181.070312 L 164 222 L 124.058594 222 Z M 124.058594 181.070312 " clip-rule="nonzero"/></clipPath><clipPath id="cd7afb0d1a"><path d="M 163.875 195.601562 C 163.949219 208.351562 162.449219 211.648438 160.5 214.125 C 158.550781 216.601562 155.773438 218.851562 152.851562 220.125 C 150 221.398438 146.476562 222.074219 143.324219 221.851562 C 140.25 221.699219 136.800781 220.574219 134.101562 219 C 131.398438 217.351562 128.851562 214.800781 127.273438 212.101562 C 125.625 209.398438 124.574219 206.023438 124.351562 202.875 C 124.199219 199.726562 124.800781 196.199219 126.074219 193.351562 C 127.425781 190.5 129.601562 187.648438 132.074219 185.699219 C 134.550781 183.75 137.851562 182.324219 140.925781 181.726562 C 144 181.125 147.601562 181.351562 150.601562 182.324219 C 153.601562 183.226562 158.925781 187.351562 158.925781 187.351562 " clip-rule="nonzero"/></clipPath><clipPath id="43b98762e7"><path d="M 99.109375 209.730469 L 112.464844 209.730469 L 112.464844 223.464844 L 99.109375 223.464844 Z M 99.109375 209.730469 " clip-rule="nonzero"/></clipPath><clipPath id="169d157eb3"><path d="M 112.425781 214.648438 C 112.425781 218.851562 111.898438 219.976562 111.300781 220.800781 C 110.625 221.625 109.726562 222.375 108.75 222.75 C 107.773438 223.199219 106.574219 223.425781 105.601562 223.351562 C 104.550781 223.273438 103.351562 222.976562 102.449219 222.375 C 101.550781 221.851562 100.726562 221.023438 100.199219 220.125 C 99.675781 219.226562 99.300781 218.101562 99.226562 217.050781 C 99.148438 216 99.375 214.800781 99.824219 213.824219 C 100.273438 212.925781 100.949219 211.949219 101.773438 211.273438 C 102.601562 210.675781 103.726562 210.148438 104.773438 210 C 105.75 209.773438 106.949219 209.851562 108 210.148438 C 108.976562 210.523438 110.773438 211.875 110.773438 211.875 " clip-rule="nonzero"/></clipPath><clipPath id="fc07f2b61b"><path d="M 91.082031 209.730469 L 104.363281 209.730469 L 104.363281 223.464844 L 91.082031 223.464844 Z M 91.082031 209.730469 " clip-rule="nonzero"/></clipPath><clipPath id="44fa184207"><path d="M 104.324219 214.648438 C 104.324219 218.851562 103.875 219.976562 103.199219 220.800781 C 102.601562 221.625 101.625 222.375 100.648438 222.75 C 99.75 223.199219 98.550781 223.425781 97.5 223.351562 C 96.449219 223.273438 95.324219 222.976562 94.425781 222.375 C 93.523438 221.851562 92.699219 221.023438 92.101562 220.125 C 91.574219 219.226562 91.199219 218.101562 91.199219 217.050781 C 91.125 216 91.351562 214.800781 91.726562 213.824219 C 92.175781 212.925781 92.925781 211.949219 93.75 211.273438 C 94.574219 210.675781 95.625 210.148438 96.675781 210 C 97.726562 209.773438 98.925781 209.851562 99.898438 210.148438 C 100.875 210.523438 102.675781 211.875 102.675781 211.875 " clip-rule="nonzero"/></clipPath><clipPath id="1e3049e26d"><path d="M 63.410156 209.207031 L 76.761719 209.207031 L 76.761719 222.867188 L 63.410156 222.867188 Z M 63.410156 209.207031 " clip-rule="nonzero"/></clipPath><clipPath id="1f89d04bb7"><path d="M 76.726562 214.050781 C 76.726562 218.324219 76.199219 219.375 75.523438 220.199219 C 74.925781 221.023438 73.949219 221.773438 73.050781 222.226562 C 72.074219 222.601562 70.875 222.824219 69.824219 222.75 C 68.773438 222.75 67.648438 222.375 66.75 221.851562 C 65.851562 221.25 65.023438 220.425781 64.5 219.523438 C 63.898438 218.625 63.601562 217.5 63.523438 216.449219 C 63.449219 215.398438 63.675781 214.199219 64.125 213.300781 C 64.5 212.324219 65.25 211.351562 66.074219 210.75 C 66.898438 210.074219 68.023438 209.625 69 209.398438 C 70.050781 209.25 71.25 209.324219 72.226562 209.625 C 73.273438 209.925781 75 211.273438 75 211.273438 " clip-rule="nonzero"/></clipPath><clipPath id="19e6733658"><path d="M 54.183594 209.207031 L 67.539062 209.207031 L 67.539062 222.867188 L 54.183594 222.867188 Z M 54.183594 209.207031 " clip-rule="nonzero"/></clipPath><clipPath id="09e5e6fa47"><path d="M 67.5 214.050781 C 67.5 218.324219 66.976562 219.375 66.375 220.199219 C 65.699219 221.023438 64.726562 221.773438 63.824219 222.226562 C 62.851562 222.601562 61.648438 222.824219 60.601562 222.75 C 59.550781 222.75 58.425781 222.375 57.523438 221.851562 C 56.625 221.25 55.800781 220.425781 55.273438 219.523438 C 54.675781 218.625 54.375 217.5 54.300781 216.449219 C 54.226562 215.398438 54.449219 214.199219 54.898438 213.300781 C 55.273438 212.324219 56.023438 211.351562 56.851562 210.75 C 57.675781 210.074219 58.800781 209.625 59.851562 209.398438 C 60.824219 209.25 62.023438 209.324219 63.074219 209.625 C 64.050781 209.925781 65.773438 211.273438 65.773438 211.273438 " clip-rule="nonzero"/></clipPath><clipPath id="5e110d18c8"><path d="M 64.007812 209.207031 L 77.289062 209.207031 L 77.289062 222.867188 L 64.007812 222.867188 Z M 64.007812 209.207031 " clip-rule="nonzero"/></clipPath><clipPath id="157310417b"><path d="M 77.25 214.050781 C 77.25 218.324219 76.800781 219.375 76.125 220.199219 C 75.523438 221.023438 74.550781 221.773438 73.574219 222.226562 C 72.675781 222.601562 71.476562 222.824219 70.425781 222.75 C 69.375 222.75 68.25 222.375 67.351562 221.851562 C 66.449219 221.25 65.625 220.425781 65.023438 219.523438 C 64.5 218.625 64.125 217.5 64.050781 216.449219 C 64.050781 215.398438 64.273438 214.199219 64.648438 213.300781 C 65.101562 212.324219 65.851562 211.351562 66.675781 210.75 C 67.5 210.074219 68.550781 209.625 69.601562 209.398438 C 70.648438 209.25 71.851562 209.324219 72.824219 209.625 C 73.800781 209.925781 75.601562 211.273438 75.601562 211.273438 " clip-rule="nonzero"/></clipPath><clipPath id="302afab381"><path d="M 55.308594 209.207031 L 68.664062 209.207031 L 68.664062 222.867188 L 55.308594 222.867188 Z M 55.308594 209.207031 " clip-rule="nonzero"/></clipPath><clipPath id="b813b5a928"><path d="M 68.625 214.050781 C 68.625 218.324219 68.175781 219.375 67.5 220.199219 C 66.824219 221.023438 65.925781 221.773438 64.949219 222.226562 C 63.976562 222.601562 62.851562 222.824219 61.800781 222.75 C 60.75 222.75 59.550781 222.375 58.726562 221.851562 C 57.824219 221.25 56.925781 220.425781 56.398438 219.523438 C 55.875 218.625 55.5 217.5 55.425781 216.449219 C 55.351562 215.398438 55.574219 214.199219 56.023438 213.300781 C 56.476562 212.324219 57.226562 211.351562 58.050781 210.75 C 58.875 210.074219 59.925781 209.625 60.976562 209.398438 C 62.023438 209.25 63.226562 209.324219 64.199219 209.625 C 65.175781 209.925781 66.976562 211.273438 66.976562 211.273438 " clip-rule="nonzero"/></clipPath><clipPath id="41746cc3fb"><path d="M 64.535156 209.730469 L 77.886719 209.730469 L 77.886719 223.464844 L 64.535156 223.464844 Z M 64.535156 209.730469 " clip-rule="nonzero"/></clipPath><clipPath id="162b749145"><path d="M 77.851562 214.648438 C 77.851562 218.851562 77.324219 219.976562 76.726562 220.800781 C 76.050781 221.625 75.148438 222.375 74.175781 222.75 C 73.199219 223.199219 72 223.425781 71.023438 223.351562 C 69.976562 223.273438 68.773438 222.976562 67.875 222.375 C 67.050781 221.851562 66.148438 221.023438 65.625 220.125 C 65.101562 219.226562 64.726562 218.101562 64.648438 217.050781 C 64.574219 216 64.800781 214.800781 65.25 213.824219 C 65.699219 212.925781 66.449219 211.949219 67.273438 211.273438 C 68.023438 210.675781 69.148438 210.148438 70.199219 210 C 71.25 209.773438 72.375 209.851562 73.425781 210.148438 C 74.398438 210.523438 76.199219 211.875 76.199219 211.875 " clip-rule="nonzero"/></clipPath><clipPath id="940484dbb3"><path d="M 53.058594 208.609375 L 66.335938 208.609375 L 66.335938 222.339844 L 53.058594 222.339844 Z M 53.058594 208.609375 " clip-rule="nonzero"/></clipPath><clipPath id="4877c57158"><path d="M 66.300781 213.449219 C 66.300781 217.726562 65.851562 218.773438 65.175781 219.601562 C 64.574219 220.425781 63.601562 221.175781 62.625 221.625 C 61.726562 222.074219 60.523438 222.300781 59.476562 222.226562 C 58.425781 222.148438 57.300781 221.773438 56.398438 221.25 C 55.5 220.726562 54.675781 219.824219 54.074219 219 C 53.550781 218.101562 53.175781 216.898438 53.175781 215.851562 C 53.101562 214.800781 53.324219 213.675781 53.699219 212.699219 C 54.148438 211.726562 54.898438 210.824219 55.726562 210.148438 C 56.550781 209.550781 57.601562 209.023438 58.648438 208.800781 C 59.699219 208.648438 60.898438 208.726562 61.875 209.023438 C 62.851562 209.324219 64.648438 210.675781 64.648438 210.675781 " clip-rule="nonzero"/></clipPath><clipPath id="16893c23fb"><path d="M 53.058594 208.007812 L 66.335938 208.007812 L 66.335938 221.742188 L 53.058594 221.742188 Z M 53.058594 208.007812 " clip-rule="nonzero"/></clipPath><clipPath id="ef45bcb930"><path d="M 66.300781 212.851562 C 66.300781 217.125 65.851562 218.25 65.175781 219.074219 C 64.574219 219.898438 63.601562 220.648438 62.625 221.023438 C 61.726562 221.476562 60.523438 221.699219 59.476562 221.625 C 58.425781 221.550781 57.300781 221.25 56.398438 220.648438 C 55.5 220.125 54.675781 219.300781 54.074219 218.398438 C 53.550781 217.5 53.175781 216.375 53.175781 215.324219 C 53.101562 214.273438 53.324219 213.074219 53.699219 212.101562 C 54.148438 211.199219 54.898438 210.226562 55.726562 209.550781 C 56.550781 208.949219 57.601562 208.425781 58.648438 208.273438 C 59.699219 208.050781 60.898438 208.125 61.875 208.425781 C 62.851562 208.800781 64.648438 210.148438 64.648438 210.148438 " clip-rule="nonzero"/></clipPath><clipPath id="88857e187d"><path d="M 104.882812 209.730469 L 118.238281 209.730469 L 118.238281 223.464844 L 104.882812 223.464844 Z M 104.882812 209.730469 " clip-rule="nonzero"/></clipPath><clipPath id="ee381ea457"><path d="M 118.199219 214.648438 C 118.199219 218.851562 117.675781 219.976562 117.074219 220.800781 C 116.398438 221.625 115.425781 222.375 114.523438 222.75 C 113.550781 223.199219 112.351562 223.425781 111.300781 223.351562 C 110.25 223.273438 109.125 222.976562 108.226562 222.375 C 107.324219 221.851562 106.5 221.023438 105.976562 220.125 C 105.449219 219.226562 105.074219 218.101562 105 217.050781 C 104.925781 216 105.148438 214.800781 105.601562 213.824219 C 105.976562 212.925781 106.726562 211.949219 107.550781 211.273438 C 108.375 210.675781 109.5 210.148438 110.550781 210 C 111.523438 209.773438 112.726562 209.851562 113.773438 210.148438 C 114.75 210.523438 116.476562 211.875 116.476562 211.875 " clip-rule="nonzero"/></clipPath><clipPath id="dd5d00668e"><path d="M 136.609375 209.730469 L 149.886719 209.730469 L 149.886719 223.464844 L 136.609375 223.464844 Z M 136.609375 209.730469 " clip-rule="nonzero"/></clipPath><clipPath id="ff59768c9d"><path d="M 149.851562 214.648438 C 149.851562 218.851562 149.398438 219.976562 148.726562 220.800781 C 148.125 221.625 147.148438 222.375 146.175781 222.75 C 145.273438 223.199219 144.074219 223.425781 143.023438 223.351562 C 141.976562 223.273438 140.851562 222.976562 139.949219 222.375 C 139.050781 221.851562 138.148438 221.023438 137.625 220.125 C 137.101562 219.226562 136.726562 218.101562 136.648438 217.050781 C 136.648438 216 136.875 214.800781 137.25 213.824219 C 137.699219 212.925781 138.449219 211.949219 139.273438 211.273438 C 140.101562 210.675781 141.148438 210.148438 142.199219 210 C 143.25 209.773438 144.449219 209.851562 145.425781 210.148438 C 146.398438 210.523438 148.199219 211.875 148.199219 211.875 " clip-rule="nonzero"/></clipPath><clipPath id="65c8eba6f4"><path d="M 145.835938 210.332031 L 159.113281 210.332031 L 159.113281 224 L 145.835938 224 Z M 145.835938 210.332031 " clip-rule="nonzero"/></clipPath><clipPath id="f0e83fa274"><path d="M 159.074219 215.175781 C 159.074219 219.449219 158.625 220.574219 157.949219 221.398438 C 157.273438 222.148438 156.375 222.898438 155.398438 223.351562 C 154.425781 223.800781 153.300781 224.023438 152.25 223.949219 C 151.199219 223.875 150.074219 223.5 149.175781 222.976562 C 148.273438 222.449219 147.375 221.550781 146.851562 220.726562 C 146.324219 219.824219 145.949219 218.625 145.875 217.574219 C 145.875 216.601562 146.023438 215.398438 146.476562 214.425781 C 146.925781 213.449219 147.675781 212.550781 148.5 211.875 C 149.324219 211.273438 150.375 210.75 151.425781 210.523438 C 152.476562 210.375 153.675781 210.449219 154.648438 210.75 C 155.625 211.050781 157.425781 212.398438 157.425781 212.398438 " clip-rule="nonzero"/></clipPath><clipPath id="e421c28ae6"><path d="M 215 209.730469 L 228.261719 209.730469 L 228.261719 223.464844 L 215 223.464844 Z M 215 209.730469 " clip-rule="nonzero"/></clipPath><clipPath id="860325d7e0"><path d="M 228.226562 214.648438 C 228.226562 218.851562 227.773438 219.976562 227.101562 220.800781 C 226.425781 221.625 225.523438 222.375 224.550781 222.75 C 223.574219 223.199219 222.449219 223.425781 221.398438 223.351562 C 220.351562 223.273438 219.148438 222.976562 218.324219 222.375 C 217.425781 221.851562 216.523438 221.023438 216 220.125 C 215.476562 219.226562 215.101562 218.101562 215.023438 217.050781 C 214.949219 216 215.175781 214.800781 215.625 213.824219 C 216.074219 212.925781 216.824219 211.949219 217.648438 211.273438 C 218.476562 210.675781 219.523438 210.148438 220.574219 210 C 221.625 209.773438 222.824219 209.851562 223.800781 210.148438 C 224.773438 210.523438 226.574219 211.875 226.574219 211.875 " clip-rule="nonzero"/></clipPath><clipPath id="d0aea37fbd"><path d="M 228.785156 209.730469 L 242.0625 209.730469 L 242.0625 223.464844 L 228.785156 223.464844 Z M 228.785156 209.730469 " clip-rule="nonzero"/></clipPath><clipPath id="67d09f952e"><path d="M 242.023438 214.648438 C 242.023438 218.851562 241.574219 219.976562 240.898438 220.800781 C 240.300781 221.625 239.324219 222.375 238.351562 222.75 C 237.449219 223.199219 236.25 223.425781 235.199219 223.351562 C 234.148438 223.273438 233.023438 222.976562 232.125 222.375 C 231.226562 221.851562 230.398438 221.023438 229.800781 220.125 C 229.273438 219.226562 228.898438 218.101562 228.898438 217.050781 C 228.824219 216 229.050781 214.800781 229.425781 213.824219 C 229.875 212.925781 230.625 211.949219 231.449219 211.273438 C 232.273438 210.675781 233.398438 210.148438 234.375 210 C 235.425781 209.773438 236.625 209.851562 237.601562 210.148438 C 238.648438 210.523438 240.375 211.875 240.375 211.875 " clip-rule="nonzero"/></clipPath><clipPath id="6bfa71c0e6"><path d="M 246 303.882812 L 246.546875 303.882812 L 246.546875 304.367188 L 246 304.367188 Z M 246 303.882812 " clip-rule="nonzero"/></clipPath><clipPath id="be0d30ffcb"><path d="M 246.523438 304.050781 C 245.773438 304.351562 246.375 303.898438 246.375 303.898438 " clip-rule="nonzero"/></clipPath><clipPath id="96825b93bf"><path d="M 365.066406 64.476562 L 375 64.476562 L 375 89.226562 L 365.066406 89.226562 Z M 365.066406 64.476562 " clip-rule="nonzero"/></clipPath><clipPath id="386888bb8a"><path d="M 365.101562 88.949219 C 366.449219 82.273438 370.273438 76.273438 371.476562 72.675781 C 372.375 69.976562 371.925781 66.824219 372.976562 65.625 C 373.574219 64.800781 375.449219 64.5 375.523438 64.574219 C 375.601562 64.648438 374.101562 65.175781 373.5 66.074219 C 372.375 67.800781 372.300781 72.523438 371.101562 75.675781 C 369.898438 78.976562 366.976562 82.949219 366.148438 85.425781 C 365.699219 86.925781 366.074219 88.800781 365.699219 89.101562 C 365.550781 89.175781 365.101562 88.949219 365.101562 88.949219 " clip-rule="nonzero"/></clipPath><clipPath id="8595a4df21"><path d="M 103.320312 220.496094 L 115.902344 220.496094 L 115.902344 223.304688 L 103.320312 223.304688 Z M 103.320312 220.496094 " clip-rule="nonzero"/></clipPath><clipPath id="6a81e349e1"><path d="M 115.199219 222.675781 C 103.726562 223.050781 103.425781 222.675781 103.351562 222.375 C 103.351562 222.148438 103.726562 221.699219 104.023438 221.625 C 104.324219 221.625 105 222.074219 105 222.300781 C 105 222.601562 104.324219 223.273438 104.023438 223.199219 C 103.800781 223.199219 103.351562 222.75 103.351562 222.449219 C 103.425781 222.226562 103.726562 221.851562 104.175781 221.625 C 105.675781 220.949219 113.699219 220.5 115.125 221.101562 C 115.574219 221.25 115.875 221.550781 115.875 221.851562 C 115.875 222.074219 115.199219 222.675781 115.199219 222.675781 " clip-rule="nonzero"/></clipPath><clipPath id="73d681e4be"><path d="M 96 220.273438 L 118.382812 220.273438 L 118.382812 224 L 96 224 Z M 96 220.273438 " clip-rule="nonzero"/></clipPath><clipPath id="73f3e9e8f0"><path d="M 102.824219 220.800781 C 116.925781 220.800781 117.300781 220.949219 117.675781 221.324219 C 118.050781 221.699219 118.351562 222.601562 118.199219 222.976562 C 118.125 223.273438 117.824219 223.425781 117.300781 223.574219 C 116.023438 224.023438 112.273438 223.726562 109.273438 223.648438 C 105.523438 223.574219 98.175781 223.800781 96.601562 223.050781 C 96.226562 222.898438 96 222.601562 96 222.375 C 96 222.074219 96.148438 221.699219 96.601562 221.398438 C 98.324219 220.5 109.574219 220.273438 111.449219 221.023438 C 111.976562 221.25 112.273438 221.625 112.273438 221.925781 C 112.273438 222.226562 111.601562 222.75 111.375 222.675781 C 111.074219 222.675781 110.699219 221.398438 110.851562 221.25 C 111 221.101562 112.199219 221.550781 112.273438 221.851562 C 112.351562 222.074219 111.976562 222.449219 111.449219 222.75 C 109.574219 223.5 98.699219 223.875 96.824219 223.125 C 96.300781 222.824219 96 222.449219 96 222.148438 C 96 221.851562 96.300781 221.625 96.824219 221.398438 C 99.074219 220.574219 116.476562 220.949219 117.074219 222.074219 C 117.226562 222.226562 117.074219 222.601562 116.699219 222.824219 C 115.351562 223.574219 104.550781 223.050781 102.824219 222.226562 C 102.375 222 102.074219 221.699219 102.074219 221.398438 C 102.074219 221.175781 102.824219 220.800781 102.824219 220.800781 " clip-rule="nonzero"/></clipPath><clipPath id="3b2e8ff814"><path d="M 53.015625 221.621094 L 83.941406 221.621094 L 83.941406 224.484375 L 53.015625 224.484375 Z M 53.015625 221.621094 " clip-rule="nonzero"/></clipPath><clipPath id="4d1a6dd6dc"><path d="M 83.101562 223.726562 C 53.25 224.25 53.023438 223.949219 53.023438 223.726562 C 53.023438 223.425781 53.625 222.976562 53.851562 222.976562 C 54.148438 222.976562 54.601562 223.574219 54.523438 223.875 C 54.523438 224.101562 53.925781 224.476562 53.625 224.476562 C 53.398438 224.476562 53.023438 224.023438 53.023438 223.800781 C 53.023438 223.5 53.324219 223.199219 53.773438 222.976562 C 55.875 222 67.800781 222.300781 73.199219 222.148438 C 77.101562 222.148438 82.050781 221.625 83.324219 222.226562 C 83.699219 222.449219 83.925781 222.824219 83.851562 223.050781 C 83.851562 223.351562 83.101562 223.726562 83.101562 223.726562 " clip-rule="nonzero"/></clipPath><clipPath id="a726d813ae"><path d="M 56.753906 219.054688 L 71.488281 219.054688 L 71.488281 223 L 56.753906 223 Z M 56.753906 219.054688 " clip-rule="nonzero"/></clipPath><clipPath id="8f311c7937"><path d="M 70.949219 221.101562 C 57 222.824219 56.773438 221.851562 56.925781 221.699219 C 57.074219 221.550781 58.351562 221.925781 58.351562 222.074219 C 58.425781 222.300781 57.300781 223.050781 57.148438 222.976562 C 56.925781 222.824219 56.851562 221.851562 57.300781 221.476562 C 58.5 220.199219 69.074219 219.074219 70.726562 219.601562 C 71.175781 219.75 71.398438 220.125 71.398438 220.351562 C 71.476562 220.574219 70.949219 221.101562 70.949219 221.101562 " clip-rule="nonzero"/></clipPath><clipPath id="3bb8f76a00"><path d="M 64.339844 220.179688 L 68.277344 220.179688 L 68.277344 222.101562 L 64.339844 222.101562 Z M 64.339844 220.179688 " clip-rule="nonzero"/></clipPath><clipPath id="ab318ac3f4"><path d="M 67.5 222.074219 C 64.351562 221.625 64.875 220.574219 65.023438 220.574219 C 65.25 220.574219 65.773438 221.476562 65.625 221.699219 C 65.550781 221.925781 64.726562 222.074219 64.574219 222 C 64.425781 221.773438 64.648438 220.800781 64.949219 220.574219 C 65.476562 220.199219 67.351562 220.273438 67.875 220.648438 C 68.101562 220.875 68.25 221.324219 68.175781 221.550781 C 68.101562 221.773438 67.5 222.074219 67.5 222.074219 " clip-rule="nonzero"/></clipPath><clipPath id="dc25a73927"><path d="M 105.964844 222 L 113.863281 222 L 113.863281 224 L 105.964844 224 Z M 105.964844 222 " clip-rule="nonzero"/></clipPath><clipPath id="517a95d24c"><path d="M 113.023438 223.949219 C 106.199219 223.726562 105.976562 223.351562 105.976562 223.125 C 106.050781 222.898438 106.648438 222.375 106.875 222.375 C 107.175781 222.449219 107.625 223.050781 107.550781 223.273438 C 107.550781 223.574219 106.875 224.023438 106.648438 223.949219 C 106.351562 223.949219 105.976562 223.5 105.976562 223.199219 C 105.976562 222.976562 106.351562 222.601562 106.800781 222.375 C 107.851562 221.925781 112.273438 221.925781 113.25 222.449219 C 113.625 222.601562 113.851562 223.050781 113.851562 223.273438 C 113.773438 223.5 113.023438 223.949219 113.023438 223.949219 " clip-rule="nonzero"/></clipPath><clipPath id="a6ffde15e8"><path d="M 94.046875 223.101562 L 114 223.101562 L 114 225.773438 L 94.046875 225.773438 Z M 94.046875 223.101562 " clip-rule="nonzero"/></clipPath><clipPath id="c1131379e3"><path d="M 113.25 225.074219 C 94.199219 225.449219 94.050781 225.074219 94.050781 224.773438 C 94.050781 224.550781 94.425781 224.101562 94.726562 224.023438 C 95.023438 224.023438 95.699219 224.476562 95.699219 224.699219 C 95.773438 225 95.25 225.675781 94.949219 225.675781 C 94.726562 225.75 94.125 225.148438 94.050781 224.925781 C 94.050781 224.625 94.199219 224.324219 94.648438 224.023438 C 96.148438 223.199219 104.925781 223.5 108.375 223.425781 C 110.476562 223.425781 112.574219 223.125 113.398438 223.574219 C 113.773438 223.726562 114 224.101562 114 224.398438 C 114 224.625 113.25 225.074219 113.25 225.074219 " clip-rule="nonzero"/></clipPath><clipPath id="c22b679215"><path d="M 133.78125 217 L 164.722656 217 L 164.722656 224.800781 L 133.78125 224.800781 Z M 133.78125 217 " clip-rule="nonzero"/></clipPath><clipPath id="fdc3769e13"><path d="M 154.5 223.800781 C 134.773438 224.773438 134.101562 224.699219 133.949219 224.25 C 133.800781 223.875 134.175781 222.976562 134.773438 222.523438 C 135.824219 221.699219 139.726562 220.949219 141 221.023438 C 141.523438 221.023438 142.050781 221.175781 142.125 221.476562 C 142.273438 221.851562 141.75 222.75 141.226562 223.050781 C 140.550781 223.5 138.675781 223.5 138.226562 223.125 C 137.925781 222.824219 137.773438 222.148438 138.074219 221.699219 C 138.675781 220.875 141.675781 220.5 144.375 219.976562 C 149.175781 219 162.824219 216.375 164.324219 217.574219 C 164.625 217.800781 164.550781 218.699219 164.398438 218.773438 C 164.324219 218.851562 163.726562 218.476562 163.726562 218.25 C 163.648438 218.023438 164.101562 217.5 164.25 217.574219 C 164.398438 217.574219 164.699219 218.398438 164.476562 218.699219 C 163.726562 219.824219 155.476562 219.148438 151.125 219.898438 C 146.851562 220.648438 140.25 223.800781 138.675781 223.199219 C 138.074219 222.976562 137.773438 222.375 137.851562 222.074219 C 137.925781 221.773438 138.675781 221.476562 139.125 221.398438 C 139.648438 221.324219 140.699219 221.476562 140.851562 221.773438 C 141 222 140.851562 222.449219 140.550781 222.75 C 139.875 223.425781 135.675781 224.550781 135.300781 224.175781 C 135.074219 224.023438 135.148438 223.5 135.375 223.273438 C 136.5 222.300781 145.5 222.148438 149.101562 222.074219 C 151.351562 222 153.824219 221.773438 154.726562 222.226562 C 155.101562 222.449219 155.324219 222.824219 155.25 223.050781 C 155.25 223.351562 154.5 223.800781 154.5 223.800781 " clip-rule="nonzero"/></clipPath><clipPath id="7e12a90098"><path d="M 192.421875 224 L 193.902344 224 L 193.902344 225.476562 L 192.421875 225.476562 Z M 192.421875 224 " clip-rule="nonzero"/></clipPath><clipPath id="8dbd95bf8e"><path d="M 193.875 224.476562 C 193.273438 225.449219 192.675781 225.300781 192.523438 225.074219 C 192.449219 224.851562 192.523438 224.25 192.75 224.101562 C 192.898438 223.949219 193.726562 224.101562 193.726562 224.101562 " clip-rule="nonzero"/></clipPath><clipPath id="ad445cacd7"><path d="M 191 222.816406 L 192.476562 222.816406 L 192.476562 224.351562 L 191 224.351562 Z M 191 222.816406 " clip-rule="nonzero"/></clipPath><clipPath id="f9149fd1a2"><path d="M 192.449219 223.351562 C 191.773438 224.324219 191.175781 224.175781 191.101562 223.949219 C 190.949219 223.726562 191.023438 223.125 191.25 222.976562 C 191.476562 222.824219 192.226562 223.050781 192.226562 223.050781 " clip-rule="nonzero"/></clipPath><clipPath id="0d9de50406"><path d="M 205.046875 220.722656 L 233.113281 220.722656 L 233.113281 224 L 205.046875 224 Z M 205.046875 220.722656 " clip-rule="nonzero"/></clipPath><clipPath id="878092ec62"><path d="M 205.875 220.726562 C 213.898438 221.851562 225.75 221.324219 229.5 221.550781 C 231 221.699219 232.425781 221.550781 232.726562 222 C 232.875 222.300781 232.574219 223.273438 232.351562 223.273438 C 232.199219 223.351562 231.675781 222.824219 231.675781 222.601562 C 231.675781 222.375 232.199219 221.925781 232.425781 221.925781 C 232.648438 221.925781 233.023438 222.226562 233.023438 222.449219 C 233.101562 222.75 232.875 223.050781 232.425781 223.273438 C 230.398438 224.324219 215.023438 223.425781 210.300781 223.050781 C 208.125 222.824219 206.175781 222.675781 205.5 222.148438 C 205.199219 222 205.050781 221.625 205.050781 221.398438 C 205.125 221.175781 205.875 220.726562 205.875 220.726562 " clip-rule="nonzero"/></clipPath><clipPath id="640837a469"><path d="M 211.636719 221 L 276.484375 221 L 276.484375 227 L 211.636719 227 Z M 211.636719 221 " clip-rule="nonzero"/></clipPath><clipPath id="faf4102faf"><path d="M 275.25 224.476562 C 264.976562 224.773438 264.824219 224.476562 264.75 224.175781 C 264.75 223.875 265.050781 223.273438 265.5 222.898438 C 266.25 222.375 267.976562 222.226562 269.398438 222.074219 C 271.273438 221.851562 274.800781 221.476562 275.773438 222 C 276.226562 222.226562 276.449219 222.601562 276.449219 222.898438 C 276.375 223.199219 276.148438 223.425781 275.625 223.648438 C 273.675781 224.398438 264.675781 223.800781 259.800781 224.324219 C 255.449219 224.699219 251.773438 225.675781 247.574219 226.050781 C 243.148438 226.425781 235.800781 227.175781 233.925781 226.273438 C 233.25 225.976562 233.398438 225.300781 232.800781 225 C 232.050781 224.625 231 224.851562 229.5 224.851562 C 226.125 224.851562 215.550781 226.5 213.148438 225.675781 C 212.324219 225.375 211.800781 225 211.726562 224.476562 C 211.648438 224.023438 212.023438 223.199219 212.773438 222.75 C 215.324219 221.398438 232.273438 222.074219 233.101562 223.425781 C 233.324219 223.800781 232.875 224.699219 232.574219 224.773438 C 232.351562 224.773438 231.601562 223.726562 231.675781 223.5 C 231.75 223.273438 232.949219 223.199219 233.101562 223.351562 C 233.25 223.574219 233.023438 224.398438 232.425781 224.773438 C 230.476562 225.976562 213.976562 224.625 213.976562 224.398438 C 213.976562 224.101562 230.773438 222.601562 233.175781 223.199219 C 233.773438 223.351562 234.074219 223.574219 234.148438 223.875 C 234.300781 224.175781 233.699219 224.699219 233.925781 224.925781 C 234.375 225.523438 237 225.074219 239.851562 225 C 246.75 224.773438 272.476562 220.949219 275.625 222 C 276.148438 222.148438 276.375 222.449219 276.449219 222.675781 C 276.449219 222.976562 276.226562 223.351562 275.773438 223.648438 C 274.574219 224.324219 267.226562 224.851562 266.398438 224.25 C 266.175781 224.101562 266.101562 223.726562 266.25 223.5 C 266.773438 222.824219 274.050781 222.449219 275.324219 222.976562 C 275.699219 223.199219 275.925781 223.5 275.925781 223.726562 C 275.925781 223.949219 275.25 224.476562 275.25 224.476562 " clip-rule="nonzero"/></clipPath><clipPath id="8db52fa05f"><path d="M 190.476562 222.894531 L 195.074219 222.894531 L 195.074219 224.652344 L 190.476562 224.652344 Z M 190.476562 222.894531 " clip-rule="nonzero"/></clipPath><clipPath id="8b3c2bf049"><path d="M 194.324219 224.625 C 190.726562 224.398438 190.5 223.875 190.574219 223.648438 C 190.648438 223.425781 191.175781 223.125 191.324219 223.199219 C 191.550781 223.273438 191.925781 224.324219 191.773438 224.476562 C 191.625 224.550781 190.648438 224.175781 190.574219 223.949219 C 190.5 223.800781 190.726562 223.425781 191.023438 223.273438 C 191.625 222.898438 193.648438 222.898438 194.324219 223.199219 C 194.699219 223.351562 195.074219 223.726562 195 224.023438 C 195 224.25 194.324219 224.625 194.324219 224.625 " clip-rule="nonzero"/></clipPath><clipPath id="bd9f555d8a"><path d="M 144 223.554688 L 153.695312 223.554688 L 153.695312 225.628906 L 144 225.628906 Z M 144 223.554688 " clip-rule="nonzero"/></clipPath><clipPath id="b572d1c3c1"><path d="M 152.851562 225.601562 C 144.074219 225.300781 144 224.476562 144.148438 224.324219 C 144.300781 224.175781 145.425781 224.550781 145.5 224.699219 C 145.5 224.925781 144.523438 225.601562 144.300781 225.523438 C 144.148438 225.375 144.148438 224.398438 144.449219 224.101562 C 145.125 223.574219 147.675781 224.023438 149.175781 224.101562 C 150.523438 224.101562 152.550781 223.800781 153.226562 224.175781 C 153.449219 224.324219 153.675781 224.699219 153.601562 224.925781 C 153.523438 225.226562 152.851562 225.601562 152.851562 225.601562 " clip-rule="nonzero"/></clipPath><clipPath id="74f38a2945"><path d="M 59.3125 221.464844 L 68.570312 221.464844 L 68.570312 223.601562 L 59.3125 223.601562 Z M 59.3125 221.464844 " clip-rule="nonzero"/></clipPath><clipPath id="f89278c738"><path d="M 60.074219 221.476562 C 68.398438 221.773438 68.550781 222.300781 68.476562 222.523438 C 68.398438 222.75 67.949219 223.050781 67.726562 222.976562 C 67.5 222.976562 67.050781 222.375 67.050781 222.148438 C 67.125 221.851562 67.726562 221.476562 67.949219 221.550781 C 68.175781 221.550781 68.550781 222 68.550781 222.226562 C 68.550781 222.449219 68.25 222.824219 67.800781 222.976562 C 66.601562 223.5 60.976562 223.574219 59.851562 222.976562 C 59.476562 222.75 59.324219 222.375 59.324219 222.148438 C 59.324219 221.925781 60.074219 221.476562 60.074219 221.476562 " clip-rule="nonzero"/></clipPath><clipPath id="1d191eb04c"><path d="M 128.152344 219.125 L 143.785156 219.125 L 143.785156 223 L 128.152344 223 Z M 128.152344 219.125 " clip-rule="nonzero"/></clipPath><clipPath id="e2b96d968a"><path d="M 143.023438 222.824219 C 133.351562 222.226562 133.5 221.550781 133.800781 221.25 C 134.175781 220.800781 135.226562 220.875 136.273438 220.800781 C 137.773438 220.648438 141 220.273438 142.050781 220.574219 C 142.574219 220.726562 142.949219 220.875 143.023438 221.175781 C 143.101562 221.398438 142.949219 221.925781 142.574219 222.148438 C 141.601562 222.675781 136.199219 222.226562 135.75 221.476562 C 135.523438 221.175781 135.75 220.5 136.125 220.199219 C 136.800781 219.675781 139.800781 219.824219 140.550781 220.199219 C 140.925781 220.425781 141.148438 220.800781 141.074219 221.023438 C 141.074219 221.25 140.851562 221.550781 140.398438 221.699219 C 138.898438 222.226562 130.273438 221.699219 128.851562 221.023438 C 128.398438 220.875 128.175781 220.574219 128.175781 220.351562 C 128.25 220.125 128.699219 219.75 128.925781 219.75 C 129.148438 219.824219 129.523438 220.273438 129.449219 220.5 C 129.449219 220.726562 128.925781 221.023438 128.699219 221.023438 C 128.476562 221.023438 128.175781 220.648438 128.175781 220.425781 C 128.175781 220.199219 128.476562 219.898438 128.851562 219.75 C 130.351562 219.148438 139.574219 219.148438 140.550781 220.199219 C 140.925781 220.574219 140.851562 221.324219 140.550781 221.625 C 140.023438 222.226562 136.125 222.074219 135.75 221.476562 C 135.523438 221.175781 135.75 220.5 136.125 220.199219 C 136.949219 219.601562 141.300781 220.273438 142.351562 220.726562 C 142.800781 220.875 143.101562 221.101562 143.101562 221.324219 C 143.101562 221.550781 142.949219 221.925781 142.574219 222.148438 C 141.375 222.75 134.25 223.351562 133.574219 222.523438 C 133.351562 222.226562 133.5 221.476562 133.949219 221.175781 C 135 220.351562 141.675781 220.726562 143.023438 221.324219 C 143.476562 221.550781 143.773438 221.925781 143.699219 222.148438 C 143.699219 222.375 143.023438 222.824219 143.023438 222.824219 " clip-rule="nonzero"/></clipPath><clipPath id="d2f9e54e68"><path d="M 49.484375 221 L 104.710938 221 L 104.710938 227 L 49.484375 227 Z M 49.484375 221 " clip-rule="nonzero"/></clipPath><clipPath id="6c74bafd9b"><path d="M 50.476562 222.976562 C 62.101562 225.449219 68.773438 224.398438 70.050781 225.074219 C 70.5 225.300781 70.648438 225.601562 70.648438 225.898438 C 70.574219 226.125 70.351562 226.351562 69.898438 226.5 C 68.324219 227.101562 58.648438 226.5 56.851562 226.050781 C 56.324219 225.898438 56.023438 225.824219 55.875 225.601562 C 55.726562 225.300781 55.800781 224.550781 56.101562 224.25 C 56.476562 223.875 57.148438 223.875 58.050781 223.726562 C 60.449219 223.425781 67.574219 223.425781 70.425781 223.726562 C 72 223.875 72.300781 224.324219 74.023438 224.476562 C 78.226562 224.851562 90.300781 224.101562 95.699219 223.574219 C 99 223.273438 102.148438 222 103.5 222.375 C 104.175781 222.523438 104.699219 222.976562 104.699219 223.273438 C 104.699219 223.5 104.398438 223.800781 103.875 224.023438 C 100.875 225.148438 72.226562 225.449219 70.050781 223.800781 C 69.675781 223.574219 69.675781 222.898438 69.75 222.824219 C 69.976562 222.675781 70.648438 223.351562 71.476562 223.5 C 73.574219 223.800781 81.375 222.148438 82.726562 222.898438 C 83.175781 223.199219 83.324219 223.726562 83.25 224.023438 C 83.175781 224.25 82.648438 224.625 82.425781 224.550781 C 82.125 224.550781 81.601562 223.574219 81.675781 223.351562 C 81.824219 223.125 82.949219 222.976562 83.101562 223.199219 C 83.25 223.351562 83.023438 224.25 82.5 224.550781 C 81.148438 225.523438 74.476562 225.449219 72 225.148438 C 70.574219 225 69.300781 224.699219 68.773438 224.175781 C 68.476562 223.875 68.25 223.351562 68.398438 223.050781 C 68.550781 222.675781 69.074219 222.375 70.050781 222.148438 C 74.175781 221.175781 102.523438 220.5 104.25 222.449219 C 104.625 222.898438 104.476562 223.574219 104.101562 223.949219 C 102.675781 225.300781 93.226562 225.074219 87.976562 225.375 C 83.101562 225.675781 78.75 225.898438 73.800781 225.898438 C 68.476562 225.898438 57.898438 226.425781 57.148438 225.375 C 57 225.074219 57.148438 224.625 57.523438 224.398438 C 58.648438 223.648438 67.050781 224.476562 69.074219 224.851562 C 69.75 225 70.351562 225.074219 70.5 225.375 C 70.574219 225.675781 70.425781 226.199219 69.898438 226.5 C 68.324219 227.398438 59.625 226.648438 56.023438 225.976562 C 53.550781 225.601562 50.699219 224.851562 49.875 224.175781 C 49.648438 223.875 49.5 223.5 49.574219 223.351562 C 49.648438 223.125 50.476562 222.976562 50.476562 222.976562 " clip-rule="nonzero"/></clipPath></defs><g clip-path="url(#65229d0b30)"><path fill="#a1c6e6" d="M 351.328125 189.957031 C 349.578125 190.464844 347.722656 190.738281 345.808594 190.738281 L 155.558594 190.738281 C 155.390625 190.738281 155.214844 190.734375 155.039062 190.730469 C 154.859375 190.734375 154.683594 190.738281 154.503906 190.738281 C 134.089844 190.738281 117.546875 174.210938 117.546875 153.824219 C 117.546875 133.433594 134.089844 116.910156 154.503906 116.910156 C 158.960938 116.910156 163.234375 117.703125 167.191406 119.148438 C 169.816406 93.34375 191.636719 73.210938 218.164062 73.210938 C 221.421875 73.210938 224.605469 73.511719 227.691406 74.09375 C 239.785156 57.277344 259.527344 46.324219 281.835938 46.324219 C 318.625 46.324219 348.449219 76.113281 348.449219 112.855469 C 348.449219 118.722656 347.6875 124.417969 346.257812 129.835938 C 362.269531 130.777344 374.960938 144.035156 374.960938 160.261719 C 374.960938 174.726562 364.867188 186.839844 351.328125 189.957031 Z M 351.328125 189.957031 " fill-opacity="1" fill-rule="evenodd"/></g><g clip-path="url(#8572fe8b49)"><path fill="#c6e0f7" d="M 293.589844 224.523438 C 293.195312 224.546875 292.800781 224.558594 292.402344 224.558594 L 38.058594 224.558594 C 37.886719 224.558594 37.710938 224.558594 37.542969 224.554688 C 37.359375 224.554688 37.179688 224.558594 37 224.558594 C 16.585938 224.558594 0.0429688 208.035156 0.0429688 187.644531 C 0.0429688 167.261719 16.585938 150.730469 37 150.730469 C 41.460938 150.730469 45.734375 151.523438 49.691406 152.96875 C 52.320312 127.164062 74.136719 107.03125 100.664062 107.03125 C 101.535156 107.03125 102.402344 107.054688 103.265625 107.097656 C 113.542969 83.59375 137.019531 67.164062 164.335938 67.164062 C 195.515625 67.164062 221.691406 88.558594 228.949219 117.453125 C 233.78125 115.945312 238.917969 115.132812 244.25 115.132812 C 271.644531 115.132812 294.015625 136.601562 295.421875 163.605469 C 312.109375 163.792969 325.585938 177.363281 325.585938 194.082031 C 325.585938 210.910156 311.925781 224.558594 295.070312 224.558594 C 294.574219 224.558594 294.082031 224.546875 293.589844 224.523438 Z M 293.589844 224.523438 " fill-opacity="1" fill-rule="evenodd"/></g><g clip-path="url(#e92602346b)"><path fill="#78b1e3" d="M 72.886719 206.800781 C 72.886719 206.800781 81.136719 246.71875 60.546875 238.804688 C 39.960938 230.886719 72.886719 206.800781 72.886719 206.800781 Z M 72.886719 206.800781 " fill-opacity="1" fill-rule="evenodd"/></g><g clip-path="url(#9834601ab6)"><path fill="#78b1e3" d="M 112.746094 206.800781 C 112.746094 206.800781 120.992188 246.71875 100.410156 238.804688 C 79.820312 230.886719 112.746094 206.800781 112.746094 206.800781 Z M 112.746094 206.800781 " fill-opacity="1" fill-rule="evenodd"/></g><g clip-path="url(#58369d3d47)"><path fill="#78b1e3" d="M 152.609375 206.800781 C 152.609375 206.800781 160.855469 246.71875 140.269531 238.804688 C 119.683594 230.886719 152.609375 206.800781 152.609375 206.800781 Z M 152.609375 206.800781 " fill-opacity="1" fill-rule="evenodd"/></g><g clip-path="url(#aeaaf57cc6)"><path fill="#78b1e3" d="M 192.46875 206.800781 C 192.46875 206.800781 200.714844 246.71875 180.132812 238.804688 C 159.542969 230.886719 192.46875 206.800781 192.46875 206.800781 Z M 192.46875 206.800781 " fill-opacity="1" fill-rule="evenodd"/></g><g clip-path="url(#cd2806ec93)"><path fill="#78b1e3" d="M 232.328125 206.800781 C 232.328125 206.800781 240.578125 246.71875 219.988281 238.804688 C 199.40625 230.886719 232.328125 206.800781 232.328125 206.800781 Z M 232.328125 206.800781 " fill-opacity="1" fill-rule="evenodd"/></g><g clip-path="url(#98f3a7317e)"><path fill="#78b1e3" d="M 272.1875 206.800781 C 272.1875 206.800781 280.4375 246.71875 259.851562 238.804688 C 239.265625 230.886719 272.1875 206.800781 272.1875 206.800781 Z M 272.1875 206.800781 " fill-opacity="1" fill-rule="evenodd"/></g><g clip-path="url(#4f97b09f03)"><g clip-path="url(#e16fc6eff0)"><path fill="#c6e0f7" d="M 39.300781 170.625 L 298.5 170.625 L 298.5 228.226562 L 39.300781 228.226562 Z M 39.300781 170.625 " fill-opacity="1" fill-rule="nonzero"/></g></g><g clip-path="url(#7b71131e1e)"><g clip-path="url(#3f0ad24c76)"><path fill="#c6e0f7" d="M 202.574219 179.324219 L 248.773438 179.324219 L 248.773438 225.523438 L 202.574219 225.523438 Z M 202.574219 179.324219 " fill-opacity="1" fill-rule="nonzero"/></g></g><g clip-path="url(#a2fbc3fa8b)"><g clip-path="url(#cd7afb0d1a)"><path fill="#c6e0f7" d="M 121.351562 178.726562 L 167.550781 178.726562 L 167.550781 224.925781 L 121.351562 224.925781 Z M 121.351562 178.726562 " fill-opacity="1" fill-rule="nonzero"/></g></g><g clip-path="url(#43b98762e7)"><g clip-path="url(#169d157eb3)"><path fill="#c6e0f7" d="M 96.226562 207 L 115.648438 207 L 115.648438 226.425781 L 96.226562 226.425781 Z M 96.226562 207 " fill-opacity="1" fill-rule="nonzero"/></g></g><g clip-path="url(#fc07f2b61b)"><g clip-path="url(#44fa184207)"><path fill="#c6e0f7" d="M 88.199219 207 L 107.625 207 L 107.625 226.425781 L 88.199219 226.425781 Z M 88.199219 207 " fill-opacity="1" fill-rule="nonzero"/></g></g><g clip-path="url(#1e3049e26d)"><g clip-path="url(#1f89d04bb7)"><path fill="#c6e0f7" d="M 60.523438 206.398438 L 79.949219 206.398438 L 79.949219 225.824219 L 60.523438 225.824219 Z M 60.523438 206.398438 " fill-opacity="1" fill-rule="nonzero"/></g></g><g clip-path="url(#19e6733658)"><g clip-path="url(#09e5e6fa47)"><path fill="#c6e0f7" d="M 51.300781 206.398438 L 70.726562 206.398438 L 70.726562 225.824219 L 51.300781 225.824219 Z M 51.300781 206.398438 " fill-opacity="1" fill-rule="nonzero"/></g></g><g clip-path="url(#5e110d18c8)"><g clip-path="url(#157310417b)"><path fill="#c6e0f7" d="M 61.050781 206.398438 L 80.476562 206.398438 L 80.476562 225.824219 L 61.050781 225.824219 Z M 61.050781 206.398438 " fill-opacity="1" fill-rule="nonzero"/></g></g><g clip-path="url(#302afab381)"><g clip-path="url(#b813b5a928)"><path fill="#c6e0f7" d="M 52.425781 206.398438 L 71.851562 206.398438 L 71.851562 225.824219 L 52.425781 225.824219 Z M 52.425781 206.398438 " fill-opacity="1" fill-rule="nonzero"/></g></g><g clip-path="url(#41746cc3fb)"><g clip-path="url(#162b749145)"><path fill="#c6e0f7" d="M 61.648438 207 L 81.074219 207 L 81.074219 226.425781 L 61.648438 226.425781 Z M 61.648438 207 " fill-opacity="1" fill-rule="nonzero"/></g></g><g clip-path="url(#940484dbb3)"><g clip-path="url(#4877c57158)"><path fill="#c6e0f7" d="M 50.175781 205.800781 L 69.601562 205.800781 L 69.601562 225.226562 L 50.175781 225.226562 Z M 50.175781 205.800781 " fill-opacity="1" fill-rule="nonzero"/></g></g><g clip-path="url(#16893c23fb)"><g clip-path="url(#ef45bcb930)"><path fill="#c6e0f7" d="M 50.175781 205.273438 L 69.601562 205.273438 L 69.601562 224.699219 L 50.175781 224.699219 Z M 50.175781 205.273438 " fill-opacity="1" fill-rule="nonzero"/></g></g><g clip-path="url(#88857e187d)"><g clip-path="url(#ee381ea457)"><path fill="#c6e0f7" d="M 102 207 L 121.425781 207 L 121.425781 226.425781 L 102 226.425781 Z M 102 207 " fill-opacity="1" fill-rule="nonzero"/></g></g><g clip-path="url(#dd5d00668e)"><g clip-path="url(#ff59768c9d)"><path fill="#c6e0f7" d="M 133.648438 207 L 153.074219 207 L 153.074219 226.425781 L 133.648438 226.425781 Z M 133.648438 207 " fill-opacity="1" fill-rule="nonzero"/></g></g><g clip-path="url(#65c8eba6f4)"><g clip-path="url(#f0e83fa274)"><path fill="#c6e0f7" d="M 142.875 207.523438 L 162.300781 207.523438 L 162.300781 226.949219 L 142.875 226.949219 Z M 142.875 207.523438 " fill-opacity="1" fill-rule="nonzero"/></g></g><g clip-path="url(#e421c28ae6)"><g clip-path="url(#860325d7e0)"><path fill="#c6e0f7" d="M 212.023438 207 L 231.449219 207 L 231.449219 226.425781 L 212.023438 226.425781 Z M 212.023438 207 " fill-opacity="1" fill-rule="nonzero"/></g></g><g clip-path="url(#d0aea37fbd)"><g clip-path="url(#67d09f952e)"><path fill="#c6e0f7" d="M 225.898438 207 L 245.324219 207 L 245.324219 226.425781 L 225.898438 226.425781 Z M 225.898438 207 " fill-opacity="1" fill-rule="nonzero"/></g></g><g clip-path="url(#6bfa71c0e6)"><g clip-path="url(#be0d30ffcb)"><path fill="#ffffff" d="M 242.773438 300.898438 L 249.53125 300.898438 L 249.53125 307.425781 L 242.773438 307.425781 Z M 242.773438 300.898438 " fill-opacity="1" fill-rule="nonzero"/></g></g><g clip-path="url(#96825b93bf)"><g clip-path="url(#386888bb8a)"><path fill="#ffffff" d="M 362.101562 61.574219 L 378.601562 61.574219 L 378.601562 92.125 L 362.101562 92.125 Z M 362.101562 61.574219 " fill-opacity="1" fill-rule="nonzero"/></g></g><g clip-path="url(#8595a4df21)"><g clip-path="url(#6a81e349e1)"><path fill="#f0f8ff" d="M 100.351562 218.101562 L 118.871094 218.101562 L 118.871094 226.273438 L 100.351562 226.273438 Z M 100.351562 218.101562 " fill-opacity="1" fill-rule="nonzero"/></g></g><g clip-path="url(#73d681e4be)"><g clip-path="url(#73f3e9e8f0)"><path fill="#c6e0f7" d="M 93 217.648438 L 121.289062 217.648438 L 121.289062 226.726562 L 93 226.726562 Z M 93 217.648438 " fill-opacity="1" fill-rule="nonzero"/></g></g><g clip-path="url(#3b2e8ff814)"><g clip-path="url(#4d1a6dd6dc)"><path fill="#c6e0f7" d="M 50.023438 219.148438 L 86.835938 219.148438 L 86.835938 227.476562 L 50.023438 227.476562 Z M 50.023438 219.148438 " fill-opacity="1" fill-rule="nonzero"/></g></g><g clip-path="url(#a726d813ae)"><g clip-path="url(#8f311c7937)"><path fill="#c6e0f7" d="M 53.925781 216.601562 L 74.464844 216.601562 L 74.464844 226.125 L 53.925781 226.125 Z M 53.925781 216.601562 " fill-opacity="1" fill-rule="nonzero"/></g></g><g clip-path="url(#3bb8f76a00)"><g clip-path="url(#ab318ac3f4)"><path fill="#c6e0f7" d="M 61.5 217.574219 L 71.265625 217.574219 L 71.265625 225.148438 L 61.5 225.148438 Z M 61.5 217.574219 " fill-opacity="1" fill-rule="nonzero"/></g></g><g clip-path="url(#dc25a73927)"><g clip-path="url(#517a95d24c)"><path fill="#c6e0f7" d="M 102.976562 219.375 L 116.851562 219.375 L 116.851562 226.949219 L 102.976562 226.949219 Z M 102.976562 219.375 " fill-opacity="1" fill-rule="nonzero"/></g></g><g clip-path="url(#a6ffde15e8)"><g clip-path="url(#c1131379e3)"><path fill="#c6e0f7" d="M 91.050781 220.425781 L 117.089844 220.425781 L 117.089844 228.675781 L 91.050781 228.675781 Z M 91.050781 220.425781 " fill-opacity="1" fill-rule="nonzero"/></g></g><g clip-path="url(#c22b679215)"><g clip-path="url(#fdc3769e13)"><path fill="#c6e0f7" d="M 130.949219 214.574219 L 167.449219 214.574219 L 167.449219 228 L 130.949219 228 Z M 130.949219 214.574219 " fill-opacity="1" fill-rule="nonzero"/></g></g><g clip-path="url(#7e12a90098)"><g clip-path="url(#8dbd95bf8e)"><path fill="#c6e0f7" d="M 189.523438 221.101562 L 196.941406 221.101562 L 196.941406 228.375 L 189.523438 228.375 Z M 189.523438 221.101562 " fill-opacity="1" fill-rule="nonzero"/></g></g><g clip-path="url(#ad445cacd7)"><g clip-path="url(#f9149fd1a2)"><path fill="#c6e0f7" d="M 188.101562 219.976562 L 195.515625 219.976562 L 195.515625 227.25 L 188.101562 227.25 Z M 188.101562 219.976562 " fill-opacity="1" fill-rule="nonzero"/></g></g><g clip-path="url(#0d9de50406)"><g clip-path="url(#878092ec62)"><path fill="#c6e0f7" d="M 202.050781 217.726562 L 236.011719 217.726562 L 236.011719 226.351562 L 202.050781 226.351562 Z M 202.050781 217.726562 " fill-opacity="1" fill-rule="nonzero"/></g></g><g clip-path="url(#640837a469)"><g clip-path="url(#faf4102faf)"><path fill="#c6e0f7" d="M 208.726562 219 L 279.4375 219 L 279.4375 229.351562 L 208.726562 229.351562 Z M 208.726562 219 " fill-opacity="1" fill-rule="nonzero"/></g></g><g clip-path="url(#8db52fa05f)"><g clip-path="url(#8b3c2bf049)"><path fill="#c6e0f7" d="M 187.574219 220.199219 L 198.0625 220.199219 L 198.0625 227.699219 L 187.574219 227.699219 Z M 187.574219 220.199219 " fill-opacity="1" fill-rule="nonzero"/></g></g><g clip-path="url(#bd9f555d8a)"><g clip-path="url(#b572d1c3c1)"><path fill="#c6e0f7" d="M 141.148438 221.101562 L 156.683594 221.101562 L 156.683594 228.675781 L 141.148438 228.675781 Z M 141.148438 221.101562 " fill-opacity="1" fill-rule="nonzero"/></g></g><g clip-path="url(#74f38a2945)"><g clip-path="url(#f89278c738)"><path fill="#c6e0f7" d="M 56.324219 218.476562 L 71.617188 218.476562 L 71.617188 225.976562 L 56.324219 225.976562 Z M 56.324219 218.476562 " fill-opacity="1" fill-rule="nonzero"/></g></g><g clip-path="url(#1d191eb04c)"><g clip-path="url(#e2b96d968a)"><path fill="#c6e0f7" d="M 125.175781 216.75 L 146.761719 216.75 L 146.761719 225.824219 L 125.175781 225.824219 Z M 125.175781 216.75 " fill-opacity="1" fill-rule="nonzero"/></g></g><g clip-path="url(#d2f9e54e68)"><g clip-path="url(#6c74bafd9b)"><path fill="#c6e0f7" d="M 46.574219 219.148438 L 107.703125 219.148438 L 107.703125 229.5 L 46.574219 229.5 Z M 46.574219 219.148438 " fill-opacity="1" fill-rule="nonzero"/></g></g></svg>