<svg xmlns="http://www.w3.org/2000/svg" xmlns:xlink="http://www.w3.org/1999/xlink" width="500" zoomAndPan="magnify" viewBox="0 0 375 374.999991" height="500" preserveAspectRatio="xMidYMid meet" version="1.0"><defs><clipPath id="f7ed4fb116"><path d="M 186 90.46875 L 195 90.46875 L 195 118 L 186 118 Z M 186 90.46875 " clip-rule="nonzero"/></clipPath><clipPath id="8fda27ed34"><path d="M 0 161 L 256 161 L 256 284.71875 L 0 284.71875 Z M 0 161 " clip-rule="nonzero"/></clipPath></defs><path fill="#f0f8ff" d="M 191.597656 214.921875 C 191.367188 214.933594 191.128906 214.941406 190.890625 214.941406 L 39.183594 214.941406 C 39.078125 214.941406 38.976562 214.941406 38.871094 214.9375 C 38.761719 214.941406 38.65625 214.941406 38.550781 214.941406 C 26.375 214.941406 16.503906 205.0625 16.503906 192.878906 C 16.503906 180.6875 26.375 170.808594 38.550781 170.808594 C 41.210938 170.808594 43.757812 171.285156 46.121094 172.148438 C 47.6875 156.722656 60.703125 144.6875 76.523438 144.6875 C 77.042969 144.6875 77.5625 144.703125 78.078125 144.726562 C 84.207031 130.675781 98.207031 120.855469 114.503906 120.855469 C 133.101562 120.855469 148.710938 133.644531 153.042969 150.917969 C 155.925781 150.015625 158.988281 149.527344 162.171875 149.527344 C 178.511719 149.527344 191.855469 162.359375 192.695312 178.511719 C 202.648438 178.617188 210.683594 186.734375 210.683594 196.726562 C 210.683594 206.785156 202.535156 214.941406 192.484375 214.941406 C 192.1875 214.941406 191.894531 214.933594 191.597656 214.921875 Z M 191.597656 214.921875 " fill-opacity="1" fill-rule="evenodd"/><path fill="#ffc44f" d="M 190.847656 124.566406 C 216.972656 124.566406 238.160156 145.761719 238.160156 171.917969 C 238.160156 198.070312 216.976562 219.273438 190.847656 219.273438 C 164.71875 219.273438 143.535156 198.070312 143.535156 171.917969 C 143.535156 145.761719 164.71875 124.566406 190.847656 124.566406 Z M 190.847656 124.566406 " fill-opacity="1" fill-rule="evenodd"/><path fill="#ffe66b" d="M 190.847656 124.566406 C 216.972656 124.566406 238.160156 145.761719 238.160156 171.917969 C 238.160156 172.292969 238.148438 172.667969 238.140625 173.039062 C 231.101562 183.109375 219.429688 189.691406 206.210938 189.691406 C 184.703125 189.691406 167.261719 172.238281 167.261719 150.707031 C 167.261719 141.902344 170.179688 133.78125 175.097656 127.257812 C 180.027344 125.511719 185.324219 124.566406 190.847656 124.566406 Z M 190.847656 124.566406 " fill-opacity="1" fill-rule="evenodd"/><g clip-path="url(#f7ed4fb116)"><path fill="#ffc44f" d="M 190.847656 90.476562 C 193.078125 90.476562 194.902344 92.300781 194.902344 94.535156 L 194.902344 113.179688 C 194.902344 115.414062 193.078125 117.242188 190.847656 117.242188 C 188.617188 117.242188 186.789062 115.414062 186.789062 113.179688 L 186.789062 94.535156 C 186.792969 92.300781 188.617188 90.476562 190.847656 90.476562 Z M 190.847656 90.476562 " fill-opacity="1" fill-rule="evenodd"/></g><path fill="#ffc44f" d="M 150.164062 101.386719 C 152.097656 100.269531 154.59375 100.9375 155.710938 102.871094 L 165.019531 119.019531 C 166.136719 120.953125 165.46875 123.449219 163.535156 124.566406 C 161.601562 125.683594 159.109375 125.015625 157.992188 123.078125 L 148.679688 106.9375 C 147.5625 105 148.234375 102.503906 150.164062 101.386719 Z M 150.164062 101.386719 " fill-opacity="1" fill-rule="evenodd"/><path fill="#ffc44f" d="M 120.382812 131.195312 C 121.5 129.261719 123.992188 128.59375 125.925781 129.710938 L 142.058594 139.03125 C 143.992188 140.148438 144.65625 142.640625 143.542969 144.578125 C 142.421875 146.511719 139.929688 147.179688 138 146.066406 L 121.871094 136.746094 C 119.9375 135.625 119.265625 133.128906 120.382812 131.195312 Z M 120.382812 131.195312 " fill-opacity="1" fill-rule="evenodd"/><path fill="#ffc44f" d="M 109.484375 171.917969 C 109.484375 169.683594 111.308594 167.855469 113.539062 167.855469 L 132.167969 167.855469 C 134.398438 167.855469 136.222656 169.683594 136.222656 171.917969 C 136.222656 174.152344 134.402344 175.980469 132.167969 175.980469 L 113.539062 175.980469 C 111.308594 175.980469 109.484375 174.152344 109.484375 171.917969 Z M 109.484375 171.917969 " fill-opacity="1" fill-rule="evenodd"/><path fill="#ffc44f" d="M 120.382812 212.636719 C 119.265625 210.703125 119.9375 208.207031 121.867188 207.09375 L 137.996094 197.769531 C 139.929688 196.652344 142.421875 197.320312 143.539062 199.257812 C 144.65625 201.191406 143.988281 203.6875 142.050781 204.804688 L 125.921875 214.128906 C 123.992188 215.242188 121.5 214.574219 120.382812 212.636719 Z M 120.382812 212.636719 " fill-opacity="1" fill-rule="evenodd"/><path fill="#ffc44f" d="M 150.164062 242.453125 C 148.234375 241.332031 147.566406 238.839844 148.675781 236.902344 L 157.992188 220.757812 C 159.109375 218.824219 161.601562 218.15625 163.535156 219.269531 C 165.464844 220.390625 166.132812 222.882812 165.015625 224.820312 L 155.703125 240.964844 C 154.59375 242.898438 152.097656 243.566406 150.164062 242.453125 Z M 150.164062 242.453125 " fill-opacity="1" fill-rule="evenodd"/><path fill="#ffc44f" d="M 190.847656 253.363281 C 188.617188 253.363281 186.789062 251.535156 186.789062 249.300781 L 186.789062 230.660156 C 186.789062 228.425781 188.617188 226.597656 190.847656 226.597656 C 193.078125 226.597656 194.902344 228.425781 194.902344 230.660156 L 194.902344 249.300781 C 194.902344 251.535156 193.078125 253.363281 190.847656 253.363281 Z M 190.847656 253.363281 " fill-opacity="1" fill-rule="evenodd"/><path fill="#ffc44f" d="M 231.53125 242.453125 C 229.597656 243.566406 227.105469 242.898438 225.988281 240.964844 L 216.675781 224.820312 C 215.558594 222.882812 216.230469 220.386719 218.160156 219.269531 C 220.09375 218.15625 222.589844 218.824219 223.707031 220.757812 L 233.015625 236.902344 C 234.132812 238.839844 233.460938 241.332031 231.53125 242.453125 Z M 231.53125 242.453125 " fill-opacity="1" fill-rule="evenodd"/><path fill="#ffc44f" d="M 261.3125 212.636719 C 260.195312 214.578125 257.699219 215.242188 255.769531 214.128906 L 239.640625 204.804688 C 237.707031 203.691406 237.039062 201.191406 238.15625 199.257812 C 239.269531 197.324219 241.761719 196.652344 243.699219 197.773438 L 259.828125 207.09375 C 261.757812 208.207031 262.429688 210.703125 261.3125 212.636719 Z M 261.3125 212.636719 " fill-opacity="1" fill-rule="evenodd"/><path fill="#ffc44f" d="M 272.210938 171.917969 C 272.210938 174.152344 270.386719 175.980469 268.15625 175.980469 L 249.527344 175.980469 C 247.296875 175.980469 245.472656 174.152344 245.472656 171.917969 C 245.472656 169.683594 247.296875 167.855469 249.527344 167.855469 L 268.15625 167.855469 C 270.386719 167.855469 272.210938 169.683594 272.210938 171.917969 Z M 272.210938 171.917969 " fill-opacity="1" fill-rule="evenodd"/><path fill="#ffc44f" d="M 261.3125 131.195312 C 262.429688 133.128906 261.757812 135.625 259.828125 136.746094 L 243.699219 146.066406 C 241.765625 147.179688 239.269531 146.511719 238.15625 144.578125 C 237.035156 142.640625 237.707031 140.144531 239.640625 139.03125 L 255.769531 129.707031 C 257.699219 128.59375 260.195312 129.261719 261.3125 131.195312 Z M 261.3125 131.195312 " fill-opacity="1" fill-rule="evenodd"/><path fill="#ffc44f" d="M 231.53125 101.386719 C 233.460938 102.503906 234.128906 105 233.015625 106.933594 L 223.703125 123.078125 C 222.585938 125.011719 220.09375 125.683594 218.160156 124.5625 C 216.226562 123.449219 215.558594 120.953125 216.671875 119.019531 L 225.984375 102.871094 C 227.105469 100.9375 229.597656 100.273438 231.53125 101.386719 Z M 231.53125 101.386719 " fill-opacity="1" fill-rule="evenodd"/><path fill="#a1c6e6" d="M 355.289062 264.777344 C 353.820312 265.203125 352.273438 265.425781 350.679688 265.425781 L 191.957031 265.425781 C 191.8125 265.425781 191.667969 265.425781 191.519531 265.421875 C 191.371094 265.421875 191.222656 265.425781 191.070312 265.425781 C 174.042969 265.425781 160.238281 251.613281 160.238281 234.566406 C 160.238281 217.519531 174.042969 203.699219 191.070312 203.699219 C 194.789062 203.699219 198.355469 204.359375 201.65625 205.570312 C 203.851562 184 222.054688 167.164062 244.1875 167.164062 C 246.902344 167.164062 249.5625 167.417969 252.140625 167.902344 C 262.226562 153.84375 278.699219 144.683594 297.308594 144.683594 C 328.003906 144.683594 352.886719 169.589844 352.886719 200.308594 C 352.886719 205.21875 352.246094 209.976562 351.054688 214.511719 C 364.410156 215.292969 375.003906 226.378906 375.003906 239.949219 C 375.003906 252.042969 366.578125 262.171875 355.289062 264.777344 Z M 355.289062 264.777344 " fill-opacity="1" fill-rule="evenodd"/><g clip-path="url(#8fda27ed34)"><path fill="#c6e0f7" d="M 25.085938 284.6875 C 25.394531 284.703125 25.703125 284.710938 26.011719 284.710938 L 225.40625 284.710938 C 225.546875 284.710938 225.675781 284.710938 225.816406 284.707031 C 225.957031 284.710938 226.097656 284.710938 226.238281 284.710938 C 242.238281 284.710938 255.210938 271.730469 255.210938 255.714844 C 255.210938 239.699219 242.238281 226.710938 226.238281 226.710938 C 222.742188 226.710938 219.390625 227.335938 216.289062 228.46875 C 214.230469 208.195312 197.125 192.378906 176.328125 192.378906 C 175.644531 192.378906 174.964844 192.394531 174.285156 192.429688 C 166.230469 173.964844 147.832031 161.054688 126.410156 161.054688 C 101.96875 161.054688 81.453125 177.867188 75.761719 200.566406 C 71.972656 199.378906 67.941406 198.738281 63.765625 198.738281 C 42.289062 198.738281 24.753906 215.605469 23.648438 236.828125 C 10.566406 236.972656 0 247.632812 0 260.765625 C 0 273.992188 10.710938 284.710938 23.921875 284.710938 C 24.3125 284.710938 24.699219 284.703125 25.085938 284.6875 Z M 25.085938 284.6875 " fill-opacity="1" fill-rule="evenodd"/></g></svg>