<svg xmlns="http://www.w3.org/2000/svg" xmlns:xlink="http://www.w3.org/1999/xlink" width="500" zoomAndPan="magnify" viewBox="0 0 375 374.999991" height="500" preserveAspectRatio="xMidYMid meet" version="1.0"><defs><clipPath id="0076bab535"><path d="M 12 9 L 209 9 L 209 268 L 12 268 Z M 12 9 " clip-rule="nonzero"/></clipPath><clipPath id="05869aa082"><path d="M -29.648438 70.796875 L 181.808594 -25.859375 L 290.003906 210.832031 L 78.550781 307.492188 Z M -29.648438 70.796875 " clip-rule="nonzero"/></clipPath><clipPath id="ada3c3dd6d"><path d="M 22.53125 -81.769531 L 352.921875 32.210938 L 238.691406 363.3125 L -91.699219 249.328125 Z M 22.53125 -81.769531 " clip-rule="nonzero"/></clipPath><clipPath id="470418a38e"><path d="M 13.875 -116.472656 L 368.371094 5.824219 L 239.222656 380.175781 L -115.273438 257.875 Z M 13.875 -116.472656 " clip-rule="nonzero"/></clipPath><clipPath id="6bcf3a37cd"><path d="M 0 0 L 291 0 L 291 276 L 0 276 Z M 0 0 " clip-rule="nonzero"/></clipPath><clipPath id="8df0c07ee9"><path d="M -29.648438 70.796875 L 181.808594 -25.859375 L 290.003906 210.832031 L 78.550781 307.492188 Z M -29.648438 70.796875 " clip-rule="nonzero"/></clipPath><clipPath id="9da93d60f2"><path d="M 22.53125 -81.769531 L 352.921875 32.210938 L 238.691406 363.3125 L -91.699219 249.328125 Z M 22.53125 -81.769531 " clip-rule="nonzero"/></clipPath><clipPath id="00ecd604d3"><path d="M 13.875 -116.472656 L 368.371094 5.824219 L 239.222656 380.175781 L -115.273438 257.875 Z M 13.875 -116.472656 " clip-rule="nonzero"/></clipPath><clipPath id="e5079b92fe"><path d="M 12 9 L 147 9 L 147 268 L 12 268 Z M 12 9 " clip-rule="nonzero"/></clipPath><clipPath id="b9e7a22b89"><path d="M -29.648438 70.796875 L 181.808594 -25.859375 L 290.003906 210.832031 L 78.550781 307.492188 Z M -29.648438 70.796875 " clip-rule="nonzero"/></clipPath><clipPath id="5978a9567e"><path d="M 22.53125 -81.769531 L 352.921875 32.210938 L 238.691406 363.3125 L -91.699219 249.328125 Z M 22.53125 -81.769531 " clip-rule="nonzero"/></clipPath><clipPath id="5ef97a9302"><path d="M 13.875 -116.472656 L 368.371094 5.824219 L 239.222656 380.175781 L -115.273438 257.875 Z M 13.875 -116.472656 " clip-rule="nonzero"/></clipPath><clipPath id="843897a6c2"><path d="M 118 98.503906 L 375 98.503906 L 375 243 L 118 243 Z M 118 98.503906 " clip-rule="nonzero"/></clipPath><clipPath id="3097426a04"><path d="M 0.601562 119 L 327 119 L 327 276.253906 L 0.601562 276.253906 Z M 0.601562 119 " clip-rule="nonzero"/></clipPath><clipPath id="f936f5b4c4"><path d="M 54 258 L 76 258 L 76 276.253906 L 54 276.253906 Z M 54 258 " clip-rule="nonzero"/></clipPath><clipPath id="87e76809af"><path d="M 94 258 L 115 258 L 115 276.253906 L 94 276.253906 Z M 94 258 " clip-rule="nonzero"/></clipPath><clipPath id="13c3df0c80"><path d="M 134 258 L 155 258 L 155 276.253906 L 134 276.253906 Z M 134 258 " clip-rule="nonzero"/></clipPath><clipPath id="2ab1203e1e"><path d="M 173 258 L 195 258 L 195 276.253906 L 173 276.253906 Z M 173 258 " clip-rule="nonzero"/></clipPath><clipPath id="6f12e4f506"><path d="M 213 258 L 235 258 L 235 276.253906 L 213 276.253906 Z M 213 258 " clip-rule="nonzero"/></clipPath><clipPath id="3025cc445e"><path d="M 253 258 L 275 258 L 275 276.253906 L 253 276.253906 Z M 253 258 " clip-rule="nonzero"/></clipPath><clipPath id="daa205efcb"><path d="M 42 173 L 295.800781 173 L 295.800781 225.523438 L 42 225.523438 Z M 42 173 " clip-rule="nonzero"/></clipPath><clipPath id="5a1215ef11"><path d="M 62.773438 179.324219 C 77.25 178.648438 82.425781 176.699219 92.550781 175.800781 C 119.324219 173.398438 212.324219 172.726562 240 173.625 C 250.875 174 256.800781 175.273438 262.726562 175.425781 C 266.550781 175.5 269.324219 174.976562 272.023438 175.050781 C 274.199219 175.125 275.925781 175.273438 277.726562 175.726562 C 279.601562 176.175781 281.398438 176.925781 283.050781 177.75 C 284.773438 178.648438 286.351562 179.773438 287.773438 181.050781 C 289.199219 182.25 290.476562 183.75 291.601562 185.324219 C 292.648438 186.824219 293.550781 188.625 294.226562 190.351562 C 294.898438 192.148438 295.351562 194.023438 295.574219 195.898438 C 295.800781 197.773438 295.800781 199.726562 295.574219 201.601562 C 295.351562 203.476562 294.898438 205.425781 294.226562 207.148438 C 293.550781 208.949219 292.648438 210.675781 291.601562 212.25 C 290.476562 213.75 289.199219 215.25 287.773438 216.523438 C 286.351562 217.726562 284.773438 218.851562 283.050781 219.75 C 281.398438 220.648438 280.273438 221.175781 277.726562 221.773438 C 272.25 223.050781 259.726562 225.148438 250.574219 224.25 C 240.976562 223.425781 230.023438 215.550781 221.398438 216 C 214.425781 216.375 204.75 225.375 202.648438 223.574219 C 200.925781 222.074219 206.101562 210.976562 205.5 210.75 C 205.050781 210.523438 202.949219 215.398438 201.226562 217.351562 C 199.425781 219.226562 197.324219 220.949219 195 222.226562 C 192.75 223.425781 190.125 224.398438 187.648438 224.851562 C 185.101562 225.300781 182.324219 225.375 179.773438 225 C 177.148438 224.625 174.523438 223.800781 172.273438 222.601562 C 169.949219 221.398438 167.699219 219.824219 165.898438 217.949219 C 164.101562 216.074219 162.449219 213.824219 161.324219 211.5 C 160.199219 209.175781 159.449219 206.550781 159.074219 204 C 158.773438 201.375 158.851562 198.675781 159.375 196.125 C 159.898438 193.574219 160.875 190.949219 162.148438 188.773438 C 163.5 186.523438 165.226562 184.351562 167.175781 182.625 C 169.125 180.976562 171.449219 179.476562 173.851562 178.5 C 176.25 177.449219 178.949219 176.851562 181.5 176.625 C 184.050781 176.476562 186.824219 176.699219 189.375 177.375 C 191.851562 177.976562 194.398438 179.101562 196.574219 180.523438 C 198.675781 181.949219 200.773438 183.824219 202.351562 185.851562 C 203.925781 187.875 205.273438 190.273438 206.175781 192.75 C 207 195.148438 207.523438 197.925781 207.601562 200.476562 C 207.601562 203.101562 207.226562 205.800781 206.398438 208.273438 C 205.648438 210.75 204.375 213.226562 202.875 215.324219 C 201.375 217.351562 199.351562 219.300781 197.25 220.800781 C 195.148438 222.300781 192.675781 223.5 190.199219 224.25 C 187.726562 225 184.949219 225.300781 182.324219 225.226562 C 179.773438 225.148438 177.074219 224.550781 174.675781 223.648438 C 172.199219 222.75 169.800781 221.398438 167.851562 219.75 C 165.824219 218.101562 164.023438 216 162.601562 213.824219 C 161.25 211.648438 160.199219 209.101562 159.601562 206.550781 C 159 204.074219 158.773438 201.300781 159 198.675781 C 159.226562 196.125 159.074219 193.726562 161.023438 191.101562 C 164.699219 186 176.476562 177.898438 186.449219 175.050781 C 198.148438 171.675781 216.300781 174.898438 227.625 175.273438 C 235.648438 175.574219 241.050781 176.550781 248.175781 176.550781 C 255.824219 176.550781 266.851562 174.898438 272.023438 175.050781 C 274.574219 175.125 275.925781 175.273438 277.726562 175.726562 C 279.601562 176.175781 281.398438 176.925781 283.050781 177.75 C 284.773438 178.648438 286.351562 179.773438 287.773438 181.050781 C 289.199219 182.25 290.476562 183.75 291.601562 185.324219 C 292.648438 186.824219 293.550781 188.550781 294.226562 190.351562 C 294.898438 192.148438 295.351562 194.023438 295.574219 195.898438 C 295.800781 197.773438 295.800781 199.726562 295.574219 201.601562 C 295.351562 203.476562 294.898438 205.425781 294.226562 207.148438 C 293.550781 208.949219 292.648438 210.675781 291.601562 212.25 C 290.476562 213.75 289.199219 215.25 287.773438 216.523438 C 286.351562 217.726562 284.773438 218.851562 283.050781 219.75 C 281.398438 220.648438 279.601562 221.324219 277.726562 221.773438 C 275.925781 222.226562 274.648438 222.375 272.023438 222.449219 C 266.398438 222.601562 257.324219 221.023438 245.023438 220.5 C 218.550781 219.375 144.226562 219.898438 119.476562 218.851562 C 109.125 218.398438 105.074219 217.050781 97.425781 217.273438 C 89.175781 217.5 78.976562 220.351562 71.699219 220.648438 C 66.375 220.875 61.199219 220.648438 57.824219 219.898438 C 55.800781 219.449219 54.675781 218.925781 53.175781 218.175781 C 51.75 217.351562 50.324219 216.449219 49.125 215.324219 C 47.851562 214.199219 46.726562 212.925781 45.824219 211.574219 C 44.851562 210.226562 44.101562 208.726562 43.5 207.226562 C 42.898438 205.648438 42.523438 204 42.300781 202.425781 C 42.148438 200.773438 42.148438 199.050781 42.300781 197.398438 C 42.523438 195.824219 42.898438 194.175781 43.5 192.601562 C 44.101562 191.101562 44.851562 189.601562 45.824219 188.25 C 46.726562 186.898438 47.851562 185.625 49.125 184.5 C 50.324219 183.449219 51.75 182.476562 53.175781 181.648438 C 54.675781 180.898438 56.25 180.300781 57.824219 179.925781 C 59.398438 179.550781 62.773438 179.324219 62.773438 179.324219 " clip-rule="nonzero"/></clipPath><clipPath id="2688606a92"><path d="M 205.28125 181.671875 L 245.347656 181.671875 L 245.347656 222.636719 L 205.28125 222.636719 Z M 205.28125 181.671875 " clip-rule="nonzero"/></clipPath><clipPath id="87183c280c"><path d="M 245.175781 196.199219 C 245.175781 208.949219 243.675781 212.25 241.726562 214.726562 C 239.851562 217.199219 237 219.375 234.148438 220.648438 C 231.300781 222 227.699219 222.601562 224.625 222.449219 C 221.476562 222.226562 218.023438 221.175781 215.324219 219.523438 C 212.625 217.949219 210.074219 215.398438 208.5 212.699219 C 206.851562 210 205.800781 206.550781 205.574219 203.476562 C 205.425781 200.324219 206.101562 196.800781 207.375 193.875 C 208.648438 191.023438 210.824219 188.175781 213.300781 186.300781 C 215.773438 184.351562 219.074219 182.851562 222.148438 182.324219 C 225.226562 181.726562 228.824219 181.949219 231.824219 182.925781 C 234.824219 183.824219 240.148438 187.875 240.148438 187.875 " clip-rule="nonzero"/></clipPath><clipPath id="2c113cb0c2"><path d="M 124.058594 181.070312 L 164 181.070312 L 164 222 L 124.058594 222 Z M 124.058594 181.070312 " clip-rule="nonzero"/></clipPath><clipPath id="286360b067"><path d="M 163.875 195.601562 C 163.949219 208.351562 162.449219 211.648438 160.5 214.125 C 158.550781 216.601562 155.773438 218.851562 152.851562 220.125 C 150 221.398438 146.476562 222.074219 143.324219 221.851562 C 140.25 221.699219 136.800781 220.574219 134.101562 219 C 131.398438 217.351562 128.851562 214.800781 127.273438 212.101562 C 125.625 209.398438 124.574219 206.023438 124.351562 202.875 C 124.199219 199.726562 124.800781 196.199219 126.074219 193.351562 C 127.425781 190.5 129.601562 187.648438 132.074219 185.699219 C 134.550781 183.75 137.851562 182.324219 140.925781 181.726562 C 144 181.125 147.601562 181.351562 150.601562 182.324219 C 153.601562 183.226562 158.925781 187.351562 158.925781 187.351562 " clip-rule="nonzero"/></clipPath><clipPath id="13991108d3"><path d="M 99.109375 209.730469 L 112.464844 209.730469 L 112.464844 223.464844 L 99.109375 223.464844 Z M 99.109375 209.730469 " clip-rule="nonzero"/></clipPath><clipPath id="0194d58950"><path d="M 112.425781 214.648438 C 112.425781 218.851562 111.898438 219.976562 111.300781 220.800781 C 110.625 221.625 109.726562 222.375 108.75 222.75 C 107.773438 223.199219 106.574219 223.425781 105.601562 223.351562 C 104.550781 223.273438 103.351562 222.976562 102.449219 222.375 C 101.550781 221.851562 100.726562 221.023438 100.199219 220.125 C 99.675781 219.226562 99.300781 218.101562 99.226562 217.050781 C 99.148438 216 99.375 214.800781 99.824219 213.824219 C 100.273438 212.925781 100.949219 211.949219 101.773438 211.273438 C 102.601562 210.675781 103.726562 210.148438 104.773438 210 C 105.75 209.773438 106.949219 209.851562 108 210.148438 C 108.976562 210.523438 110.773438 211.875 110.773438 211.875 " clip-rule="nonzero"/></clipPath><clipPath id="56b9488102"><path d="M 91.082031 209.730469 L 104.363281 209.730469 L 104.363281 223.464844 L 91.082031 223.464844 Z M 91.082031 209.730469 " clip-rule="nonzero"/></clipPath><clipPath id="ebc8b71074"><path d="M 104.324219 214.648438 C 104.324219 218.851562 103.875 219.976562 103.199219 220.800781 C 102.601562 221.625 101.625 222.375 100.648438 222.75 C 99.75 223.199219 98.550781 223.425781 97.5 223.351562 C 96.449219 223.273438 95.324219 222.976562 94.425781 222.375 C 93.523438 221.851562 92.699219 221.023438 92.101562 220.125 C 91.574219 219.226562 91.199219 218.101562 91.199219 217.050781 C 91.125 216 91.351562 214.800781 91.726562 213.824219 C 92.175781 212.925781 92.925781 211.949219 93.75 211.273438 C 94.574219 210.675781 95.625 210.148438 96.675781 210 C 97.726562 209.773438 98.925781 209.851562 99.898438 210.148438 C 100.875 210.523438 102.675781 211.875 102.675781 211.875 " clip-rule="nonzero"/></clipPath><clipPath id="6a9db24167"><path d="M 63.410156 209.207031 L 76.761719 209.207031 L 76.761719 222.867188 L 63.410156 222.867188 Z M 63.410156 209.207031 " clip-rule="nonzero"/></clipPath><clipPath id="a49dca675d"><path d="M 76.726562 214.050781 C 76.726562 218.324219 76.199219 219.375 75.523438 220.199219 C 74.925781 221.023438 73.949219 221.773438 73.050781 222.226562 C 72.074219 222.601562 70.875 222.824219 69.824219 222.75 C 68.773438 222.75 67.648438 222.375 66.75 221.851562 C 65.851562 221.25 65.023438 220.425781 64.5 219.523438 C 63.898438 218.625 63.601562 217.5 63.523438 216.449219 C 63.449219 215.398438 63.675781 214.199219 64.125 213.300781 C 64.5 212.324219 65.25 211.351562 66.074219 210.75 C 66.898438 210.074219 68.023438 209.625 69 209.398438 C 70.050781 209.25 71.25 209.324219 72.226562 209.625 C 73.273438 209.925781 75 211.273438 75 211.273438 " clip-rule="nonzero"/></clipPath><clipPath id="80813b8f97"><path d="M 54.183594 209.207031 L 67.539062 209.207031 L 67.539062 222.867188 L 54.183594 222.867188 Z M 54.183594 209.207031 " clip-rule="nonzero"/></clipPath><clipPath id="4206c830d0"><path d="M 67.5 214.050781 C 67.5 218.324219 66.976562 219.375 66.375 220.199219 C 65.699219 221.023438 64.726562 221.773438 63.824219 222.226562 C 62.851562 222.601562 61.648438 222.824219 60.601562 222.75 C 59.550781 222.75 58.425781 222.375 57.523438 221.851562 C 56.625 221.25 55.800781 220.425781 55.273438 219.523438 C 54.675781 218.625 54.375 217.5 54.300781 216.449219 C 54.226562 215.398438 54.449219 214.199219 54.898438 213.300781 C 55.273438 212.324219 56.023438 211.351562 56.851562 210.75 C 57.675781 210.074219 58.800781 209.625 59.851562 209.398438 C 60.824219 209.25 62.023438 209.324219 63.074219 209.625 C 64.050781 209.925781 65.773438 211.273438 65.773438 211.273438 " clip-rule="nonzero"/></clipPath><clipPath id="fc14268c63"><path d="M 64.007812 209.207031 L 77.289062 209.207031 L 77.289062 222.867188 L 64.007812 222.867188 Z M 64.007812 209.207031 " clip-rule="nonzero"/></clipPath><clipPath id="33329a8006"><path d="M 77.25 214.050781 C 77.25 218.324219 76.800781 219.375 76.125 220.199219 C 75.523438 221.023438 74.550781 221.773438 73.574219 222.226562 C 72.675781 222.601562 71.476562 222.824219 70.425781 222.75 C 69.375 222.75 68.25 222.375 67.351562 221.851562 C 66.449219 221.25 65.625 220.425781 65.023438 219.523438 C 64.5 218.625 64.125 217.5 64.050781 216.449219 C 64.050781 215.398438 64.273438 214.199219 64.648438 213.300781 C 65.101562 212.324219 65.851562 211.351562 66.675781 210.75 C 67.5 210.074219 68.550781 209.625 69.601562 209.398438 C 70.648438 209.25 71.851562 209.324219 72.824219 209.625 C 73.800781 209.925781 75.601562 211.273438 75.601562 211.273438 " clip-rule="nonzero"/></clipPath><clipPath id="1688259b61"><path d="M 55.308594 209.207031 L 68.664062 209.207031 L 68.664062 222.867188 L 55.308594 222.867188 Z M 55.308594 209.207031 " clip-rule="nonzero"/></clipPath><clipPath id="a959b6be03"><path d="M 68.625 214.050781 C 68.625 218.324219 68.175781 219.375 67.5 220.199219 C 66.824219 221.023438 65.925781 221.773438 64.949219 222.226562 C 63.976562 222.601562 62.851562 222.824219 61.800781 222.75 C 60.75 222.75 59.550781 222.375 58.726562 221.851562 C 57.824219 221.25 56.925781 220.425781 56.398438 219.523438 C 55.875 218.625 55.5 217.5 55.425781 216.449219 C 55.351562 215.398438 55.574219 214.199219 56.023438 213.300781 C 56.476562 212.324219 57.226562 211.351562 58.050781 210.75 C 58.875 210.074219 59.925781 209.625 60.976562 209.398438 C 62.023438 209.25 63.226562 209.324219 64.199219 209.625 C 65.175781 209.925781 66.976562 211.273438 66.976562 211.273438 " clip-rule="nonzero"/></clipPath><clipPath id="4446497b7f"><path d="M 64.535156 209.730469 L 77.886719 209.730469 L 77.886719 223.464844 L 64.535156 223.464844 Z M 64.535156 209.730469 " clip-rule="nonzero"/></clipPath><clipPath id="f09863749a"><path d="M 77.851562 214.648438 C 77.851562 218.851562 77.324219 219.976562 76.726562 220.800781 C 76.050781 221.625 75.148438 222.375 74.175781 222.75 C 73.199219 223.199219 72 223.425781 71.023438 223.351562 C 69.976562 223.273438 68.773438 222.976562 67.875 222.375 C 67.050781 221.851562 66.148438 221.023438 65.625 220.125 C 65.101562 219.226562 64.726562 218.101562 64.648438 217.050781 C 64.574219 216 64.800781 214.800781 65.25 213.824219 C 65.699219 212.925781 66.449219 211.949219 67.273438 211.273438 C 68.023438 210.675781 69.148438 210.148438 70.199219 210 C 71.25 209.773438 72.375 209.851562 73.425781 210.148438 C 74.398438 210.523438 76.199219 211.875 76.199219 211.875 " clip-rule="nonzero"/></clipPath><clipPath id="fa26d68849"><path d="M 53.058594 208.609375 L 66.335938 208.609375 L 66.335938 222.339844 L 53.058594 222.339844 Z M 53.058594 208.609375 " clip-rule="nonzero"/></clipPath><clipPath id="1367867632"><path d="M 66.300781 213.449219 C 66.300781 217.726562 65.851562 218.773438 65.175781 219.601562 C 64.574219 220.425781 63.601562 221.175781 62.625 221.625 C 61.726562 222.074219 60.523438 222.300781 59.476562 222.226562 C 58.425781 222.148438 57.300781 221.773438 56.398438 221.25 C 55.5 220.726562 54.675781 219.824219 54.074219 219 C 53.550781 218.101562 53.175781 216.898438 53.175781 215.851562 C 53.101562 214.800781 53.324219 213.675781 53.699219 212.699219 C 54.148438 211.726562 54.898438 210.824219 55.726562 210.148438 C 56.550781 209.550781 57.601562 209.023438 58.648438 208.800781 C 59.699219 208.648438 60.898438 208.726562 61.875 209.023438 C 62.851562 209.324219 64.648438 210.675781 64.648438 210.675781 " clip-rule="nonzero"/></clipPath><clipPath id="b9899635f4"><path d="M 53.058594 208.007812 L 66.335938 208.007812 L 66.335938 221.742188 L 53.058594 221.742188 Z M 53.058594 208.007812 " clip-rule="nonzero"/></clipPath><clipPath id="4bd3b601e4"><path d="M 66.300781 212.851562 C 66.300781 217.125 65.851562 218.25 65.175781 219.074219 C 64.574219 219.898438 63.601562 220.648438 62.625 221.023438 C 61.726562 221.476562 60.523438 221.699219 59.476562 221.625 C 58.425781 221.550781 57.300781 221.25 56.398438 220.648438 C 55.5 220.125 54.675781 219.300781 54.074219 218.398438 C 53.550781 217.5 53.175781 216.375 53.175781 215.324219 C 53.101562 214.273438 53.324219 213.074219 53.699219 212.101562 C 54.148438 211.199219 54.898438 210.226562 55.726562 209.550781 C 56.550781 208.949219 57.601562 208.425781 58.648438 208.273438 C 59.699219 208.050781 60.898438 208.125 61.875 208.425781 C 62.851562 208.800781 64.648438 210.148438 64.648438 210.148438 " clip-rule="nonzero"/></clipPath><clipPath id="c8f007d20b"><path d="M 104.882812 209.730469 L 118.238281 209.730469 L 118.238281 223.464844 L 104.882812 223.464844 Z M 104.882812 209.730469 " clip-rule="nonzero"/></clipPath><clipPath id="eb3ac729b2"><path d="M 118.199219 214.648438 C 118.199219 218.851562 117.675781 219.976562 117.074219 220.800781 C 116.398438 221.625 115.425781 222.375 114.523438 222.75 C 113.550781 223.199219 112.351562 223.425781 111.300781 223.351562 C 110.25 223.273438 109.125 222.976562 108.226562 222.375 C 107.324219 221.851562 106.5 221.023438 105.976562 220.125 C 105.449219 219.226562 105.074219 218.101562 105 217.050781 C 104.925781 216 105.148438 214.800781 105.601562 213.824219 C 105.976562 212.925781 106.726562 211.949219 107.550781 211.273438 C 108.375 210.675781 109.5 210.148438 110.550781 210 C 111.523438 209.773438 112.726562 209.851562 113.773438 210.148438 C 114.75 210.523438 116.476562 211.875 116.476562 211.875 " clip-rule="nonzero"/></clipPath><clipPath id="62eeb097c1"><path d="M 136.609375 209.730469 L 149.886719 209.730469 L 149.886719 223.464844 L 136.609375 223.464844 Z M 136.609375 209.730469 " clip-rule="nonzero"/></clipPath><clipPath id="f3338e84fa"><path d="M 149.851562 214.648438 C 149.851562 218.851562 149.398438 219.976562 148.726562 220.800781 C 148.125 221.625 147.148438 222.375 146.175781 222.75 C 145.273438 223.199219 144.074219 223.425781 143.023438 223.351562 C 141.976562 223.273438 140.851562 222.976562 139.949219 222.375 C 139.050781 221.851562 138.148438 221.023438 137.625 220.125 C 137.101562 219.226562 136.726562 218.101562 136.648438 217.050781 C 136.648438 216 136.875 214.800781 137.25 213.824219 C 137.699219 212.925781 138.449219 211.949219 139.273438 211.273438 C 140.101562 210.675781 141.148438 210.148438 142.199219 210 C 143.25 209.773438 144.449219 209.851562 145.425781 210.148438 C 146.398438 210.523438 148.199219 211.875 148.199219 211.875 " clip-rule="nonzero"/></clipPath><clipPath id="c57a9be02e"><path d="M 145.835938 210.332031 L 159.113281 210.332031 L 159.113281 224 L 145.835938 224 Z M 145.835938 210.332031 " clip-rule="nonzero"/></clipPath><clipPath id="fb87432472"><path d="M 159.074219 215.175781 C 159.074219 219.449219 158.625 220.574219 157.949219 221.398438 C 157.273438 222.148438 156.375 222.898438 155.398438 223.351562 C 154.425781 223.800781 153.300781 224.023438 152.25 223.949219 C 151.199219 223.875 150.074219 223.5 149.175781 222.976562 C 148.273438 222.449219 147.375 221.550781 146.851562 220.726562 C 146.324219 219.824219 145.949219 218.625 145.875 217.574219 C 145.875 216.601562 146.023438 215.398438 146.476562 214.425781 C 146.925781 213.449219 147.675781 212.550781 148.5 211.875 C 149.324219 211.273438 150.375 210.75 151.425781 210.523438 C 152.476562 210.375 153.675781 210.449219 154.648438 210.75 C 155.625 211.050781 157.425781 212.398438 157.425781 212.398438 " clip-rule="nonzero"/></clipPath><clipPath id="a3c58918f5"><path d="M 215 209.730469 L 228.261719 209.730469 L 228.261719 223.464844 L 215 223.464844 Z M 215 209.730469 " clip-rule="nonzero"/></clipPath><clipPath id="4146d4f086"><path d="M 228.226562 214.648438 C 228.226562 218.851562 227.773438 219.976562 227.101562 220.800781 C 226.425781 221.625 225.523438 222.375 224.550781 222.75 C 223.574219 223.199219 222.449219 223.425781 221.398438 223.351562 C 220.351562 223.273438 219.148438 222.976562 218.324219 222.375 C 217.425781 221.851562 216.523438 221.023438 216 220.125 C 215.476562 219.226562 215.101562 218.101562 215.023438 217.050781 C 214.949219 216 215.175781 214.800781 215.625 213.824219 C 216.074219 212.925781 216.824219 211.949219 217.648438 211.273438 C 218.476562 210.675781 219.523438 210.148438 220.574219 210 C 221.625 209.773438 222.824219 209.851562 223.800781 210.148438 C 224.773438 210.523438 226.574219 211.875 226.574219 211.875 " clip-rule="nonzero"/></clipPath><clipPath id="5cb349ca8b"><path d="M 228.785156 209.730469 L 242.0625 209.730469 L 242.0625 223.464844 L 228.785156 223.464844 Z M 228.785156 209.730469 " clip-rule="nonzero"/></clipPath><clipPath id="5c0139e101"><path d="M 242.023438 214.648438 C 242.023438 218.851562 241.574219 219.976562 240.898438 220.800781 C 240.300781 221.625 239.324219 222.375 238.351562 222.75 C 237.449219 223.199219 236.25 223.425781 235.199219 223.351562 C 234.148438 223.273438 233.023438 222.976562 232.125 222.375 C 231.226562 221.851562 230.398438 221.023438 229.800781 220.125 C 229.273438 219.226562 228.898438 218.101562 228.898438 217.050781 C 228.824219 216 229.050781 214.800781 229.425781 213.824219 C 229.875 212.925781 230.625 211.949219 231.449219 211.273438 C 232.273438 210.675781 233.398438 210.148438 234.375 210 C 235.425781 209.773438 236.625 209.851562 237.601562 210.148438 C 238.648438 210.523438 240.375 211.875 240.375 211.875 " clip-rule="nonzero"/></clipPath><clipPath id="da5ee0dd7e"><path d="M 246 303.882812 L 246.546875 303.882812 L 246.546875 304.367188 L 246 304.367188 Z M 246 303.882812 " clip-rule="nonzero"/></clipPath><clipPath id="c71bca3f83"><path d="M 246.523438 304.050781 C 245.773438 304.351562 246.375 303.898438 246.375 303.898438 " clip-rule="nonzero"/></clipPath><clipPath id="79cc97f6f1"><path d="M 365.066406 64.476562 L 375 64.476562 L 375 89.226562 L 365.066406 89.226562 Z M 365.066406 64.476562 " clip-rule="nonzero"/></clipPath><clipPath id="90ad863d86"><path d="M 365.101562 88.949219 C 366.449219 82.273438 370.273438 76.273438 371.476562 72.675781 C 372.375 69.976562 371.925781 66.824219 372.976562 65.625 C 373.574219 64.800781 375.449219 64.5 375.523438 64.574219 C 375.601562 64.648438 374.101562 65.175781 373.5 66.074219 C 372.375 67.800781 372.300781 72.523438 371.101562 75.675781 C 369.898438 78.976562 366.976562 82.949219 366.148438 85.425781 C 365.699219 86.925781 366.074219 88.800781 365.699219 89.101562 C 365.550781 89.175781 365.101562 88.949219 365.101562 88.949219 " clip-rule="nonzero"/></clipPath><clipPath id="5a14a0b2f9"><path d="M 103.320312 220.496094 L 115.902344 220.496094 L 115.902344 223.304688 L 103.320312 223.304688 Z M 103.320312 220.496094 " clip-rule="nonzero"/></clipPath><clipPath id="06a29371fb"><path d="M 115.199219 222.675781 C 103.726562 223.050781 103.425781 222.675781 103.351562 222.375 C 103.351562 222.148438 103.726562 221.699219 104.023438 221.625 C 104.324219 221.625 105 222.074219 105 222.300781 C 105 222.601562 104.324219 223.273438 104.023438 223.199219 C 103.800781 223.199219 103.351562 222.75 103.351562 222.449219 C 103.425781 222.226562 103.726562 221.851562 104.175781 221.625 C 105.675781 220.949219 113.699219 220.5 115.125 221.101562 C 115.574219 221.25 115.875 221.550781 115.875 221.851562 C 115.875 222.074219 115.199219 222.675781 115.199219 222.675781 " clip-rule="nonzero"/></clipPath><clipPath id="9f9f5d6174"><path d="M 96 220.273438 L 118.382812 220.273438 L 118.382812 224 L 96 224 Z M 96 220.273438 " clip-rule="nonzero"/></clipPath><clipPath id="529140880b"><path d="M 102.824219 220.800781 C 116.925781 220.800781 117.300781 220.949219 117.675781 221.324219 C 118.050781 221.699219 118.351562 222.601562 118.199219 222.976562 C 118.125 223.273438 117.824219 223.425781 117.300781 223.574219 C 116.023438 224.023438 112.273438 223.726562 109.273438 223.648438 C 105.523438 223.574219 98.175781 223.800781 96.601562 223.050781 C 96.226562 222.898438 96 222.601562 96 222.375 C 96 222.074219 96.148438 221.699219 96.601562 221.398438 C 98.324219 220.5 109.574219 220.273438 111.449219 221.023438 C 111.976562 221.25 112.273438 221.625 112.273438 221.925781 C 112.273438 222.226562 111.601562 222.75 111.375 222.675781 C 111.074219 222.675781 110.699219 221.398438 110.851562 221.25 C 111 221.101562 112.199219 221.550781 112.273438 221.851562 C 112.351562 222.074219 111.976562 222.449219 111.449219 222.75 C 109.574219 223.5 98.699219 223.875 96.824219 223.125 C 96.300781 222.824219 96 222.449219 96 222.148438 C 96 221.851562 96.300781 221.625 96.824219 221.398438 C 99.074219 220.574219 116.476562 220.949219 117.074219 222.074219 C 117.226562 222.226562 117.074219 222.601562 116.699219 222.824219 C 115.351562 223.574219 104.550781 223.050781 102.824219 222.226562 C 102.375 222 102.074219 221.699219 102.074219 221.398438 C 102.074219 221.175781 102.824219 220.800781 102.824219 220.800781 " clip-rule="nonzero"/></clipPath><clipPath id="f69eb9ba11"><path d="M 53.015625 221.621094 L 83.941406 221.621094 L 83.941406 224.484375 L 53.015625 224.484375 Z M 53.015625 221.621094 " clip-rule="nonzero"/></clipPath><clipPath id="2a0842d9cc"><path d="M 83.101562 223.726562 C 53.25 224.25 53.023438 223.949219 53.023438 223.726562 C 53.023438 223.425781 53.625 222.976562 53.851562 222.976562 C 54.148438 222.976562 54.601562 223.574219 54.523438 223.875 C 54.523438 224.101562 53.925781 224.476562 53.625 224.476562 C 53.398438 224.476562 53.023438 224.023438 53.023438 223.800781 C 53.023438 223.5 53.324219 223.199219 53.773438 222.976562 C 55.875 222 67.800781 222.300781 73.199219 222.148438 C 77.101562 222.148438 82.050781 221.625 83.324219 222.226562 C 83.699219 222.449219 83.925781 222.824219 83.851562 223.050781 C 83.851562 223.351562 83.101562 223.726562 83.101562 223.726562 " clip-rule="nonzero"/></clipPath><clipPath id="2fde4b550c"><path d="M 56.753906 219.054688 L 71.488281 219.054688 L 71.488281 223 L 56.753906 223 Z M 56.753906 219.054688 " clip-rule="nonzero"/></clipPath><clipPath id="9e42fbb364"><path d="M 70.949219 221.101562 C 57 222.824219 56.773438 221.851562 56.925781 221.699219 C 57.074219 221.550781 58.351562 221.925781 58.351562 222.074219 C 58.425781 222.300781 57.300781 223.050781 57.148438 222.976562 C 56.925781 222.824219 56.851562 221.851562 57.300781 221.476562 C 58.5 220.199219 69.074219 219.074219 70.726562 219.601562 C 71.175781 219.75 71.398438 220.125 71.398438 220.351562 C 71.476562 220.574219 70.949219 221.101562 70.949219 221.101562 " clip-rule="nonzero"/></clipPath><clipPath id="8ba14f35c8"><path d="M 64.339844 220.179688 L 68.277344 220.179688 L 68.277344 222.101562 L 64.339844 222.101562 Z M 64.339844 220.179688 " clip-rule="nonzero"/></clipPath><clipPath id="043ab83ce3"><path d="M 67.5 222.074219 C 64.351562 221.625 64.875 220.574219 65.023438 220.574219 C 65.25 220.574219 65.773438 221.476562 65.625 221.699219 C 65.550781 221.925781 64.726562 222.074219 64.574219 222 C 64.425781 221.773438 64.648438 220.800781 64.949219 220.574219 C 65.476562 220.199219 67.351562 220.273438 67.875 220.648438 C 68.101562 220.875 68.25 221.324219 68.175781 221.550781 C 68.101562 221.773438 67.5 222.074219 67.5 222.074219 " clip-rule="nonzero"/></clipPath><clipPath id="28c5982a1f"><path d="M 105.964844 222 L 113.863281 222 L 113.863281 224 L 105.964844 224 Z M 105.964844 222 " clip-rule="nonzero"/></clipPath><clipPath id="0f38f51e35"><path d="M 113.023438 223.949219 C 106.199219 223.726562 105.976562 223.351562 105.976562 223.125 C 106.050781 222.898438 106.648438 222.375 106.875 222.375 C 107.175781 222.449219 107.625 223.050781 107.550781 223.273438 C 107.550781 223.574219 106.875 224.023438 106.648438 223.949219 C 106.351562 223.949219 105.976562 223.5 105.976562 223.199219 C 105.976562 222.976562 106.351562 222.601562 106.800781 222.375 C 107.851562 221.925781 112.273438 221.925781 113.25 222.449219 C 113.625 222.601562 113.851562 223.050781 113.851562 223.273438 C 113.773438 223.5 113.023438 223.949219 113.023438 223.949219 " clip-rule="nonzero"/></clipPath><clipPath id="38500d274a"><path d="M 94.046875 223.101562 L 114 223.101562 L 114 225.773438 L 94.046875 225.773438 Z M 94.046875 223.101562 " clip-rule="nonzero"/></clipPath><clipPath id="fe68f7c42b"><path d="M 113.25 225.074219 C 94.199219 225.449219 94.050781 225.074219 94.050781 224.773438 C 94.050781 224.550781 94.425781 224.101562 94.726562 224.023438 C 95.023438 224.023438 95.699219 224.476562 95.699219 224.699219 C 95.773438 225 95.25 225.675781 94.949219 225.675781 C 94.726562 225.75 94.125 225.148438 94.050781 224.925781 C 94.050781 224.625 94.199219 224.324219 94.648438 224.023438 C 96.148438 223.199219 104.925781 223.5 108.375 223.425781 C 110.476562 223.425781 112.574219 223.125 113.398438 223.574219 C 113.773438 223.726562 114 224.101562 114 224.398438 C 114 224.625 113.25 225.074219 113.25 225.074219 " clip-rule="nonzero"/></clipPath><clipPath id="ac15b545fa"><path d="M 133.78125 217 L 164.722656 217 L 164.722656 224.800781 L 133.78125 224.800781 Z M 133.78125 217 " clip-rule="nonzero"/></clipPath><clipPath id="4df07fee6c"><path d="M 154.5 223.800781 C 134.773438 224.773438 134.101562 224.699219 133.949219 224.25 C 133.800781 223.875 134.175781 222.976562 134.773438 222.523438 C 135.824219 221.699219 139.726562 220.949219 141 221.023438 C 141.523438 221.023438 142.050781 221.175781 142.125 221.476562 C 142.273438 221.851562 141.75 222.75 141.226562 223.050781 C 140.550781 223.5 138.675781 223.5 138.226562 223.125 C 137.925781 222.824219 137.773438 222.148438 138.074219 221.699219 C 138.675781 220.875 141.675781 220.5 144.375 219.976562 C 149.175781 219 162.824219 216.375 164.324219 217.574219 C 164.625 217.800781 164.550781 218.699219 164.398438 218.773438 C 164.324219 218.851562 163.726562 218.476562 163.726562 218.25 C 163.648438 218.023438 164.101562 217.5 164.25 217.574219 C 164.398438 217.574219 164.699219 218.398438 164.476562 218.699219 C 163.726562 219.824219 155.476562 219.148438 151.125 219.898438 C 146.851562 220.648438 140.25 223.800781 138.675781 223.199219 C 138.074219 222.976562 137.773438 222.375 137.851562 222.074219 C 137.925781 221.773438 138.675781 221.476562 139.125 221.398438 C 139.648438 221.324219 140.699219 221.476562 140.851562 221.773438 C 141 222 140.851562 222.449219 140.550781 222.75 C 139.875 223.425781 135.675781 224.550781 135.300781 224.175781 C 135.074219 224.023438 135.148438 223.5 135.375 223.273438 C 136.5 222.300781 145.5 222.148438 149.101562 222.074219 C 151.351562 222 153.824219 221.773438 154.726562 222.226562 C 155.101562 222.449219 155.324219 222.824219 155.25 223.050781 C 155.25 223.351562 154.5 223.800781 154.5 223.800781 " clip-rule="nonzero"/></clipPath><clipPath id="a6d57308dc"><path d="M 192.421875 224 L 193.902344 224 L 193.902344 225.476562 L 192.421875 225.476562 Z M 192.421875 224 " clip-rule="nonzero"/></clipPath><clipPath id="d073e5e53c"><path d="M 193.875 224.476562 C 193.273438 225.449219 192.675781 225.300781 192.523438 225.074219 C 192.449219 224.851562 192.523438 224.25 192.75 224.101562 C 192.898438 223.949219 193.726562 224.101562 193.726562 224.101562 " clip-rule="nonzero"/></clipPath><clipPath id="475e2e2f4d"><path d="M 191 222.816406 L 192.476562 222.816406 L 192.476562 224.351562 L 191 224.351562 Z M 191 222.816406 " clip-rule="nonzero"/></clipPath><clipPath id="1bc8536e1a"><path d="M 192.449219 223.351562 C 191.773438 224.324219 191.175781 224.175781 191.101562 223.949219 C 190.949219 223.726562 191.023438 223.125 191.25 222.976562 C 191.476562 222.824219 192.226562 223.050781 192.226562 223.050781 " clip-rule="nonzero"/></clipPath><clipPath id="c89ef2378f"><path d="M 205.046875 220.722656 L 233.113281 220.722656 L 233.113281 224 L 205.046875 224 Z M 205.046875 220.722656 " clip-rule="nonzero"/></clipPath><clipPath id="2550cfd815"><path d="M 205.875 220.726562 C 213.898438 221.851562 225.75 221.324219 229.5 221.550781 C 231 221.699219 232.425781 221.550781 232.726562 222 C 232.875 222.300781 232.574219 223.273438 232.351562 223.273438 C 232.199219 223.351562 231.675781 222.824219 231.675781 222.601562 C 231.675781 222.375 232.199219 221.925781 232.425781 221.925781 C 232.648438 221.925781 233.023438 222.226562 233.023438 222.449219 C 233.101562 222.75 232.875 223.050781 232.425781 223.273438 C 230.398438 224.324219 215.023438 223.425781 210.300781 223.050781 C 208.125 222.824219 206.175781 222.675781 205.5 222.148438 C 205.199219 222 205.050781 221.625 205.050781 221.398438 C 205.125 221.175781 205.875 220.726562 205.875 220.726562 " clip-rule="nonzero"/></clipPath><clipPath id="e772474c25"><path d="M 211.636719 221 L 276.484375 221 L 276.484375 227 L 211.636719 227 Z M 211.636719 221 " clip-rule="nonzero"/></clipPath><clipPath id="c265d875cf"><path d="M 275.25 224.476562 C 264.976562 224.773438 264.824219 224.476562 264.75 224.175781 C 264.75 223.875 265.050781 223.273438 265.5 222.898438 C 266.25 222.375 267.976562 222.226562 269.398438 222.074219 C 271.273438 221.851562 274.800781 221.476562 275.773438 222 C 276.226562 222.226562 276.449219 222.601562 276.449219 222.898438 C 276.375 223.199219 276.148438 223.425781 275.625 223.648438 C 273.675781 224.398438 264.675781 223.800781 259.800781 224.324219 C 255.449219 224.699219 251.773438 225.675781 247.574219 226.050781 C 243.148438 226.425781 235.800781 227.175781 233.925781 226.273438 C 233.25 225.976562 233.398438 225.300781 232.800781 225 C 232.050781 224.625 231 224.851562 229.5 224.851562 C 226.125 224.851562 215.550781 226.5 213.148438 225.675781 C 212.324219 225.375 211.800781 225 211.726562 224.476562 C 211.648438 224.023438 212.023438 223.199219 212.773438 222.75 C 215.324219 221.398438 232.273438 222.074219 233.101562 223.425781 C 233.324219 223.800781 232.875 224.699219 232.574219 224.773438 C 232.351562 224.773438 231.601562 223.726562 231.675781 223.5 C 231.75 223.273438 232.949219 223.199219 233.101562 223.351562 C 233.25 223.574219 233.023438 224.398438 232.425781 224.773438 C 230.476562 225.976562 213.976562 224.625 213.976562 224.398438 C 213.976562 224.101562 230.773438 222.601562 233.175781 223.199219 C 233.773438 223.351562 234.074219 223.574219 234.148438 223.875 C 234.300781 224.175781 233.699219 224.699219 233.925781 224.925781 C 234.375 225.523438 237 225.074219 239.851562 225 C 246.75 224.773438 272.476562 220.949219 275.625 222 C 276.148438 222.148438 276.375 222.449219 276.449219 222.675781 C 276.449219 222.976562 276.226562 223.351562 275.773438 223.648438 C 274.574219 224.324219 267.226562 224.851562 266.398438 224.25 C 266.175781 224.101562 266.101562 223.726562 266.25 223.5 C 266.773438 222.824219 274.050781 222.449219 275.324219 222.976562 C 275.699219 223.199219 275.925781 223.5 275.925781 223.726562 C 275.925781 223.949219 275.25 224.476562 275.25 224.476562 " clip-rule="nonzero"/></clipPath><clipPath id="0f8fe98ae9"><path d="M 190.476562 222.894531 L 195.074219 222.894531 L 195.074219 224.652344 L 190.476562 224.652344 Z M 190.476562 222.894531 " clip-rule="nonzero"/></clipPath><clipPath id="ba730baf04"><path d="M 194.324219 224.625 C 190.726562 224.398438 190.5 223.875 190.574219 223.648438 C 190.648438 223.425781 191.175781 223.125 191.324219 223.199219 C 191.550781 223.273438 191.925781 224.324219 191.773438 224.476562 C 191.625 224.550781 190.648438 224.175781 190.574219 223.949219 C 190.5 223.800781 190.726562 223.425781 191.023438 223.273438 C 191.625 222.898438 193.648438 222.898438 194.324219 223.199219 C 194.699219 223.351562 195.074219 223.726562 195 224.023438 C 195 224.25 194.324219 224.625 194.324219 224.625 " clip-rule="nonzero"/></clipPath><clipPath id="224843add3"><path d="M 144 223.554688 L 153.695312 223.554688 L 153.695312 225.628906 L 144 225.628906 Z M 144 223.554688 " clip-rule="nonzero"/></clipPath><clipPath id="ffeaa2d775"><path d="M 152.851562 225.601562 C 144.074219 225.300781 144 224.476562 144.148438 224.324219 C 144.300781 224.175781 145.425781 224.550781 145.5 224.699219 C 145.5 224.925781 144.523438 225.601562 144.300781 225.523438 C 144.148438 225.375 144.148438 224.398438 144.449219 224.101562 C 145.125 223.574219 147.675781 224.023438 149.175781 224.101562 C 150.523438 224.101562 152.550781 223.800781 153.226562 224.175781 C 153.449219 224.324219 153.675781 224.699219 153.601562 224.925781 C 153.523438 225.226562 152.851562 225.601562 152.851562 225.601562 " clip-rule="nonzero"/></clipPath><clipPath id="e2a441ed43"><path d="M 59.3125 221.464844 L 68.570312 221.464844 L 68.570312 223.601562 L 59.3125 223.601562 Z M 59.3125 221.464844 " clip-rule="nonzero"/></clipPath><clipPath id="741dd61296"><path d="M 60.074219 221.476562 C 68.398438 221.773438 68.550781 222.300781 68.476562 222.523438 C 68.398438 222.75 67.949219 223.050781 67.726562 222.976562 C 67.5 222.976562 67.050781 222.375 67.050781 222.148438 C 67.125 221.851562 67.726562 221.476562 67.949219 221.550781 C 68.175781 221.550781 68.550781 222 68.550781 222.226562 C 68.550781 222.449219 68.25 222.824219 67.800781 222.976562 C 66.601562 223.5 60.976562 223.574219 59.851562 222.976562 C 59.476562 222.75 59.324219 222.375 59.324219 222.148438 C 59.324219 221.925781 60.074219 221.476562 60.074219 221.476562 " clip-rule="nonzero"/></clipPath><clipPath id="fa81efbc47"><path d="M 128.152344 219.125 L 143.785156 219.125 L 143.785156 223 L 128.152344 223 Z M 128.152344 219.125 " clip-rule="nonzero"/></clipPath><clipPath id="d4cfeb9ff3"><path d="M 143.023438 222.824219 C 133.351562 222.226562 133.5 221.550781 133.800781 221.25 C 134.175781 220.800781 135.226562 220.875 136.273438 220.800781 C 137.773438 220.648438 141 220.273438 142.050781 220.574219 C 142.574219 220.726562 142.949219 220.875 143.023438 221.175781 C 143.101562 221.398438 142.949219 221.925781 142.574219 222.148438 C 141.601562 222.675781 136.199219 222.226562 135.75 221.476562 C 135.523438 221.175781 135.75 220.5 136.125 220.199219 C 136.800781 219.675781 139.800781 219.824219 140.550781 220.199219 C 140.925781 220.425781 141.148438 220.800781 141.074219 221.023438 C 141.074219 221.25 140.851562 221.550781 140.398438 221.699219 C 138.898438 222.226562 130.273438 221.699219 128.851562 221.023438 C 128.398438 220.875 128.175781 220.574219 128.175781 220.351562 C 128.25 220.125 128.699219 219.75 128.925781 219.75 C 129.148438 219.824219 129.523438 220.273438 129.449219 220.5 C 129.449219 220.726562 128.925781 221.023438 128.699219 221.023438 C 128.476562 221.023438 128.175781 220.648438 128.175781 220.425781 C 128.175781 220.199219 128.476562 219.898438 128.851562 219.75 C 130.351562 219.148438 139.574219 219.148438 140.550781 220.199219 C 140.925781 220.574219 140.851562 221.324219 140.550781 221.625 C 140.023438 222.226562 136.125 222.074219 135.75 221.476562 C 135.523438 221.175781 135.75 220.5 136.125 220.199219 C 136.949219 219.601562 141.300781 220.273438 142.351562 220.726562 C 142.800781 220.875 143.101562 221.101562 143.101562 221.324219 C 143.101562 221.550781 142.949219 221.925781 142.574219 222.148438 C 141.375 222.75 134.25 223.351562 133.574219 222.523438 C 133.351562 222.226562 133.5 221.476562 133.949219 221.175781 C 135 220.351562 141.675781 220.726562 143.023438 221.324219 C 143.476562 221.550781 143.773438 221.925781 143.699219 222.148438 C 143.699219 222.375 143.023438 222.824219 143.023438 222.824219 " clip-rule="nonzero"/></clipPath><clipPath id="edc6bac3c5"><path d="M 49.484375 221 L 104.710938 221 L 104.710938 227 L 49.484375 227 Z M 49.484375 221 " clip-rule="nonzero"/></clipPath><clipPath id="7c5b68db6f"><path d="M 50.476562 222.976562 C 62.101562 225.449219 68.773438 224.398438 70.050781 225.074219 C 70.5 225.300781 70.648438 225.601562 70.648438 225.898438 C 70.574219 226.125 70.351562 226.351562 69.898438 226.5 C 68.324219 227.101562 58.648438 226.5 56.851562 226.050781 C 56.324219 225.898438 56.023438 225.824219 55.875 225.601562 C 55.726562 225.300781 55.800781 224.550781 56.101562 224.25 C 56.476562 223.875 57.148438 223.875 58.050781 223.726562 C 60.449219 223.425781 67.574219 223.425781 70.425781 223.726562 C 72 223.875 72.300781 224.324219 74.023438 224.476562 C 78.226562 224.851562 90.300781 224.101562 95.699219 223.574219 C 99 223.273438 102.148438 222 103.5 222.375 C 104.175781 222.523438 104.699219 222.976562 104.699219 223.273438 C 104.699219 223.5 104.398438 223.800781 103.875 224.023438 C 100.875 225.148438 72.226562 225.449219 70.050781 223.800781 C 69.675781 223.574219 69.675781 222.898438 69.75 222.824219 C 69.976562 222.675781 70.648438 223.351562 71.476562 223.5 C 73.574219 223.800781 81.375 222.148438 82.726562 222.898438 C 83.175781 223.199219 83.324219 223.726562 83.25 224.023438 C 83.175781 224.25 82.648438 224.625 82.425781 224.550781 C 82.125 224.550781 81.601562 223.574219 81.675781 223.351562 C 81.824219 223.125 82.949219 222.976562 83.101562 223.199219 C 83.25 223.351562 83.023438 224.25 82.5 224.550781 C 81.148438 225.523438 74.476562 225.449219 72 225.148438 C 70.574219 225 69.300781 224.699219 68.773438 224.175781 C 68.476562 223.875 68.25 223.351562 68.398438 223.050781 C 68.550781 222.675781 69.074219 222.375 70.050781 222.148438 C 74.175781 221.175781 102.523438 220.5 104.25 222.449219 C 104.625 222.898438 104.476562 223.574219 104.101562 223.949219 C 102.675781 225.300781 93.226562 225.074219 87.976562 225.375 C 83.101562 225.675781 78.75 225.898438 73.800781 225.898438 C 68.476562 225.898438 57.898438 226.425781 57.148438 225.375 C 57 225.074219 57.148438 224.625 57.523438 224.398438 C 58.648438 223.648438 67.050781 224.476562 69.074219 224.851562 C 69.75 225 70.351562 225.074219 70.5 225.375 C 70.574219 225.675781 70.425781 226.199219 69.898438 226.5 C 68.324219 227.398438 59.625 226.648438 56.023438 225.976562 C 53.550781 225.601562 50.699219 224.851562 49.875 224.175781 C 49.648438 223.875 49.5 223.5 49.574219 223.351562 C 49.648438 223.125 50.476562 222.976562 50.476562 222.976562 " clip-rule="nonzero"/></clipPath><clipPath id="3603258cda"><path d="M 44 238 L 287.324219 238 L 287.324219 278 L 44 278 Z M 44 238 " clip-rule="nonzero"/></clipPath><clipPath id="302c38cd1e"><path d="M 274.425781 270.898438 C 215.023438 272.25 211.425781 273.75 206.625 274.351562 C 202.125 274.800781 200.25 274.800781 193.726562 275.023438 C 173.324219 275.699219 91.351562 280.425781 66.824219 275.773438 C 56.398438 273.824219 47.925781 272.023438 45.226562 267.226562 C 42.976562 263.324219 45.226562 255.375 47.925781 251.550781 C 50.398438 247.949219 55.726562 245.699219 60.148438 244.425781 C 64.726562 243.148438 68.925781 244.648438 75 244.125 C 84.675781 243.375 104.023438 239.699219 112.726562 238.800781 C 117.375 238.351562 120.601562 238.050781 123.375 238.125 C 125.25 238.199219 126.523438 238.273438 127.949219 238.726562 C 129.375 239.101562 130.875 239.851562 132.074219 240.675781 C 133.351562 241.574219 134.476562 242.699219 135.375 243.898438 C 136.273438 245.101562 137.023438 246.523438 137.476562 248.023438 C 137.925781 249.449219 138.148438 251.023438 138.148438 252.523438 C 138.074219 254.023438 137.851562 255.601562 137.324219 257.023438 C 136.800781 258.449219 136.050781 259.875 135.074219 261.074219 C 134.175781 262.273438 132.976562 263.324219 131.699219 264.148438 C 130.425781 264.976562 129 265.648438 127.5 266.023438 C 126.074219 266.398438 124.425781 266.550781 122.925781 266.476562 C 121.425781 266.324219 119.851562 265.949219 118.5 265.351562 C 117.074219 264.824219 115.726562 263.925781 114.601562 262.949219 C 113.476562 261.976562 112.425781 260.699219 111.675781 259.425781 C 110.925781 258.074219 110.324219 256.574219 110.023438 255.148438 C 109.726562 253.648438 109.726562 252 109.875 250.5 C 110.101562 249 110.550781 247.5 111.148438 246.148438 C 111.824219 244.800781 112.726562 243.449219 113.851562 242.398438 C 114.898438 241.273438 116.175781 240.375 117.523438 239.699219 C 118.875 238.949219 120.375 238.5 121.875 238.273438 C 123.375 238.050781 125.023438 238.050781 126.449219 238.351562 C 127.949219 238.648438 129.449219 239.175781 130.800781 239.851562 C 132.148438 240.601562 133.351562 241.574219 134.398438 242.699219 C 135.449219 243.824219 136.273438 245.175781 136.949219 246.523438 C 137.550781 247.949219 137.925781 249.523438 138.074219 251.023438 C 138.226562 252.523438 138.074219 254.101562 137.773438 255.601562 C 137.398438 257.023438 136.800781 258.523438 135.976562 259.800781 C 135.148438 261.074219 134.101562 262.273438 132.976562 263.25 C 131.773438 264.226562 130.726562 264.976562 129 265.574219 C 126 266.550781 121.5 266.101562 116.324219 266.851562 C 107.851562 268.125 92.625 272.773438 83.101562 273 C 75.898438 273.148438 68.324219 274.125 64.199219 270.449219 C 59.476562 266.175781 53.925781 252.226562 58.273438 246.75 C 68.476562 233.625 167.324219 248.851562 195.226562 247.5 C 207.449219 246.976562 211.273438 245.324219 221.625 244.875 C 236.175781 244.273438 265.648438 244.5 274.425781 245.625 C 277.425781 246 278.550781 246.148438 280.273438 247.050781 C 282.074219 247.949219 283.726562 249.449219 284.851562 251.101562 C 285.976562 252.675781 286.726562 255.148438 287.023438 256.726562 C 287.175781 257.925781 287.175781 258.675781 287.023438 259.800781 C 286.726562 261.449219 285.675781 264.074219 284.851562 265.425781 C 284.25 266.476562 283.574219 267.074219 282.824219 267.75 C 282.074219 268.425781 281.398438 269.023438 280.273438 269.476562 C 278.773438 270.148438 274.425781 270.898438 274.425781 270.898438 " clip-rule="nonzero"/></clipPath><clipPath id="a8a6de6ac3"><path d="M 161.21875 248.734375 L 290.582031 248.734375 L 290.582031 279 L 161.21875 279 Z M 161.21875 248.734375 " clip-rule="nonzero"/></clipPath><clipPath id="af0886a1ae"><path d="M 285.300781 271.425781 C 279.523438 275.25 274.199219 277.199219 270 278.023438 C 265.875 278.851562 261.601562 279 257.175781 278.851562 C 252.523438 278.773438 249.375 277.5 242.773438 277.199219 C 228.601562 276.449219 184.875 278.699219 175.648438 278.023438 C 173.175781 277.800781 172.5 277.726562 171.074219 277.273438 C 169.648438 276.75 168.226562 276 167.023438 275.101562 C 165.824219 274.199219 164.699219 273 163.875 271.800781 C 162.976562 270.523438 162.300781 269.023438 161.925781 267.601562 C 161.476562 266.101562 161.324219 264.523438 161.398438 263.023438 C 161.476562 261.523438 161.851562 259.949219 162.375 258.523438 C 162.976562 257.101562 163.800781 255.75 164.773438 254.550781 C 165.75 253.425781 167.023438 252.375 168.300781 251.550781 C 169.574219 250.800781 171.074219 250.199219 172.574219 249.898438 C 174.074219 249.523438 175.648438 249.449219 177.148438 249.601562 C 178.648438 249.824219 180.226562 250.199219 181.574219 250.875 C 183 251.476562 184.273438 252.375 185.398438 253.425781 C 186.523438 254.476562 187.5 255.75 188.175781 257.101562 C 188.925781 258.449219 189.449219 259.949219 189.675781 261.449219 C 189.898438 262.949219 189.898438 264.601562 189.675781 266.101562 C 189.449219 267.601562 188.925781 269.101562 188.175781 270.449219 C 187.5 271.800781 186.523438 273.074219 185.398438 274.125 C 184.273438 275.175781 183 276.074219 181.574219 276.675781 C 180.226562 277.351562 178.648438 277.726562 177.148438 277.949219 C 175.648438 278.101562 174.074219 278.023438 172.574219 277.648438 C 171.074219 277.351562 169.574219 276.75 168.300781 276 C 166.949219 275.175781 165.75 274.125 164.773438 273 C 163.800781 271.800781 162.976562 270.449219 162.375 269.023438 C 161.851562 267.601562 161.476562 266.023438 161.398438 264.523438 C 161.324219 263.023438 161.476562 261.449219 161.925781 259.949219 C 162.300781 258.523438 162.976562 257.023438 163.875 255.824219 C 164.699219 254.550781 165.824219 253.351562 167.023438 252.449219 C 168.226562 251.550781 169.648438 250.800781 171.074219 250.273438 C 172.5 249.824219 173.851562 249.675781 175.648438 249.523438 C 178.125 249.375 180.375 249.523438 184.648438 249.601562 C 195.226562 249.675781 224.476562 249.449219 239.699219 250.351562 C 250.5 251.023438 261.675781 254.699219 267.375 253.351562 C 270.226562 252.675781 271.199219 250.425781 273.226562 249.675781 C 275.101562 249 277.5 248.773438 279.148438 248.773438 C 280.273438 248.851562 281.023438 249 282.074219 249.449219 C 283.574219 250.050781 285.75 251.324219 287.101562 252.75 C 288.449219 254.175781 289.5 256.125 290.023438 258 C 290.550781 259.875 290.550781 262.050781 290.175781 264 C 289.726562 265.875 288.449219 268.050781 287.476562 269.324219 C 286.800781 270.300781 285.300781 271.425781 285.300781 271.425781 " clip-rule="nonzero"/></clipPath><clipPath id="f1755d70b0"><path d="M 32.804688 250.703125 L 72.691406 250.703125 L 72.691406 277.847656 L 32.804688 277.847656 Z M 32.804688 250.703125 " clip-rule="nonzero"/></clipPath><clipPath id="4419bff0da"><path d="M 48.074219 251.023438 C 65.550781 253.125 66.449219 253.726562 67.5 254.550781 C 68.625 255.375 69.601562 256.425781 70.351562 257.550781 C 71.101562 258.675781 71.773438 260.023438 72.074219 261.375 C 72.449219 262.648438 72.601562 264.074219 72.523438 265.5 C 72.449219 266.851562 72.148438 268.273438 71.625 269.550781 C 71.175781 270.824219 70.425781 272.023438 69.523438 273.074219 C 68.625 274.125 67.5 275.101562 66.375 275.773438 C 65.175781 276.449219 63.824219 277.050781 62.476562 277.273438 C 61.199219 277.574219 59.699219 277.648438 58.351562 277.5 C 57 277.351562 55.574219 276.976562 54.375 276.449219 C 53.101562 275.851562 51.898438 275.023438 50.925781 274.125 C 49.949219 273.148438 49.050781 272.023438 48.375 270.75 C 47.773438 269.550781 47.324219 268.199219 47.101562 266.851562 C 46.875 265.5 46.875 264.074219 47.101562 262.726562 C 47.324219 261.375 47.773438 259.949219 48.375 258.75 C 49.050781 257.550781 49.949219 256.425781 50.925781 255.449219 C 51.898438 254.550781 53.101562 253.726562 54.375 253.125 C 55.574219 252.601562 57 252.148438 58.351562 252 C 59.699219 251.851562 61.199219 251.925781 62.476562 252.226562 C 63.824219 252.523438 65.175781 253.050781 66.375 253.800781 C 67.5 254.476562 68.625 255.449219 69.523438 256.5 C 70.425781 257.550781 71.175781 258.75 71.625 260.023438 C 72.148438 261.300781 72.449219 262.726562 72.523438 264.074219 C 72.601562 265.425781 72.449219 266.925781 72.074219 268.199219 C 71.699219 269.550781 71.101562 270.824219 70.351562 271.949219 C 69.601562 273.074219 68.625 274.199219 67.5 275.023438 C 66.449219 275.851562 65.101562 276.523438 63.824219 276.898438 C 62.550781 277.351562 61.5 277.574219 59.773438 277.574219 C 56.625 277.726562 50.476562 277.125 46.875 276.449219 C 44.175781 276 41.699219 275.324219 39.976562 274.574219 C 38.925781 274.050781 38.324219 273.675781 37.425781 272.925781 C 36.300781 271.800781 34.648438 269.851562 33.898438 268.050781 C 33.148438 266.25 32.925781 263.773438 33 262.125 C 33 261 33.148438 260.25 33.601562 259.199219 C 34.273438 257.699219 35.476562 255.523438 36.898438 254.175781 C 38.324219 252.824219 40.199219 251.699219 42.074219 251.25 C 43.949219 250.726562 48.074219 251.023438 48.074219 251.023438 " clip-rule="nonzero"/></clipPath></defs><g clip-path="url(#0076bab535)"><g clip-path="url(#05869aa082)"><g clip-path="url(#ada3c3dd6d)"><g clip-path="url(#470418a38e)"><path fill="#ffcd00" d="M 99.257812 260.828125 C 74.15625 252.167969 52.617188 236.195312 36.945312 214.632812 C -4.964844 156.929688 7.867188 75.859375 65.558594 33.90625 C 87.863281 17.679688 114.199219 9.125 141.707031 9.167969 C 143.808594 9.171875 145.644531 10.582031 146.179688 12.617188 C 146.722656 14.644531 145.828125 16.78125 144.011719 17.832031 C 140.257812 19.988281 136.601562 22.359375 133.132812 24.878906 C 79.578125 63.824219 67.671875 139.085938 106.578125 192.648438 C 121.109375 212.648438 141.105469 227.484375 164.402344 235.519531 C 164.40625 235.523438 164.40625 235.523438 164.40625 235.523438 C 177.035156 239.878906 190.214844 242.09375 203.574219 242.113281 C 205.675781 242.121094 207.511719 243.53125 208.050781 245.566406 C 208.589844 247.589844 207.703125 249.730469 205.878906 250.78125 C 173.539062 269.378906 134.683594 273.050781 99.261719 260.832031 C 99.261719 260.832031 99.257812 260.828125 99.257812 260.828125 Z M 99.257812 260.828125 " fill-opacity="1" fill-rule="evenodd"/></g></g></g></g><g clip-path="url(#6bcf3a37cd)"><g clip-path="url(#8df0c07ee9)"><g clip-path="url(#9da93d60f2)"><g clip-path="url(#00ecd604d3)"><path fill="#ffcd00" d="M 35.382812 6.277344 C 33.453125 5.609375 32.191406 3.765625 32.257812 1.726562 L 33.539062 -35.695312 L 3.300781 -57.761719 C 1.65625 -58.964844 0.996094 -61.101562 1.65625 -63.023438 C 2.320312 -64.945312 4.160156 -66.21875 6.195312 -66.148438 L 43.605469 -64.875 L 65.675781 -95.132812 C 66.878906 -96.78125 69.007812 -97.453125 70.9375 -96.789062 C 72.859375 -96.125 74.128906 -94.28125 74.054688 -92.242188 L 72.769531 -54.8125 L 103.007812 -32.746094 C 104.65625 -31.546875 105.324219 -29.410156 104.664062 -27.488281 C 103.996094 -25.558594 102.15625 -24.296875 100.117188 -24.359375 L 62.703125 -25.632812 L 40.636719 4.621094 C 39.441406 6.269531 37.304688 6.9375 35.382812 6.277344 Z M 263.492188 142.351562 C 261.570312 141.6875 260.300781 139.84375 260.367188 137.804688 L 261.65625 100.375 L 231.417969 78.308594 C 229.765625 77.109375 229.101562 74.972656 229.765625 73.050781 C 230.433594 71.121094 232.273438 69.859375 234.3125 69.921875 L 271.726562 71.195312 L 293.785156 40.933594 C 294.988281 39.292969 297.125 38.625 299.046875 39.289062 C 300.976562 39.953125 302.238281 41.796875 302.175781 43.828125 L 300.882812 81.253906 L 331.121094 103.320312 C 332.765625 104.527344 333.4375 106.65625 332.769531 108.585938 C 332.109375 110.511719 330.261719 111.78125 328.226562 111.707031 L 290.816406 110.433594 L 268.753906 140.695312 C 267.546875 142.34375 265.417969 143.015625 263.492188 142.351562 Z M 168.492188 170.921875 C 167.585938 170.609375 166.769531 170.015625 166.195312 169.191406 L 149.96875 145.878906 L 122.820312 154.226562 C 120.898438 154.8125 118.8125 154.101562 117.65625 152.453125 C 116.507812 150.804688 116.550781 148.59375 117.761719 146.988281 L 134.914062 124.335938 L 118.597656 101.09375 C 117.441406 99.441406 117.480469 97.238281 118.691406 95.628906 C 119.898438 94.023438 122.007812 93.382812 123.910156 94.039062 C 123.910156 94.039062 123.917969 94.042969 123.917969 94.042969 L 150.746094 103.355469 L 167.808594 80.636719 C 169.015625 79.027344 171.128906 78.382812 173.027344 79.035156 C 174.929688 79.691406 176.191406 81.503906 176.152344 83.515625 L 175.582031 111.925781 L 202.441406 121.132812 C 202.449219 121.136719 202.449219 121.136719 202.449219 121.136719 C 204.347656 121.792969 205.617188 123.59375 205.578125 125.601562 C 205.535156 127.617188 204.210938 129.375 202.28125 129.964844 L 175.105469 138.203125 L 174.640625 166.613281 C 174.609375 168.625 173.28125 170.390625 171.351562 170.976562 C 170.394531 171.269531 169.390625 171.234375 168.492188 170.921875 Z M -63.710938 275.664062 C -65.632812 275 -66.902344 273.15625 -66.832031 271.117188 L -65.546875 233.6875 L -95.785156 211.621094 C -97.429688 210.421875 -98.101562 208.285156 -97.4375 206.363281 C -96.773438 204.441406 -94.929688 203.171875 -92.890625 203.234375 L -55.476562 204.507812 L -33.414062 174.253906 C -32.214844 172.605469 -30.078125 171.9375 -28.15625 172.601562 C -26.226562 173.265625 -24.964844 175.109375 -25.03125 177.148438 L -26.320312 214.566406 L 3.925781 236.636719 C 5.570312 237.839844 6.230469 239.976562 5.566406 241.898438 C 4.90625 243.824219 3.066406 245.09375 1.03125 245.023438 L -36.386719 243.746094 L -58.449219 274.007812 C -59.65625 275.65625 -61.785156 276.328125 -63.710938 275.664062 Z M -63.710938 275.664062 " fill-opacity="1" fill-rule="evenodd"/></g></g></g></g><g clip-path="url(#e5079b92fe)"><g clip-path="url(#b9e7a22b89)"><g clip-path="url(#5978a9567e)"><g clip-path="url(#5ef97a9302)"><path fill="#e6b900" d="M 62.214844 219.394531 C 20.300781 161.695312 33.132812 80.625 90.824219 38.671875 C 107.382812 26.632812 126.15625 18.816406 145.988281 15.601562 C 147.105469 12.820312 145.28125 9.171875 141.707031 9.167969 C 114.199219 9.125 87.863281 17.679688 65.558594 33.90625 C 7.867188 75.859375 -4.964844 156.929688 36.945312 214.632812 C 52.617188 236.195312 74.15625 252.167969 99.257812 260.828125 C 109.398438 264.328125 119.828125 266.527344 130.304688 267.441406 C 128.367188 266.871094 126.4375 266.253906 124.515625 265.589844 C 99.421875 256.933594 77.882812 240.960938 62.214844 219.394531 Z M 62.214844 219.394531 " fill-opacity="1" fill-rule="evenodd"/></g></g></g></g><g clip-path="url(#843897a6c2)"><path fill="#a1c6e6" d="M 351.929688 242.132812 C 350.175781 242.640625 348.324219 242.914062 346.40625 242.914062 L 156.160156 242.914062 C 155.988281 242.914062 155.816406 242.910156 155.640625 242.902344 C 155.460938 242.910156 155.28125 242.914062 155.105469 242.914062 C 134.691406 242.914062 118.144531 226.382812 118.144531 206 C 118.144531 185.609375 134.691406 169.085938 155.105469 169.085938 C 159.5625 169.085938 163.832031 169.878906 167.792969 171.320312 C 170.417969 145.515625 192.238281 125.386719 218.765625 125.386719 C 222.023438 125.386719 225.207031 125.6875 228.292969 126.269531 C 240.382812 109.453125 260.128906 98.5 282.4375 98.5 C 319.226562 98.5 349.050781 128.289062 349.050781 165.03125 C 349.050781 170.898438 348.289062 176.59375 346.859375 182.011719 C 362.867188 182.949219 375.5625 196.210938 375.5625 212.4375 C 375.5625 226.902344 365.464844 239.015625 351.929688 242.132812 Z M 351.929688 242.132812 " fill-opacity="1" fill-rule="evenodd"/></g><g clip-path="url(#3097426a04)"><path fill="#c6e0f7" d="M 294.191406 276.695312 C 293.796875 276.722656 293.402344 276.734375 293 276.734375 L 38.660156 276.734375 C 38.484375 276.734375 38.3125 276.734375 38.140625 276.730469 C 37.957031 276.730469 37.777344 276.734375 37.601562 276.734375 C 17.1875 276.734375 0.640625 260.207031 0.640625 239.820312 C 0.640625 219.4375 17.1875 202.90625 37.601562 202.90625 C 42.058594 202.90625 46.332031 203.699219 50.289062 205.144531 C 52.917969 179.339844 74.738281 159.207031 101.261719 159.207031 C 102.132812 159.207031 103.003906 159.226562 103.867188 159.273438 C 114.140625 135.769531 137.617188 119.335938 164.9375 119.335938 C 196.117188 119.335938 222.289062 140.734375 229.546875 169.625 C 234.378906 168.121094 239.519531 167.304688 244.851562 167.304688 C 272.246094 167.304688 294.617188 188.773438 296.019531 215.78125 C 312.710938 215.96875 326.1875 229.539062 326.1875 246.253906 C 326.1875 263.085938 312.523438 276.734375 295.671875 276.734375 C 295.175781 276.734375 294.683594 276.722656 294.191406 276.695312 Z M 294.191406 276.695312 " fill-opacity="1" fill-rule="evenodd"/></g><g clip-path="url(#f936f5b4c4)"><path fill="#78b1e3" d="M 73.488281 258.976562 C 73.488281 258.976562 81.734375 298.894531 61.148438 290.976562 C 40.5625 283.0625 73.488281 258.976562 73.488281 258.976562 Z M 73.488281 258.976562 " fill-opacity="1" fill-rule="evenodd"/></g><g clip-path="url(#87e76809af)"><path fill="#78b1e3" d="M 113.34375 258.976562 C 113.34375 258.976562 121.59375 298.894531 101.007812 290.976562 C 80.421875 283.0625 113.34375 258.976562 113.34375 258.976562 Z M 113.34375 258.976562 " fill-opacity="1" fill-rule="evenodd"/></g><g clip-path="url(#13c3df0c80)"><path fill="#78b1e3" d="M 153.207031 258.976562 C 153.207031 258.976562 161.457031 298.894531 140.867188 290.976562 C 120.285156 283.0625 153.207031 258.976562 153.207031 258.976562 Z M 153.207031 258.976562 " fill-opacity="1" fill-rule="evenodd"/></g><g clip-path="url(#2ab1203e1e)"><path fill="#78b1e3" d="M 193.066406 258.976562 C 193.066406 258.976562 201.316406 298.894531 180.730469 290.976562 C 160.144531 283.0625 193.066406 258.976562 193.066406 258.976562 Z M 193.066406 258.976562 " fill-opacity="1" fill-rule="evenodd"/></g><g clip-path="url(#6f12e4f506)"><path fill="#78b1e3" d="M 232.929688 258.976562 C 232.929688 258.976562 241.175781 298.894531 220.589844 290.976562 C 200.007812 283.0625 232.929688 258.976562 232.929688 258.976562 Z M 232.929688 258.976562 " fill-opacity="1" fill-rule="evenodd"/></g><g clip-path="url(#3025cc445e)"><path fill="#78b1e3" d="M 272.789062 258.976562 C 272.789062 258.976562 281.035156 298.894531 260.453125 290.976562 C 239.863281 283.0625 272.789062 258.976562 272.789062 258.976562 Z M 272.789062 258.976562 " fill-opacity="1" fill-rule="evenodd"/></g><g clip-path="url(#daa205efcb)"><g clip-path="url(#5a1215ef11)"><path fill="#c6e0f7" d="M 39.300781 170.625 L 298.5 170.625 L 298.5 228.226562 L 39.300781 228.226562 Z M 39.300781 170.625 " fill-opacity="1" fill-rule="nonzero"/></g></g><g clip-path="url(#2688606a92)"><g clip-path="url(#87183c280c)"><path fill="#c6e0f7" d="M 202.574219 179.324219 L 248.773438 179.324219 L 248.773438 225.523438 L 202.574219 225.523438 Z M 202.574219 179.324219 " fill-opacity="1" fill-rule="nonzero"/></g></g><g clip-path="url(#2c113cb0c2)"><g clip-path="url(#286360b067)"><path fill="#c6e0f7" d="M 121.351562 178.726562 L 167.550781 178.726562 L 167.550781 224.925781 L 121.351562 224.925781 Z M 121.351562 178.726562 " fill-opacity="1" fill-rule="nonzero"/></g></g><g clip-path="url(#13991108d3)"><g clip-path="url(#0194d58950)"><path fill="#c6e0f7" d="M 96.226562 207 L 115.648438 207 L 115.648438 226.425781 L 96.226562 226.425781 Z M 96.226562 207 " fill-opacity="1" fill-rule="nonzero"/></g></g><g clip-path="url(#56b9488102)"><g clip-path="url(#ebc8b71074)"><path fill="#c6e0f7" d="M 88.199219 207 L 107.625 207 L 107.625 226.425781 L 88.199219 226.425781 Z M 88.199219 207 " fill-opacity="1" fill-rule="nonzero"/></g></g><g clip-path="url(#6a9db24167)"><g clip-path="url(#a49dca675d)"><path fill="#c6e0f7" d="M 60.523438 206.398438 L 79.949219 206.398438 L 79.949219 225.824219 L 60.523438 225.824219 Z M 60.523438 206.398438 " fill-opacity="1" fill-rule="nonzero"/></g></g><g clip-path="url(#80813b8f97)"><g clip-path="url(#4206c830d0)"><path fill="#c6e0f7" d="M 51.300781 206.398438 L 70.726562 206.398438 L 70.726562 225.824219 L 51.300781 225.824219 Z M 51.300781 206.398438 " fill-opacity="1" fill-rule="nonzero"/></g></g><g clip-path="url(#fc14268c63)"><g clip-path="url(#33329a8006)"><path fill="#c6e0f7" d="M 61.050781 206.398438 L 80.476562 206.398438 L 80.476562 225.824219 L 61.050781 225.824219 Z M 61.050781 206.398438 " fill-opacity="1" fill-rule="nonzero"/></g></g><g clip-path="url(#1688259b61)"><g clip-path="url(#a959b6be03)"><path fill="#c6e0f7" d="M 52.425781 206.398438 L 71.851562 206.398438 L 71.851562 225.824219 L 52.425781 225.824219 Z M 52.425781 206.398438 " fill-opacity="1" fill-rule="nonzero"/></g></g><g clip-path="url(#4446497b7f)"><g clip-path="url(#f09863749a)"><path fill="#c6e0f7" d="M 61.648438 207 L 81.074219 207 L 81.074219 226.425781 L 61.648438 226.425781 Z M 61.648438 207 " fill-opacity="1" fill-rule="nonzero"/></g></g><g clip-path="url(#fa26d68849)"><g clip-path="url(#1367867632)"><path fill="#c6e0f7" d="M 50.175781 205.800781 L 69.601562 205.800781 L 69.601562 225.226562 L 50.175781 225.226562 Z M 50.175781 205.800781 " fill-opacity="1" fill-rule="nonzero"/></g></g><g clip-path="url(#b9899635f4)"><g clip-path="url(#4bd3b601e4)"><path fill="#c6e0f7" d="M 50.175781 205.273438 L 69.601562 205.273438 L 69.601562 224.699219 L 50.175781 224.699219 Z M 50.175781 205.273438 " fill-opacity="1" fill-rule="nonzero"/></g></g><g clip-path="url(#c8f007d20b)"><g clip-path="url(#eb3ac729b2)"><path fill="#c6e0f7" d="M 102 207 L 121.425781 207 L 121.425781 226.425781 L 102 226.425781 Z M 102 207 " fill-opacity="1" fill-rule="nonzero"/></g></g><g clip-path="url(#62eeb097c1)"><g clip-path="url(#f3338e84fa)"><path fill="#c6e0f7" d="M 133.648438 207 L 153.074219 207 L 153.074219 226.425781 L 133.648438 226.425781 Z M 133.648438 207 " fill-opacity="1" fill-rule="nonzero"/></g></g><g clip-path="url(#c57a9be02e)"><g clip-path="url(#fb87432472)"><path fill="#c6e0f7" d="M 142.875 207.523438 L 162.300781 207.523438 L 162.300781 226.949219 L 142.875 226.949219 Z M 142.875 207.523438 " fill-opacity="1" fill-rule="nonzero"/></g></g><g clip-path="url(#a3c58918f5)"><g clip-path="url(#4146d4f086)"><path fill="#c6e0f7" d="M 212.023438 207 L 231.449219 207 L 231.449219 226.425781 L 212.023438 226.425781 Z M 212.023438 207 " fill-opacity="1" fill-rule="nonzero"/></g></g><g clip-path="url(#5cb349ca8b)"><g clip-path="url(#5c0139e101)"><path fill="#c6e0f7" d="M 225.898438 207 L 245.324219 207 L 245.324219 226.425781 L 225.898438 226.425781 Z M 225.898438 207 " fill-opacity="1" fill-rule="nonzero"/></g></g><g clip-path="url(#da5ee0dd7e)"><g clip-path="url(#c71bca3f83)"><path fill="#ffffff" d="M 242.773438 300.898438 L 249.53125 300.898438 L 249.53125 307.425781 L 242.773438 307.425781 Z M 242.773438 300.898438 " fill-opacity="1" fill-rule="nonzero"/></g></g><g clip-path="url(#79cc97f6f1)"><g clip-path="url(#90ad863d86)"><path fill="#ffffff" d="M 362.101562 61.574219 L 378.601562 61.574219 L 378.601562 92.125 L 362.101562 92.125 Z M 362.101562 61.574219 " fill-opacity="1" fill-rule="nonzero"/></g></g><g clip-path="url(#5a14a0b2f9)"><g clip-path="url(#06a29371fb)"><path fill="#f0f8ff" d="M 100.351562 218.101562 L 118.871094 218.101562 L 118.871094 226.273438 L 100.351562 226.273438 Z M 100.351562 218.101562 " fill-opacity="1" fill-rule="nonzero"/></g></g><g clip-path="url(#9f9f5d6174)"><g clip-path="url(#529140880b)"><path fill="#c6e0f7" d="M 93 217.648438 L 121.289062 217.648438 L 121.289062 226.726562 L 93 226.726562 Z M 93 217.648438 " fill-opacity="1" fill-rule="nonzero"/></g></g><g clip-path="url(#f69eb9ba11)"><g clip-path="url(#2a0842d9cc)"><path fill="#c6e0f7" d="M 50.023438 219.148438 L 86.835938 219.148438 L 86.835938 227.476562 L 50.023438 227.476562 Z M 50.023438 219.148438 " fill-opacity="1" fill-rule="nonzero"/></g></g><g clip-path="url(#2fde4b550c)"><g clip-path="url(#9e42fbb364)"><path fill="#c6e0f7" d="M 53.925781 216.601562 L 74.464844 216.601562 L 74.464844 226.125 L 53.925781 226.125 Z M 53.925781 216.601562 " fill-opacity="1" fill-rule="nonzero"/></g></g><g clip-path="url(#8ba14f35c8)"><g clip-path="url(#043ab83ce3)"><path fill="#c6e0f7" d="M 61.5 217.574219 L 71.265625 217.574219 L 71.265625 225.148438 L 61.5 225.148438 Z M 61.5 217.574219 " fill-opacity="1" fill-rule="nonzero"/></g></g><g clip-path="url(#28c5982a1f)"><g clip-path="url(#0f38f51e35)"><path fill="#c6e0f7" d="M 102.976562 219.375 L 116.851562 219.375 L 116.851562 226.949219 L 102.976562 226.949219 Z M 102.976562 219.375 " fill-opacity="1" fill-rule="nonzero"/></g></g><g clip-path="url(#38500d274a)"><g clip-path="url(#fe68f7c42b)"><path fill="#c6e0f7" d="M 91.050781 220.425781 L 117.089844 220.425781 L 117.089844 228.675781 L 91.050781 228.675781 Z M 91.050781 220.425781 " fill-opacity="1" fill-rule="nonzero"/></g></g><g clip-path="url(#ac15b545fa)"><g clip-path="url(#4df07fee6c)"><path fill="#c6e0f7" d="M 130.949219 214.574219 L 167.449219 214.574219 L 167.449219 228 L 130.949219 228 Z M 130.949219 214.574219 " fill-opacity="1" fill-rule="nonzero"/></g></g><g clip-path="url(#a6d57308dc)"><g clip-path="url(#d073e5e53c)"><path fill="#c6e0f7" d="M 189.523438 221.101562 L 196.941406 221.101562 L 196.941406 228.375 L 189.523438 228.375 Z M 189.523438 221.101562 " fill-opacity="1" fill-rule="nonzero"/></g></g><g clip-path="url(#475e2e2f4d)"><g clip-path="url(#1bc8536e1a)"><path fill="#c6e0f7" d="M 188.101562 219.976562 L 195.515625 219.976562 L 195.515625 227.25 L 188.101562 227.25 Z M 188.101562 219.976562 " fill-opacity="1" fill-rule="nonzero"/></g></g><g clip-path="url(#c89ef2378f)"><g clip-path="url(#2550cfd815)"><path fill="#c6e0f7" d="M 202.050781 217.726562 L 236.011719 217.726562 L 236.011719 226.351562 L 202.050781 226.351562 Z M 202.050781 217.726562 " fill-opacity="1" fill-rule="nonzero"/></g></g><g clip-path="url(#e772474c25)"><g clip-path="url(#c265d875cf)"><path fill="#c6e0f7" d="M 208.726562 219 L 279.4375 219 L 279.4375 229.351562 L 208.726562 229.351562 Z M 208.726562 219 " fill-opacity="1" fill-rule="nonzero"/></g></g><g clip-path="url(#0f8fe98ae9)"><g clip-path="url(#ba730baf04)"><path fill="#c6e0f7" d="M 187.574219 220.199219 L 198.0625 220.199219 L 198.0625 227.699219 L 187.574219 227.699219 Z M 187.574219 220.199219 " fill-opacity="1" fill-rule="nonzero"/></g></g><g clip-path="url(#224843add3)"><g clip-path="url(#ffeaa2d775)"><path fill="#c6e0f7" d="M 141.148438 221.101562 L 156.683594 221.101562 L 156.683594 228.675781 L 141.148438 228.675781 Z M 141.148438 221.101562 " fill-opacity="1" fill-rule="nonzero"/></g></g><g clip-path="url(#e2a441ed43)"><g clip-path="url(#741dd61296)"><path fill="#c6e0f7" d="M 56.324219 218.476562 L 71.617188 218.476562 L 71.617188 225.976562 L 56.324219 225.976562 Z M 56.324219 218.476562 " fill-opacity="1" fill-rule="nonzero"/></g></g><g clip-path="url(#fa81efbc47)"><g clip-path="url(#d4cfeb9ff3)"><path fill="#c6e0f7" d="M 125.175781 216.75 L 146.761719 216.75 L 146.761719 225.824219 L 125.175781 225.824219 Z M 125.175781 216.75 " fill-opacity="1" fill-rule="nonzero"/></g></g><g clip-path="url(#edc6bac3c5)"><g clip-path="url(#7c5b68db6f)"><path fill="#c6e0f7" d="M 46.574219 219.148438 L 107.703125 219.148438 L 107.703125 229.5 L 46.574219 229.5 Z M 46.574219 219.148438 " fill-opacity="1" fill-rule="nonzero"/></g></g><g clip-path="url(#3603258cda)"><g clip-path="url(#302c38cd1e)"><path fill="#c6e0f7" d="M 42.226562 235.125 L 290.058594 235.125 L 290.058594 278.851562 L 42.226562 278.851562 Z M 42.226562 235.125 " fill-opacity="1" fill-rule="nonzero"/></g></g><g clip-path="url(#a8a6de6ac3)"><g clip-path="url(#af0886a1ae)"><path fill="#c6e0f7" d="M 158.398438 245.773438 L 293.117188 245.773438 L 293.117188 281.851562 L 158.398438 281.851562 Z M 158.398438 245.773438 " fill-opacity="1" fill-rule="nonzero"/></g></g><g clip-path="url(#f1755d70b0)"><g clip-path="url(#4419bff0da)"><path fill="#c6e0f7" d="M 30 248.023438 L 75.625 248.023438 L 75.625 280.648438 L 30 280.648438 Z M 30 248.023438 " fill-opacity="1" fill-rule="nonzero"/></g></g></svg>