<svg xmlns="http://www.w3.org/2000/svg" xmlns:xlink="http://www.w3.org/1999/xlink" width="500" zoomAndPan="magnify" viewBox="0 0 375 374.999991" height="500" preserveAspectRatio="xMidYMid meet" version="1.0"><defs><clipPath id="b1a85debad"><path d="M 9.550781 37.5 L 249.550781 37.5 L 249.550781 287 L 9.550781 287 Z M 9.550781 37.5 " clip-rule="nonzero"/></clipPath><clipPath id="ca5997cfba"><path d="M 9.550781 184 L 297 184 L 297 351 L 9.550781 351 Z M 9.550781 184 " clip-rule="nonzero"/></clipPath><clipPath id="33bde60463"><path d="M 78 208 L 365.4375 208 L 365.4375 374.710938 L 78 374.710938 Z M 78 208 " clip-rule="nonzero"/></clipPath></defs><g clip-path="url(#b1a85debad)"><path fill="#f0f1f1" d="M 249.480469 209.824219 C 232.464844 221.6875 211.769531 228.644531 189.453125 228.644531 C 131.414062 228.644531 84.363281 181.59375 84.363281 123.554688 C 84.363281 88.007812 102.007812 56.585938 129.015625 37.566406 C 62.574219 40.304688 9.550781 95.03125 9.550781 162.144531 C 9.550781 231.007812 65.375 286.832031 134.238281 286.832031 C 186.210938 286.832031 230.757812 255.03125 249.480469 209.824219 Z M 249.480469 209.824219 " fill-opacity="1" fill-rule="evenodd"/></g><g clip-path="url(#ca5997cfba)"><path fill="#d1cbcb" d="M 190.710938 184.261719 C 191.753906 184.261719 192.796875 184.285156 193.839844 184.339844 C 194.878906 184.390625 195.921875 184.464844 196.957031 184.570312 C 197.996094 184.671875 199.03125 184.796875 200.0625 184.953125 C 201.097656 185.105469 202.125 185.28125 203.148438 185.488281 C 204.171875 185.691406 205.1875 185.917969 206.199219 186.171875 C 207.210938 186.425781 208.21875 186.703125 209.214844 187.007812 C 210.214844 187.308594 211.203125 187.636719 212.1875 187.988281 C 213.167969 188.339844 214.140625 188.714844 215.105469 189.113281 C 216.070312 189.515625 217.023438 189.9375 217.964844 190.382812 C 218.910156 190.828125 219.839844 191.296875 220.761719 191.789062 C 221.683594 192.28125 222.589844 192.796875 223.484375 193.332031 C 224.378906 193.867188 225.261719 194.425781 226.128906 195.003906 C 226.996094 195.585938 227.847656 196.1875 228.6875 196.808594 C 229.523438 197.429688 230.347656 198.070312 231.152344 198.734375 C 231.960938 199.394531 232.75 200.074219 233.523438 200.777344 C 234.292969 201.476562 235.050781 202.195312 235.789062 202.933594 C 236.527344 203.671875 237.246094 204.425781 237.945312 205.199219 C 238.644531 205.972656 239.328125 206.761719 239.988281 207.570312 C 240.652344 208.375 241.292969 209.199219 241.914062 210.035156 C 242.535156 210.875 243.136719 211.726562 243.714844 212.59375 C 244.296875 213.460938 244.855469 214.34375 245.390625 215.238281 C 245.925781 216.132812 246.441406 217.039062 246.933594 217.960938 C 247.425781 218.878906 247.894531 219.8125 248.339844 220.753906 C 248.785156 221.699219 249.207031 222.652344 249.605469 223.617188 C 250.007812 224.578125 250.382812 225.550781 250.734375 226.535156 C 251.085938 227.515625 251.410156 228.507812 251.714844 229.507812 C 252.019531 230.503906 252.296875 231.507812 252.550781 232.523438 C 252.804688 233.535156 253.03125 234.550781 253.234375 235.574219 C 253.4375 236.597656 253.617188 237.625 253.769531 238.65625 C 253.921875 239.6875 254.050781 240.722656 254.152344 241.761719 C 254.253906 242.800781 254.332031 243.839844 254.382812 244.882812 C 254.433594 245.925781 254.460938 246.96875 254.460938 248.011719 C 254.445312 250.371094 254.300781 252.722656 254.023438 255.066406 C 278.070312 259.386719 296.105469 278.804688 296.105469 302.25 C 296.105469 328.886719 272.824219 350.332031 243.90625 350.332031 L 57.636719 350.332031 C 31 350.332031 9.554688 330.398438 9.554688 305.636719 C 9.554688 281.035156 30.734375 261.207031 57.140625 260.960938 C 57.351562 259.308594 57.632812 257.671875 57.988281 256.050781 C 58.347656 254.425781 58.777344 252.820312 59.277344 251.234375 C 59.78125 249.652344 60.351562 248.089844 60.996094 246.558594 C 61.636719 245.023438 62.347656 243.523438 63.128906 242.054688 C 63.90625 240.585938 64.75 239.152344 65.65625 237.761719 C 66.566406 236.367188 67.535156 235.019531 68.5625 233.710938 C 69.59375 232.40625 70.679688 231.148438 71.824219 229.941406 C 72.964844 228.734375 74.160156 227.582031 75.410156 226.484375 C 76.65625 225.382812 77.949219 224.34375 79.292969 223.359375 C 80.632812 222.378906 82.015625 221.457031 83.441406 220.601562 C 84.867188 219.742188 86.324219 218.953125 87.820312 218.226562 C 89.316406 217.5 90.84375 216.84375 92.398438 216.257812 C 93.953125 215.667969 95.535156 215.152344 97.136719 214.707031 C 98.738281 214.261719 100.355469 213.890625 101.992188 213.59375 C 103.628906 213.292969 105.273438 213.070312 106.929688 212.917969 C 108.585938 212.769531 110.246094 212.695312 111.90625 212.695312 C 119.847656 212.707031 127.433594 214.355469 134.664062 217.640625 C 136.023438 215.125 137.546875 212.714844 139.234375 210.410156 C 140.917969 208.101562 142.75 205.917969 144.730469 203.855469 C 146.710938 201.796875 148.816406 199.875 151.054688 198.097656 C 153.292969 196.320312 155.640625 194.699219 158.09375 193.238281 C 160.550781 191.777344 163.089844 190.484375 165.71875 189.363281 C 168.347656 188.246094 171.039062 187.304688 173.796875 186.546875 C 176.550781 185.789062 179.34375 185.21875 182.175781 184.835938 C 185.007812 184.453125 187.851562 184.261719 190.710938 184.261719 Z M 190.710938 184.261719 " fill-opacity="1" fill-rule="nonzero"/></g><g clip-path="url(#33bde60463)"><path fill="#f0f1f1" d="M 260.015625 208.25 C 261.058594 208.25 262.101562 208.277344 263.144531 208.328125 C 264.183594 208.378906 265.226562 208.457031 266.265625 208.558594 C 267.300781 208.660156 268.335938 208.789062 269.371094 208.941406 C 270.402344 209.09375 271.429688 209.273438 272.453125 209.476562 C 273.476562 209.679688 274.492188 209.910156 275.503906 210.164062 C 276.515625 210.414062 277.523438 210.695312 278.519531 210.996094 C 279.519531 211.300781 280.507812 211.628906 281.492188 211.980469 C 282.472656 212.332031 283.449219 212.707031 284.410156 213.105469 C 285.375 213.503906 286.328125 213.925781 287.273438 214.371094 C 288.214844 214.820312 289.148438 215.289062 290.066406 215.78125 C 290.988281 216.273438 291.894531 216.785156 292.789062 217.320312 C 293.683594 217.859375 294.566406 218.417969 295.433594 218.996094 C 296.300781 219.574219 297.152344 220.175781 297.992188 220.796875 C 298.828125 221.417969 299.652344 222.0625 300.457031 222.722656 C 301.265625 223.382812 302.054688 224.066406 302.828125 224.765625 C 303.601562 225.46875 304.355469 226.1875 305.09375 226.925781 C 305.832031 227.660156 306.550781 228.417969 307.25 229.191406 C 307.953125 229.964844 308.632812 230.753906 309.292969 231.558594 C 309.957031 232.367188 310.597656 233.1875 311.21875 234.027344 C 311.839844 234.863281 312.441406 235.71875 313.019531 236.585938 C 313.601562 237.453125 314.160156 238.332031 314.695312 239.226562 C 315.230469 240.121094 315.746094 241.03125 316.238281 241.949219 C 316.730469 242.871094 317.199219 243.800781 317.644531 244.746094 C 318.089844 245.6875 318.511719 246.640625 318.914062 247.605469 C 319.3125 248.570312 319.6875 249.542969 320.039062 250.523438 C 320.390625 251.507812 320.71875 252.496094 321.019531 253.496094 C 321.324219 254.496094 321.601562 255.5 321.855469 256.511719 C 322.109375 257.523438 322.335938 258.542969 322.539062 259.566406 C 322.742188 260.589844 322.921875 261.617188 323.074219 262.648438 C 323.226562 263.679688 323.355469 264.714844 323.457031 265.753906 C 323.558594 266.792969 323.636719 267.832031 323.6875 268.875 C 323.738281 269.914062 323.765625 270.957031 323.765625 272 C 323.75 274.363281 323.605469 276.714844 323.332031 279.058594 C 347.375 283.375 365.410156 302.792969 365.410156 326.238281 C 365.410156 352.875 342.128906 374.320312 313.210938 374.320312 L 126.941406 374.320312 C 100.304688 374.320312 78.863281 354.386719 78.863281 329.628906 C 78.863281 305.023438 100.042969 285.195312 126.445312 284.949219 C 126.65625 283.300781 126.9375 281.664062 127.296875 280.039062 C 127.652344 278.414062 128.082031 276.8125 128.582031 275.226562 C 129.085938 273.640625 129.65625 272.082031 130.300781 270.546875 C 130.945312 269.015625 131.652344 267.511719 132.433594 266.042969 C 133.210938 264.574219 134.054688 263.144531 134.960938 261.75 C 135.871094 260.359375 136.839844 259.007812 137.867188 257.703125 C 138.898438 256.398438 139.984375 255.140625 141.128906 253.933594 C 142.269531 252.726562 143.464844 251.574219 144.714844 250.472656 C 145.960938 249.375 147.253906 248.332031 148.597656 247.351562 C 149.9375 246.367188 151.320312 245.449219 152.746094 244.589844 C 154.171875 243.734375 155.632812 242.941406 157.128906 242.214844 C 158.625 241.492188 160.148438 240.835938 161.703125 240.246094 C 163.261719 239.660156 164.839844 239.144531 166.441406 238.699219 C 168.042969 238.253906 169.660156 237.882812 171.296875 237.582031 C 172.933594 237.285156 174.578125 237.058594 176.234375 236.910156 C 177.890625 236.757812 179.550781 236.683594 181.214844 236.683594 C 189.152344 236.695312 196.738281 238.34375 203.96875 241.628906 C 205.328125 239.117188 206.851562 236.707031 208.539062 234.398438 C 210.222656 232.09375 212.054688 229.90625 214.035156 227.847656 C 216.015625 225.785156 218.125 223.867188 220.359375 222.089844 C 222.597656 220.3125 224.945312 218.691406 227.398438 217.230469 C 229.855469 215.765625 232.394531 214.476562 235.023438 213.355469 C 237.652344 212.234375 240.347656 211.296875 243.101562 210.539062 C 245.855469 209.777344 248.648438 209.207031 251.480469 208.824219 C 254.3125 208.441406 257.15625 208.25 260.015625 208.25 Z M 260.015625 208.25 " fill-opacity="1" fill-rule="nonzero"/></g></svg>