<svg xmlns="http://www.w3.org/2000/svg" xmlns:xlink="http://www.w3.org/1999/xlink" width="500" zoomAndPan="magnify" viewBox="0 0 375 374.999991" height="500" preserveAspectRatio="xMidYMid meet" version="1.0"><defs><clipPath id="b647740885"><path d="M 117 46.328125 L 375 46.328125 L 375 191 L 117 191 Z M 117 46.328125 " clip-rule="nonzero"/></clipPath></defs><g clip-path="url(#b647740885)"><path fill="#a1c6e6" d="M 351.328125 189.957031 C 349.578125 190.464844 347.722656 190.738281 345.808594 190.738281 L 155.558594 190.738281 C 155.390625 190.738281 155.214844 190.734375 155.039062 190.730469 C 154.859375 190.734375 154.683594 190.738281 154.503906 190.738281 C 134.089844 190.738281 117.546875 174.210938 117.546875 153.824219 C 117.546875 133.433594 134.089844 116.910156 154.503906 116.910156 C 158.960938 116.910156 163.234375 117.703125 167.191406 119.148438 C 169.816406 93.34375 191.636719 73.210938 218.164062 73.210938 C 221.421875 73.210938 224.605469 73.511719 227.691406 74.09375 C 239.785156 57.277344 259.527344 46.324219 281.835938 46.324219 C 318.625 46.324219 348.449219 76.113281 348.449219 112.855469 C 348.449219 118.722656 347.6875 124.417969 346.257812 129.835938 C 362.269531 130.777344 374.960938 144.035156 374.960938 160.261719 C 374.960938 174.726562 364.867188 186.839844 351.328125 189.957031 Z M 351.328125 189.957031 " fill-opacity="1" fill-rule="evenodd"/></g><path fill="#c6e0f7" d="M 293.589844 224.523438 C 293.195312 224.546875 292.800781 224.558594 292.402344 224.558594 L 38.058594 224.558594 C 37.886719 224.558594 37.710938 224.558594 37.542969 224.554688 C 37.359375 224.554688 37.179688 224.558594 37 224.558594 C 16.585938 224.558594 0.0429688 208.035156 0.0429688 187.644531 C 0.0429688 167.261719 16.585938 150.730469 37 150.730469 C 41.460938 150.730469 45.734375 151.523438 49.691406 152.96875 C 52.320312 127.164062 74.136719 107.03125 100.664062 107.03125 C 101.535156 107.03125 102.402344 107.054688 103.265625 107.097656 C 113.542969 83.59375 137.019531 67.164062 164.335938 67.164062 C 195.515625 67.164062 221.691406 88.558594 228.949219 117.453125 C 233.78125 115.945312 238.917969 115.132812 244.25 115.132812 C 271.644531 115.132812 294.015625 136.601562 295.421875 163.605469 C 312.109375 163.792969 325.585938 177.363281 325.585938 194.082031 C 325.585938 210.914062 311.925781 224.558594 295.070312 224.558594 C 294.574219 224.558594 294.082031 224.546875 293.589844 224.523438 Z M 293.589844 224.523438 " fill-opacity="1" fill-rule="evenodd"/><path fill="#78b1e3" d="M 72.886719 206.800781 C 72.886719 206.800781 81.136719 246.71875 60.546875 238.804688 C 39.960938 230.890625 72.886719 206.800781 72.886719 206.800781 Z M 72.886719 206.800781 " fill-opacity="1" fill-rule="evenodd"/><path fill="#78b1e3" d="M 112.746094 206.800781 C 112.746094 206.800781 120.992188 246.71875 100.410156 238.804688 C 79.820312 230.890625 112.746094 206.800781 112.746094 206.800781 Z M 112.746094 206.800781 " fill-opacity="1" fill-rule="evenodd"/><path fill="#78b1e3" d="M 152.609375 206.800781 C 152.609375 206.800781 160.855469 246.71875 140.269531 238.804688 C 119.683594 230.890625 152.609375 206.800781 152.609375 206.800781 Z M 152.609375 206.800781 " fill-opacity="1" fill-rule="evenodd"/><path fill="#78b1e3" d="M 192.46875 206.800781 C 192.46875 206.800781 200.714844 246.71875 180.132812 238.804688 C 159.542969 230.890625 192.46875 206.800781 192.46875 206.800781 Z M 192.46875 206.800781 " fill-opacity="1" fill-rule="evenodd"/><path fill="#78b1e3" d="M 232.328125 206.800781 C 232.328125 206.800781 240.578125 246.71875 219.988281 238.804688 C 199.40625 230.890625 232.328125 206.800781 232.328125 206.800781 Z M 232.328125 206.800781 " fill-opacity="1" fill-rule="evenodd"/><path fill="#78b1e3" d="M 272.1875 206.800781 C 272.1875 206.800781 280.4375 246.71875 259.851562 238.804688 C 239.265625 230.890625 272.1875 206.800781 272.1875 206.800781 Z M 272.1875 206.800781 " fill-opacity="1" fill-rule="evenodd"/><path fill="#78b1e3" d="M 89.460938 248.371094 C 89.460938 248.371094 97.714844 288.289062 77.125 280.371094 C 56.539062 272.457031 89.460938 248.371094 89.460938 248.371094 Z M 89.460938 248.371094 " fill-opacity="1" fill-rule="evenodd"/><path fill="#78b1e3" d="M 129.324219 248.371094 C 129.324219 248.371094 137.574219 288.289062 116.988281 280.371094 C 96.398438 272.457031 129.324219 248.371094 129.324219 248.371094 Z M 129.324219 248.371094 " fill-opacity="1" fill-rule="evenodd"/><path fill="#78b1e3" d="M 169.183594 248.371094 C 169.183594 248.371094 177.433594 288.289062 156.847656 280.371094 C 136.261719 272.457031 169.183594 248.371094 169.183594 248.371094 Z M 169.183594 248.371094 " fill-opacity="1" fill-rule="evenodd"/><path fill="#78b1e3" d="M 209.046875 248.371094 C 209.046875 248.371094 217.292969 288.289062 196.710938 280.371094 C 176.121094 272.457031 209.046875 248.371094 209.046875 248.371094 Z M 209.046875 248.371094 " fill-opacity="1" fill-rule="evenodd"/><path fill="#78b1e3" d="M 248.90625 248.371094 C 248.90625 248.371094 257.15625 288.289062 236.570312 280.371094 C 215.984375 272.457031 248.90625 248.371094 248.90625 248.371094 Z M 248.90625 248.371094 " fill-opacity="1" fill-rule="evenodd"/><path fill="#78b1e3" d="M 101.789062 288.410156 C 101.789062 288.410156 110.039062 328.328125 89.449219 320.417969 C 68.863281 312.496094 101.789062 288.410156 101.789062 288.410156 Z M 101.789062 288.410156 " fill-opacity="1" fill-rule="evenodd"/><path fill="#78b1e3" d="M 141.648438 288.410156 C 141.648438 288.410156 149.894531 328.328125 129.3125 320.417969 C 108.722656 312.496094 141.648438 288.410156 141.648438 288.410156 Z M 141.648438 288.410156 " fill-opacity="1" fill-rule="evenodd"/><path fill="#78b1e3" d="M 181.511719 288.410156 C 181.511719 288.410156 189.757812 328.328125 169.171875 320.417969 C 148.585938 312.496094 181.511719 288.410156 181.511719 288.410156 Z M 181.511719 288.410156 " fill-opacity="1" fill-rule="evenodd"/><path fill="#78b1e3" d="M 221.371094 288.410156 C 221.371094 288.410156 229.617188 328.328125 209.035156 320.417969 C 188.445312 312.496094 221.371094 288.410156 221.371094 288.410156 Z M 221.371094 288.410156 " fill-opacity="1" fill-rule="evenodd"/></svg>