<svg xmlns="http://www.w3.org/2000/svg" xmlns:xlink="http://www.w3.org/1999/xlink" width="500" zoomAndPan="magnify" viewBox="0 0 375 374.999991" height="500" preserveAspectRatio="xMidYMid meet" version="1.0"><defs><clipPath id="0c15636cf6"><path d="M 130 76.328125 L 375 76.328125 L 375 214 L 130 214 Z M 130 76.328125 " clip-rule="nonzero"/></clipPath><clipPath id="6b05362e49"><path d="M 0 175 L 218 175 L 218 298.328125 L 0 298.328125 Z M 0 175 " clip-rule="nonzero"/></clipPath></defs><g clip-path="url(#0c15636cf6)"><path fill="#a1c6e6" d="M 352.507812 212.878906 C 350.839844 213.359375 349.078125 213.617188 347.257812 213.617188 L 166.335938 213.617188 C 166.167969 213.617188 166 213.613281 165.835938 213.609375 C 165.667969 213.613281 165.496094 213.617188 165.324219 213.617188 C 145.914062 213.617188 130.179688 197.902344 130.179688 178.523438 C 130.179688 159.144531 145.914062 143.429688 165.324219 143.429688 C 169.566406 143.429688 173.628906 144.183594 177.390625 145.554688 C 179.894531 121.027344 200.640625 101.882812 225.871094 101.882812 C 228.964844 101.882812 231.996094 102.175781 234.933594 102.730469 C 246.429688 86.738281 265.203125 76.324219 286.421875 76.324219 C 321.40625 76.324219 349.765625 104.640625 349.765625 139.578125 C 349.765625 145.15625 349.042969 150.566406 347.683594 155.722656 C 362.910156 156.609375 374.984375 169.21875 374.984375 184.644531 C 374.984375 198.398438 365.382812 209.910156 352.507812 212.878906 Z M 352.507812 212.878906 " fill-opacity="1" fill-rule="evenodd"/></g><path fill="#c6e0f7" d="M 297.601562 245.738281 C 297.226562 245.757812 296.847656 245.769531 296.46875 245.769531 L 54.589844 245.769531 C 54.425781 245.769531 54.257812 245.769531 54.089844 245.765625 C 53.921875 245.765625 53.75 245.769531 53.578125 245.769531 C 34.167969 245.769531 18.433594 230.058594 18.433594 210.679688 C 18.433594 191.300781 34.171875 175.585938 53.578125 175.585938 C 57.824219 175.585938 61.886719 176.335938 65.648438 177.710938 C 68.148438 153.179688 88.898438 134.039062 114.125 134.039062 C 114.957031 134.039062 115.78125 134.0625 116.601562 134.101562 C 126.375 111.757812 148.699219 96.136719 174.675781 96.136719 C 204.332031 96.136719 229.21875 116.480469 236.121094 143.949219 C 240.714844 142.515625 245.605469 141.738281 250.675781 141.738281 C 276.726562 141.738281 298.003906 162.152344 299.335938 187.824219 C 315.210938 188.003906 328.027344 200.910156 328.027344 216.796875 C 328.027344 232.800781 315.03125 245.769531 299.003906 245.769531 C 298.535156 245.769531 298.066406 245.757812 297.601562 245.738281 Z M 297.601562 245.738281 " fill-opacity="1" fill-rule="evenodd"/><g clip-path="url(#6b05362e49)"><path fill="#78b1e3" d="M 134.527344 175.207031 C 121.179688 175.207031 110.363281 186.011719 110.363281 199.335938 L 110.371094 199.335938 C 110.371094 201.015625 111.734375 202.375 113.410156 202.375 C 115.09375 202.375 116.453125 201.015625 116.453125 199.335938 L 116.460938 199.335938 C 116.460938 189.371094 124.550781 181.292969 134.53125 181.292969 C 144.511719 181.292969 152.601562 189.371094 152.601562 199.335938 C 152.601562 209.300781 144.511719 217.378906 134.53125 217.378906 L 3.0625 217.378906 C 1.386719 217.378906 0.0234375 218.738281 0.0234375 220.414062 C 0.0234375 222.089844 1.386719 223.453125 3.0625 223.453125 L 134.53125 223.453125 L 134.53125 223.464844 C 147.878906 223.464844 158.695312 212.660156 158.695312 199.339844 C 158.695312 186.011719 147.875 175.207031 134.527344 175.207031 Z M 32.101562 262.679688 L 108.328125 262.679688 C 110.003906 262.679688 111.371094 264.046875 111.371094 265.714844 C 111.371094 267.386719 110.003906 268.753906 108.328125 268.753906 L 32.101562 268.753906 C 30.429688 268.753906 29.058594 267.386719 29.058594 265.714844 C 29.058594 264.046875 30.429688 262.679688 32.101562 262.679688 Z M 15.859375 206.492188 L 92.089844 206.492188 C 93.761719 206.492188 95.128906 207.855469 95.128906 209.527344 C 95.128906 211.199219 93.761719 212.566406 92.089844 212.566406 L 15.859375 212.566406 C 14.191406 212.566406 12.820312 211.199219 12.820312 209.527344 C 12.820312 207.855469 14.191406 206.492188 15.859375 206.492188 Z M 174.992188 216.527344 C 174.992188 218.203125 173.628906 219.566406 171.953125 219.566406 C 170.273438 219.566406 168.910156 218.203125 168.910156 216.527344 L 168.90625 216.527344 C 168.90625 203.199219 179.722656 192.402344 193.070312 192.402344 C 206.414062 192.402344 217.238281 203.203125 217.238281 216.527344 C 217.238281 229.851562 206.417969 240.65625 193.070312 240.65625 L 193.070312 240.644531 L 27.6875 240.644531 C 26.011719 240.644531 24.648438 239.285156 24.648438 237.609375 C 24.648438 235.929688 26.011719 234.570312 27.6875 234.570312 L 193.070312 234.570312 C 203.050781 234.570312 211.144531 226.492188 211.144531 216.527344 C 211.144531 206.566406 203.050781 198.488281 193.070312 198.488281 C 183.09375 198.488281 175.003906 206.566406 175.003906 216.527344 Z M 124.492188 271.152344 C 126.171875 271.152344 127.535156 272.511719 127.535156 274.191406 L 127.542969 274.191406 C 127.542969 284.15625 135.636719 292.234375 145.613281 292.234375 C 155.59375 292.234375 163.683594 284.15625 163.683594 274.191406 C 163.683594 264.226562 155.59375 256.148438 145.613281 256.148438 L 14.144531 256.148438 C 12.46875 256.148438 11.105469 254.789062 11.105469 253.113281 C 11.105469 251.433594 12.46875 250.074219 14.144531 250.074219 L 145.613281 250.074219 L 145.613281 250.0625 C 158.960938 250.0625 169.78125 260.867188 169.78125 274.191406 C 169.78125 287.515625 158.960938 298.320312 145.613281 298.320312 C 132.265625 298.320312 121.445312 287.515625 121.445312 274.191406 L 121.453125 274.191406 C 121.453125 272.511719 122.8125 271.152344 124.492188 271.152344 Z M 124.492188 271.152344 " fill-opacity="1" fill-rule="evenodd"/></g></svg>