<svg xmlns="http://www.w3.org/2000/svg" xmlns:xlink="http://www.w3.org/1999/xlink" width="500" zoomAndPan="magnify" viewBox="0 0 375 374.999991" height="500" preserveAspectRatio="xMidYMid meet" version="1.0"><defs><clipPath id="4c21da90cc"><path d="M 179.609375 175.269531 L 195.359375 175.269531 L 195.359375 200.019531 L 179.609375 200.019531 Z M 179.609375 175.269531 " clip-rule="nonzero"/></clipPath><clipPath id="c8b44eb022"><path d="M 185 175.269531 L 195.359375 175.269531 L 195.359375 200.019531 L 185 200.019531 Z M 185 175.269531 " clip-rule="nonzero"/></clipPath><clipPath id="2fc15a2b65"><path d="M 180 175.269531 L 195.359375 175.269531 L 195.359375 200.019531 L 180 200.019531 Z M 180 175.269531 " clip-rule="nonzero"/></clipPath></defs><g clip-path="url(#4c21da90cc)"><path fill="#73c4ee" d="M 195.351562 191.101562 C 195.351562 196.027344 191.828125 200.019531 187.484375 200.019531 C 183.140625 200.019531 179.621094 196.027344 179.621094 191.101562 C 179.621094 187.902344 181.335938 184.945312 182.953125 182.472656 C 184.375 180.304688 186.15625 177.515625 187.484375 175.269531 C 188.574219 177.824219 190.632812 180.398438 192.101562 182.636719 C 193.691406 185.046875 195.351562 187.980469 195.351562 191.101562 " fill-opacity="1" fill-rule="nonzero"/></g><g clip-path="url(#c8b44eb022)"><path fill="#e1f5fd" d="M 187.484375 200.019531 C 187.484375 200.019531 187.480469 200.019531 187.480469 200.019531 C 187.480469 200.019531 187.484375 200.019531 187.484375 200.019531 C 191.828125 200.019531 195.351562 196.027344 195.351562 191.101562 C 195.351562 196.027344 191.828125 200.019531 187.484375 200.019531 M 187.476562 200.019531 C 187.476562 200.019531 187.476562 200.019531 187.472656 200.019531 C 187.476562 200.019531 187.476562 200.019531 187.476562 200.019531 M 187.472656 200.019531 C 187.46875 200.019531 187.464844 200.019531 187.460938 200.019531 C 187.464844 200.019531 187.46875 200.019531 187.472656 200.019531 M 187.457031 200.019531 C 187.457031 200.019531 187.457031 200.019531 187.453125 200.019531 C 187.457031 200.019531 187.457031 200.019531 187.457031 200.019531 M 187.453125 200.019531 C 187.449219 200.019531 187.449219 200.019531 187.449219 200.019531 C 187.449219 200.019531 187.449219 200.019531 187.453125 200.019531 M 187.445312 200.019531 C 187.445312 200.019531 187.441406 200.019531 187.441406 200.019531 C 187.441406 200.019531 187.445312 200.019531 187.445312 200.019531 M 187.441406 200.019531 C 187.4375 200.019531 187.4375 200.019531 187.4375 200.019531 C 187.4375 200.019531 187.4375 200.019531 187.441406 200.019531 M 187.433594 200.019531 C 187.433594 200.019531 187.429688 200.019531 187.429688 200.019531 C 187.429688 200.019531 187.433594 200.019531 187.433594 200.019531 M 187.429688 200.019531 C 187.425781 200.019531 187.425781 200.019531 187.421875 200.019531 C 187.425781 200.019531 187.425781 200.019531 187.429688 200.019531 M 187.421875 200.019531 C 187.417969 200.019531 187.417969 200.019531 187.417969 200.019531 C 187.417969 200.019531 187.417969 200.019531 187.421875 200.019531 M 187.414062 200.019531 C 187.414062 200.019531 187.410156 200.019531 187.410156 200.019531 C 187.410156 200.019531 187.414062 200.019531 187.414062 200.019531 M 187.410156 200.019531 C 187.40625 200.019531 187.40625 200.019531 187.402344 200.019531 C 187.40625 200.019531 187.40625 200.019531 187.410156 200.019531 M 187.402344 200.019531 C 187.398438 200.019531 187.398438 200.019531 187.398438 200.019531 C 187.398438 200.019531 187.398438 200.019531 187.402344 200.019531 M 187.394531 200.019531 C 187.394531 200.019531 187.390625 200.019531 187.390625 200.019531 C 187.390625 200.019531 187.394531 200.019531 187.394531 200.019531 M 187.390625 200.015625 C 187.386719 200.015625 187.386719 200.015625 187.382812 200.015625 C 187.386719 200.015625 187.386719 200.015625 187.390625 200.015625 M 187.382812 200.015625 C 187.382812 200.015625 187.378906 200.015625 187.378906 200.015625 C 187.378906 200.015625 187.382812 200.015625 187.382812 200.015625 M 187.375 200.015625 C 187.375 200.015625 187.375 200.015625 187.371094 200.015625 C 187.375 200.015625 187.375 200.015625 187.375 200.015625 M 187.371094 200.015625 C 187.367188 200.015625 187.367188 200.015625 187.363281 200.015625 C 187.367188 200.015625 187.367188 200.015625 187.371094 200.015625 M 187.363281 200.015625 C 187.363281 200.015625 187.359375 200.015625 187.359375 200.015625 C 187.359375 200.015625 187.363281 200.015625 187.363281 200.015625 M 187.355469 200.015625 C 187.355469 200.015625 187.355469 200.015625 187.351562 200.015625 C 187.355469 200.015625 187.355469 200.015625 187.355469 200.015625 M 187.351562 200.015625 C 187.351562 200.015625 187.347656 200.015625 187.347656 200.015625 C 187.347656 200.015625 187.351562 200.015625 187.351562 200.015625 M 187.34375 200.015625 C 187.34375 200.015625 187.339844 200.015625 187.339844 200.015625 C 187.339844 200.015625 187.34375 200.015625 187.34375 200.015625 M 187.339844 200.015625 C 187.335938 200.015625 187.335938 200.015625 187.335938 200.015625 C 187.335938 200.015625 187.335938 200.015625 187.339844 200.015625 M 187.332031 200.015625 C 187.332031 200.015625 187.328125 200.015625 187.328125 200.015625 C 187.328125 200.015625 187.332031 200.015625 187.332031 200.015625 M 187.324219 200.015625 C 187.324219 200.015625 187.324219 200.015625 187.320312 200.015625 C 187.324219 200.015625 187.324219 200.015625 187.324219 200.015625 M 187.320312 200.015625 C 187.316406 200.015625 187.316406 200.015625 187.316406 200.015625 C 187.316406 200.015625 187.316406 200.015625 187.320312 200.015625 M 187.3125 200.015625 C 187.3125 200.015625 187.308594 200.015625 187.308594 200.015625 C 187.308594 200.015625 187.3125 200.015625 187.3125 200.015625 M 187.304688 200.015625 C 187.304688 200.015625 187.304688 200.015625 187.300781 200.015625 C 187.304688 200.015625 187.304688 200.015625 187.304688 200.015625 M 187.300781 200.015625 C 187.300781 200.015625 187.296875 200.015625 187.296875 200.015625 C 187.296875 200.015625 187.300781 200.015625 187.300781 200.015625 M 187.292969 200.015625 C 187.292969 200.015625 187.289062 200.015625 187.289062 200.015625 C 187.289062 200.015625 187.292969 200.015625 187.292969 200.015625 M 187.289062 200.015625 C 187.285156 200.015625 187.285156 200.015625 187.285156 200.015625 C 187.285156 200.015625 187.285156 200.015625 187.289062 200.015625 M 187.28125 200.015625 C 187.28125 200.015625 187.277344 200.015625 187.277344 200.015625 C 187.277344 200.015625 187.28125 200.015625 187.28125 200.015625 M 187.277344 200.015625 C 187.273438 200.015625 187.273438 200.015625 187.269531 200.015625 C 187.273438 200.015625 187.273438 200.015625 187.277344 200.015625 M 187.269531 200.015625 C 187.265625 200.015625 187.265625 200.015625 187.265625 200.015625 C 187.265625 200.015625 187.265625 200.015625 187.269531 200.015625 M 187.261719 200.015625 C 187.261719 200.015625 187.261719 200.015625 187.257812 200.015625 C 187.257812 200.015625 187.261719 200.015625 187.261719 200.015625 M 187.257812 200.015625 C 187.253906 200.015625 187.253906 200.015625 187.25 200.015625 C 187.253906 200.015625 187.253906 200.015625 187.257812 200.015625 M 187.25 200.015625 C 187.246094 200.015625 187.246094 200.015625 187.246094 200.015625 C 187.246094 200.015625 187.246094 200.015625 187.25 200.015625 M 187.242188 200.015625 C 187.242188 200.015625 187.242188 200.015625 187.238281 200.015625 C 187.242188 200.015625 187.242188 200.015625 187.242188 200.015625 M 187.238281 200.015625 C 187.234375 200.015625 187.234375 200.015625 187.234375 200.011719 C 187.234375 200.015625 187.234375 200.015625 187.238281 200.015625 M 187.230469 200.011719 C 187.230469 200.011719 187.226562 200.011719 187.226562 200.011719 C 187.226562 200.011719 187.230469 200.011719 187.230469 200.011719 M 187.222656 200.011719 L 187.222656 200.011719 M 187.21875 200.011719 C 187.214844 200.011719 187.214844 200.011719 187.214844 200.011719 C 187.214844 200.011719 187.21875 200.011719 187.21875 200.011719 M 187.210938 200.011719 C 187.210938 200.011719 187.207031 200.011719 187.207031 200.011719 C 187.207031 200.011719 187.210938 200.011719 187.210938 200.011719 M 187.203125 200.011719 L 187.203125 200.011719 M 187.199219 200.011719 C 187.199219 200.011719 187.195312 200.011719 187.195312 200.011719 C 187.195312 200.011719 187.199219 200.011719 187.199219 200.011719 M 187.191406 200.011719 C 187.191406 200.011719 187.191406 200.011719 187.1875 200.011719 C 187.191406 200.011719 187.191406 200.011719 187.191406 200.011719 M 187.1875 200.011719 C 187.183594 200.011719 187.183594 200.011719 187.183594 200.011719 C 187.183594 200.011719 187.183594 200.011719 187.1875 200.011719 M 187.179688 200.011719 C 187.179688 200.011719 187.179688 200.011719 187.175781 200.011719 C 187.179688 200.011719 187.179688 200.011719 187.179688 200.011719 M 187.171875 200.011719 C 187.171875 200.011719 187.171875 200.011719 187.167969 200.011719 C 187.171875 200.011719 187.171875 200.011719 187.171875 200.011719 M 187.167969 200.011719 C 187.164062 200.011719 187.164062 200.011719 187.164062 200.011719 C 187.164062 200.011719 187.164062 200.011719 187.167969 200.011719 M 187.160156 200.011719 L 187.160156 200.011719 M 187.152344 200.011719 L 187.152344 200.011719 M 187.148438 200.011719 C 187.148438 200.011719 187.144531 200.011719 187.144531 200.011719 C 187.144531 200.011719 187.148438 200.011719 187.148438 200.011719 M 187.140625 200.011719 C 187.140625 200.011719 187.140625 200.011719 187.140625 200.007812 C 187.140625 200.011719 187.140625 200.011719 187.140625 200.011719 M 187.132812 200.007812 L 187.132812 200.007812 M 187.128906 200.007812 C 187.128906 200.007812 187.128906 200.007812 187.125 200.007812 C 187.128906 200.007812 187.128906 200.007812 187.128906 200.007812 M 187.125 200.007812 C 187.121094 200.007812 187.121094 200.007812 187.121094 200.007812 C 187.121094 200.007812 187.121094 200.007812 187.125 200.007812 M 187.113281 200.007812 L 187.113281 200.007812 M 187.109375 200.007812 L 187.109375 200.007812 M 187.105469 200.007812 C 187.105469 200.007812 187.101562 200.007812 187.101562 200.007812 C 187.101562 200.007812 187.105469 200.007812 187.105469 200.007812 M 187.09375 200.007812 L 187.09375 200.007812 M 187.089844 200.007812 L 187.089844 200.007812 M 187.085938 200.007812 L 187.085938 200.007812 M 187.074219 200.007812 L 187.074219 200.007812 M 187.070312 200.007812 L 187.070312 200.007812 M 187.066406 200.003906 L 187.066406 200.003906 M 187.050781 200.003906 L 187.050781 200.003906 M 187.046875 200.003906 L 187.046875 200.003906 M 187.035156 200.003906 C 187.035156 200.003906 187.03125 200.003906 187.03125 200.003906 C 187.03125 200.003906 187.035156 200.003906 187.035156 200.003906 M 187.027344 200.003906 L 187.027344 200.003906 M 187.015625 200.003906 L 187.015625 200.003906 M 187.007812 200.003906 L 187.007812 200.003906 M 186.996094 200 L 186.996094 200 M 186.992188 200 L 186.992188 200 M 185.921875 177.832031 C 186.339844 177.167969 186.742188 176.511719 187.117188 175.882812 C 186.742188 176.511719 186.339844 177.167969 185.925781 177.832031 M 187.121094 175.882812 C 187.121094 175.878906 187.121094 175.875 187.125 175.875 C 187.121094 175.875 187.121094 175.878906 187.121094 175.882812 M 187.125 175.875 C 187.125 175.871094 187.128906 175.867188 187.128906 175.863281 C 187.128906 175.867188 187.125 175.871094 187.125 175.875 M 187.132812 175.863281 C 187.132812 175.859375 187.136719 175.855469 187.136719 175.855469 C 187.132812 175.855469 187.132812 175.859375 187.132812 175.863281 M 187.136719 175.855469 C 187.136719 175.851562 187.140625 175.847656 187.140625 175.84375 C 187.140625 175.847656 187.136719 175.851562 187.136719 175.855469 M 187.144531 175.84375 C 187.167969 175.804688 187.1875 175.765625 187.210938 175.726562 C 187.1875 175.765625 187.167969 175.804688 187.144531 175.84375 M 187.210938 175.726562 C 187.226562 175.703125 187.242188 175.675781 187.257812 175.652344 C 187.242188 175.675781 187.226562 175.703125 187.210938 175.726562 M 187.257812 175.648438 C 187.265625 175.636719 187.273438 175.625 187.28125 175.613281 C 187.273438 175.625 187.265625 175.636719 187.257812 175.648438 M 187.28125 175.609375 C 187.285156 175.605469 187.289062 175.597656 187.292969 175.59375 C 187.289062 175.597656 187.285156 175.605469 187.28125 175.609375 M 187.292969 175.589844 C 187.296875 175.589844 187.296875 175.585938 187.296875 175.582031 C 187.296875 175.585938 187.296875 175.589844 187.292969 175.589844 M 187.300781 175.582031 C 187.300781 175.578125 187.300781 175.578125 187.304688 175.574219 C 187.300781 175.578125 187.300781 175.578125 187.300781 175.582031 M 187.304688 175.570312 C 187.308594 175.570312 187.308594 175.566406 187.308594 175.566406 C 187.308594 175.566406 187.308594 175.570312 187.304688 175.570312 M 187.3125 175.5625 C 187.3125 175.558594 187.3125 175.558594 187.316406 175.554688 C 187.3125 175.558594 187.3125 175.558594 187.3125 175.5625 M 187.316406 175.550781 C 187.320312 175.550781 187.320312 175.546875 187.320312 175.542969 C 187.320312 175.546875 187.316406 175.550781 187.316406 175.550781 M 187.324219 175.542969 C 187.324219 175.539062 187.328125 175.53125 187.332031 175.527344 C 187.328125 175.53125 187.324219 175.539062 187.324219 175.542969 M 187.332031 175.523438 C 187.335938 175.523438 187.335938 175.519531 187.339844 175.515625 C 187.335938 175.519531 187.335938 175.519531 187.332031 175.523438 M 187.339844 175.515625 C 187.34375 175.507812 187.347656 175.503906 187.351562 175.496094 C 187.347656 175.503906 187.34375 175.507812 187.339844 175.515625 M 187.351562 175.496094 C 187.355469 175.488281 187.359375 175.484375 187.363281 175.476562 C 187.359375 175.484375 187.355469 175.488281 187.351562 175.496094 M 187.363281 175.476562 C 187.367188 175.472656 187.367188 175.464844 187.371094 175.457031 C 187.371094 175.464844 187.367188 175.472656 187.363281 175.476562 M 187.375 175.457031 C 187.375 175.453125 187.375 175.453125 187.378906 175.449219 C 187.375 175.453125 187.375 175.453125 187.375 175.457031 M 187.378906 175.449219 C 187.378906 175.445312 187.382812 175.441406 187.382812 175.441406 C 187.382812 175.441406 187.378906 175.445312 187.378906 175.449219 M 187.386719 175.4375 C 187.386719 175.433594 187.386719 175.433594 187.390625 175.429688 C 187.386719 175.433594 187.386719 175.433594 187.386719 175.4375 M 187.390625 175.429688 C 187.390625 175.425781 187.394531 175.421875 187.394531 175.421875 C 187.394531 175.421875 187.390625 175.425781 187.390625 175.429688 M 187.398438 175.417969 C 187.398438 175.414062 187.398438 175.414062 187.402344 175.410156 C 187.398438 175.414062 187.398438 175.414062 187.398438 175.417969 M 187.402344 175.410156 C 187.40625 175.402344 187.410156 175.398438 187.414062 175.390625 C 187.410156 175.398438 187.40625 175.402344 187.402344 175.410156 M 187.414062 175.390625 C 187.414062 175.386719 187.414062 175.386719 187.417969 175.382812 C 187.414062 175.386719 187.414062 175.386719 187.414062 175.390625 M 187.417969 175.382812 C 187.421875 175.375 187.425781 175.371094 187.429688 175.363281 C 187.425781 175.371094 187.421875 175.375 187.417969 175.382812 M 187.429688 175.363281 C 187.429688 175.359375 187.433594 175.355469 187.433594 175.355469 C 187.433594 175.355469 187.429688 175.359375 187.429688 175.363281 M 187.4375 175.351562 C 187.4375 175.347656 187.4375 175.347656 187.441406 175.347656 C 187.4375 175.347656 187.4375 175.347656 187.4375 175.351562 M 187.441406 175.34375 C 187.441406 175.339844 187.445312 175.339844 187.445312 175.335938 C 187.445312 175.339844 187.441406 175.339844 187.441406 175.34375 M 187.445312 175.332031 C 187.449219 175.332031 187.449219 175.328125 187.453125 175.328125 C 187.449219 175.328125 187.449219 175.332031 187.445312 175.332031 M 187.453125 175.324219 C 187.453125 175.320312 187.457031 175.320312 187.457031 175.316406 C 187.457031 175.320312 187.453125 175.320312 187.453125 175.324219 M 187.457031 175.316406 C 187.460938 175.3125 187.460938 175.308594 187.460938 175.308594 C 187.460938 175.308594 187.460938 175.3125 187.457031 175.316406 M 187.464844 175.304688 C 187.464844 175.300781 187.464844 175.300781 187.46875 175.296875 C 187.464844 175.300781 187.464844 175.300781 187.464844 175.304688 M 187.46875 175.296875 C 187.46875 175.292969 187.472656 175.289062 187.472656 175.289062 C 187.472656 175.289062 187.46875 175.292969 187.46875 175.296875 M 187.476562 175.285156 C 187.476562 175.285156 187.476562 175.28125 187.480469 175.28125 C 187.476562 175.28125 187.476562 175.285156 187.476562 175.285156 M 187.480469 175.277344 C 187.480469 175.273438 187.484375 175.269531 187.484375 175.269531 C 187.484375 175.269531 187.480469 175.273438 187.480469 175.277344 " fill-opacity="1" fill-rule="nonzero"/></g><g clip-path="url(#2fc15a2b65)"><path fill="#6db8e8" d="M 187.484375 200.019531 C 187.484375 200.019531 187.480469 200.019531 187.480469 200.019531 C 187.480469 200.019531 187.480469 200.019531 187.476562 200.019531 C 187.476562 200.019531 187.476562 200.019531 187.472656 200.019531 C 187.46875 200.019531 187.464844 200.019531 187.460938 200.019531 C 187.460938 200.019531 187.460938 200.019531 187.457031 200.019531 C 187.457031 200.019531 187.457031 200.019531 187.453125 200.019531 C 187.449219 200.019531 187.449219 200.019531 187.449219 200.019531 L 187.445312 200.019531 C 187.445312 200.019531 187.441406 200.019531 187.441406 200.019531 C 187.4375 200.019531 187.4375 200.019531 187.4375 200.019531 C 187.433594 200.019531 187.433594 200.019531 187.433594 200.019531 C 187.433594 200.019531 187.429688 200.019531 187.429688 200.019531 C 187.425781 200.019531 187.425781 200.019531 187.421875 200.019531 C 187.417969 200.019531 187.417969 200.019531 187.417969 200.019531 C 187.414062 200.019531 187.414062 200.019531 187.414062 200.019531 C 187.414062 200.019531 187.410156 200.019531 187.410156 200.019531 C 187.40625 200.019531 187.40625 200.019531 187.402344 200.019531 C 187.398438 200.019531 187.398438 200.019531 187.398438 200.019531 C 187.398438 200.019531 187.394531 200.019531 187.394531 200.019531 C 187.394531 200.019531 187.390625 200.019531 187.390625 200.019531 C 187.390625 200.019531 187.390625 200.019531 187.390625 200.015625 C 187.386719 200.015625 187.386719 200.015625 187.382812 200.015625 C 187.382812 200.015625 187.378906 200.015625 187.378906 200.015625 C 187.378906 200.015625 187.378906 200.015625 187.375 200.015625 C 187.375 200.015625 187.375 200.015625 187.371094 200.015625 C 187.367188 200.015625 187.367188 200.015625 187.363281 200.015625 C 187.363281 200.015625 187.359375 200.015625 187.359375 200.015625 C 187.359375 200.015625 187.359375 200.015625 187.355469 200.015625 C 187.355469 200.015625 187.355469 200.015625 187.351562 200.015625 C 187.351562 200.015625 187.347656 200.015625 187.347656 200.015625 C 187.34375 200.015625 187.34375 200.015625 187.34375 200.015625 C 187.34375 200.015625 187.339844 200.015625 187.339844 200.015625 C 187.335938 200.015625 187.335938 200.015625 187.335938 200.015625 C 187.332031 200.015625 187.332031 200.015625 187.332031 200.015625 C 187.332031 200.015625 187.328125 200.015625 187.328125 200.015625 C 187.328125 200.015625 187.324219 200.015625 187.324219 200.015625 C 187.324219 200.015625 187.324219 200.015625 187.320312 200.015625 C 187.316406 200.015625 187.316406 200.015625 187.316406 200.015625 C 187.316406 200.015625 187.3125 200.015625 187.3125 200.015625 C 187.3125 200.015625 187.308594 200.015625 187.308594 200.015625 C 187.308594 200.015625 187.308594 200.015625 187.304688 200.015625 C 187.304688 200.015625 187.304688 200.015625 187.300781 200.015625 C 187.300781 200.015625 187.296875 200.015625 187.296875 200.015625 C 187.296875 200.015625 187.296875 200.015625 187.292969 200.015625 C 187.292969 200.015625 187.289062 200.015625 187.289062 200.015625 C 187.285156 200.015625 187.285156 200.015625 187.285156 200.015625 C 187.28125 200.015625 187.28125 200.015625 187.28125 200.015625 C 187.28125 200.015625 187.277344 200.015625 187.277344 200.015625 C 187.273438 200.015625 187.273438 200.015625 187.269531 200.015625 C 187.265625 200.015625 187.265625 200.015625 187.265625 200.015625 C 187.261719 200.015625 187.261719 200.015625 187.261719 200.015625 C 187.261719 200.015625 187.257812 200.015625 187.257812 200.015625 C 187.253906 200.015625 187.253906 200.015625 187.25 200.015625 C 187.246094 200.015625 187.246094 200.015625 187.246094 200.015625 C 187.246094 200.015625 187.242188 200.015625 187.242188 200.015625 C 187.242188 200.015625 187.242188 200.015625 187.238281 200.015625 C 187.234375 200.015625 187.234375 200.015625 187.234375 200.011719 C 187.230469 200.011719 187.230469 200.011719 187.230469 200.011719 C 187.230469 200.011719 187.226562 200.011719 187.226562 200.011719 C 187.226562 200.011719 187.226562 200.011719 187.222656 200.011719 C 187.21875 200.011719 187.21875 200.011719 187.21875 200.011719 C 187.21875 200.011719 187.214844 200.011719 187.214844 200.011719 C 187.210938 200.011719 187.210938 200.011719 187.210938 200.011719 C 187.210938 200.011719 187.207031 200.011719 187.207031 200.011719 C 187.207031 200.011719 187.207031 200.011719 187.203125 200.011719 C 187.203125 200.011719 187.199219 200.011719 187.199219 200.011719 C 187.199219 200.011719 187.195312 200.011719 187.195312 200.011719 C 187.195312 200.011719 187.191406 200.011719 187.191406 200.011719 C 187.191406 200.011719 187.191406 200.011719 187.1875 200.011719 C 187.183594 200.011719 187.183594 200.011719 187.183594 200.011719 C 187.183594 200.011719 187.179688 200.011719 187.179688 200.011719 C 187.179688 200.011719 187.179688 200.011719 187.175781 200.011719 C 187.175781 200.011719 187.175781 200.011719 187.171875 200.011719 C 187.171875 200.011719 187.171875 200.011719 187.167969 200.011719 C 187.164062 200.011719 187.164062 200.011719 187.164062 200.011719 C 187.164062 200.011719 187.164062 200.011719 187.160156 200.011719 C 187.15625 200.011719 187.15625 200.011719 187.152344 200.011719 C 187.148438 200.011719 187.148438 200.011719 187.148438 200.011719 C 187.148438 200.011719 187.144531 200.011719 187.144531 200.011719 C 187.144531 200.011719 187.144531 200.011719 187.140625 200.011719 C 187.140625 200.011719 187.140625 200.011719 187.140625 200.007812 C 187.136719 200.007812 187.136719 200.007812 187.132812 200.007812 C 187.132812 200.007812 187.128906 200.007812 187.128906 200.007812 C 187.128906 200.007812 187.128906 200.007812 187.125 200.007812 C 187.121094 200.007812 187.121094 200.007812 187.121094 200.007812 C 187.121094 200.007812 187.117188 200.007812 187.113281 200.007812 C 187.113281 200.007812 187.109375 200.007812 187.109375 200.007812 C 187.105469 200.007812 187.105469 200.007812 187.105469 200.007812 C 187.105469 200.007812 187.101562 200.007812 187.101562 200.007812 C 187.101562 200.007812 187.097656 200.007812 187.09375 200.007812 C 187.09375 200.007812 187.09375 200.007812 187.089844 200.007812 C 187.085938 200.007812 187.085938 200.007812 187.085938 200.007812 C 187.082031 200.007812 187.078125 200.007812 187.074219 200.007812 C 187.074219 200.007812 187.074219 200.007812 187.070312 200.007812 C 187.070312 200.007812 187.066406 200.007812 187.066406 200.003906 C 187.0625 200.003906 187.058594 200.003906 187.050781 200.003906 C 187.050781 200.003906 187.050781 200.003906 187.046875 200.003906 C 187.042969 200.003906 187.039062 200.003906 187.035156 200.003906 C 187.035156 200.003906 187.03125 200.003906 187.03125 200.003906 C 187.03125 200.003906 187.03125 200.003906 187.027344 200.003906 C 187.023438 200.003906 187.019531 200.003906 187.015625 200.003906 C 187.011719 200.003906 187.011719 200.003906 187.007812 200.003906 C 187.003906 200 187 200 186.996094 200 C 186.992188 200 186.992188 200 186.992188 200 C 183.933594 199.785156 181.347656 197.589844 180.222656 194.53125 C 181.417969 195.859375 183.054688 196.679688 184.863281 196.679688 C 188.523438 196.679688 191.492188 193.316406 191.496094 189.164062 C 191.496094 186.535156 190.09375 184.0625 188.753906 182.027344 C 187.902344 180.730469 186.816406 179.300781 185.921875 177.832031 C 186.339844 177.167969 186.742188 176.511719 187.117188 175.882812 C 187.117188 175.882812 187.121094 175.882812 187.121094 175.882812 C 187.121094 175.878906 187.121094 175.875 187.125 175.875 C 187.125 175.871094 187.128906 175.867188 187.128906 175.863281 C 187.128906 175.863281 187.132812 175.863281 187.132812 175.863281 C 187.132812 175.859375 187.132812 175.855469 187.136719 175.855469 C 187.136719 175.851562 187.140625 175.847656 187.140625 175.84375 C 187.140625 175.84375 187.144531 175.84375 187.144531 175.84375 C 187.167969 175.804688 187.1875 175.765625 187.210938 175.726562 C 187.226562 175.703125 187.242188 175.675781 187.257812 175.652344 C 187.257812 175.652344 187.257812 175.648438 187.257812 175.648438 C 187.265625 175.636719 187.273438 175.625 187.28125 175.613281 C 187.28125 175.613281 187.28125 175.609375 187.28125 175.609375 C 187.285156 175.605469 187.289062 175.597656 187.292969 175.59375 C 187.292969 175.59375 187.292969 175.59375 187.292969 175.589844 C 187.296875 175.589844 187.296875 175.585938 187.296875 175.582031 C 187.296875 175.582031 187.300781 175.582031 187.300781 175.582031 C 187.300781 175.578125 187.300781 175.578125 187.304688 175.574219 C 187.304688 175.574219 187.304688 175.570312 187.304688 175.570312 C 187.308594 175.570312 187.308594 175.566406 187.308594 175.566406 C 187.308594 175.5625 187.308594 175.5625 187.3125 175.5625 C 187.3125 175.558594 187.3125 175.558594 187.316406 175.554688 C 187.316406 175.554688 187.316406 175.554688 187.316406 175.550781 C 187.316406 175.550781 187.320312 175.546875 187.320312 175.542969 C 187.320312 175.542969 187.320312 175.542969 187.324219 175.542969 C 187.324219 175.539062 187.328125 175.53125 187.332031 175.527344 C 187.332031 175.523438 187.332031 175.523438 187.332031 175.523438 C 187.335938 175.519531 187.335938 175.519531 187.339844 175.515625 C 187.34375 175.507812 187.347656 175.503906 187.351562 175.496094 C 187.355469 175.488281 187.359375 175.484375 187.363281 175.476562 C 187.367188 175.472656 187.371094 175.464844 187.371094 175.457031 C 187.371094 175.457031 187.375 175.457031 187.375 175.457031 C 187.375 175.453125 187.375 175.453125 187.378906 175.449219 C 187.378906 175.445312 187.382812 175.441406 187.382812 175.441406 C 187.382812 175.4375 187.382812 175.4375 187.386719 175.4375 C 187.386719 175.433594 187.386719 175.433594 187.390625 175.429688 C 187.390625 175.425781 187.394531 175.421875 187.394531 175.421875 C 187.394531 175.417969 187.394531 175.417969 187.398438 175.417969 C 187.398438 175.414062 187.398438 175.414062 187.402344 175.410156 C 187.40625 175.402344 187.410156 175.398438 187.414062 175.390625 C 187.414062 175.386719 187.414062 175.386719 187.417969 175.382812 C 187.421875 175.375 187.425781 175.371094 187.429688 175.363281 C 187.429688 175.359375 187.433594 175.355469 187.433594 175.355469 C 187.433594 175.355469 187.4375 175.351562 187.4375 175.351562 C 187.4375 175.347656 187.4375 175.347656 187.441406 175.347656 C 187.441406 175.34375 187.441406 175.34375 187.441406 175.34375 C 187.441406 175.339844 187.445312 175.339844 187.445312 175.335938 C 187.445312 175.335938 187.445312 175.335938 187.445312 175.332031 C 187.449219 175.332031 187.449219 175.328125 187.453125 175.328125 C 187.453125 175.324219 187.453125 175.324219 187.453125 175.324219 C 187.453125 175.320312 187.457031 175.320312 187.457031 175.316406 C 187.460938 175.3125 187.460938 175.308594 187.460938 175.308594 C 187.464844 175.304688 187.464844 175.304688 187.464844 175.304688 C 187.464844 175.300781 187.464844 175.300781 187.46875 175.296875 C 187.46875 175.292969 187.472656 175.289062 187.472656 175.289062 C 187.472656 175.289062 187.476562 175.285156 187.476562 175.285156 C 187.476562 175.285156 187.476562 175.28125 187.480469 175.28125 C 187.480469 175.277344 187.480469 175.277344 187.480469 175.277344 C 187.480469 175.273438 187.484375 175.269531 187.484375 175.269531 C 188.574219 177.824219 190.632812 180.398438 192.101562 182.636719 C 193.691406 185.046875 195.351562 187.980469 195.351562 191.101562 C 195.351562 196.027344 191.828125 200.019531 187.484375 200.019531 " fill-opacity="1" fill-rule="nonzero"/></g><path fill="#f4f8f9" d="M 180.285156 192.582031 C 180.023438 190.792969 180.609375 189.21875 181.59375 189.070312 C 182.578125 188.921875 181.808594 190.523438 182.070312 192.3125 C 182.335938 194.105469 183.535156 195.40625 182.546875 195.558594 C 181.5625 195.707031 180.550781 194.375 180.285156 192.582031 " fill-opacity="1" fill-rule="nonzero"/><path fill="#f4f8f9" d="M 182.671875 187.644531 C 182.671875 187.160156 182.28125 186.765625 181.804688 186.765625 C 181.324219 186.765625 180.9375 187.160156 180.9375 187.644531 C 180.9375 188.128906 181.324219 188.523438 181.804688 188.523438 C 182.28125 188.523438 182.671875 188.128906 182.671875 187.644531 " fill-opacity="1" fill-rule="nonzero"/></svg>